M48
;Layer_Color=9474304
;FILE_FORMAT=2:5
INCH,LZ
;TYPE=PLATED
T1F00S00C0.00906
T2F00S00C0.01181
T3F00S00C0.01575
T4F00S00C0.02000
T5F00S00C0.02756
T6F00S00C0.03000
T7F00S00C0.03543
T8F00S00C0.04331
T9F00S00C0.10000
;TYPE=NON_PLATED
T10F00S00C0.02283
T11F00S00C0.02598
%
T01
X-009755Y011375
T02
X007465Y-00976
X0089114Y-0101636
X0096126Y-0100988
X01152Y-010605
X0124921Y-0099248
X002015Y-0114173
X-00046Y-013525
X-00049Y-01475
X-0021654Y-014
X-002445Y-012275
X-004225Y-01388
X-0053039Y-0140913
X-005735Y-010685
X-005695Y-010295
X-005915Y-00995
X-00565Y-008855
X-00722Y-010225
X-007305Y-010685
X-00866Y-010475
X-01119Y-011505
X-009405Y-01436
X-008885Y-014785
X-00316Y-01652
X-0033075Y-0169146
X0007874Y-0171063
X-011655Y-011155
X-0116882Y-0106665
X-0125221Y-0104921
X-0130354Y-0071689
X-0137287Y-0074138
X-0118165Y-006422
X-0100421Y-0066837
X-0098071Y-0051886
X-0070492Y-00655
X-0055492
X-003755Y-006545
X-00423Y-00798
X-00454Y-00832
X-004345Y-008665
X-004925
X-00536
X-006675Y-008125
X-004963Y-0040413
X-0044772Y-0040559
X-0039862Y-0033661
X-0020617
X-0000933
X001875
X0011083Y0003937
X0015776Y0008709
X0022354Y0011961
X00223Y001895
X00228Y002595
X002265Y003025
X00274Y002545
X00296Y00221
X002945Y004875
X0023622Y0059503
X0012795Y004425
X-000645Y00311
X-00107Y001905
X-00138Y00538
X-001985Y005045
X-0032441Y00428
X-0048524Y005545
X-0057776
X-00441Y0062992
X0059075Y0048791
X0062535Y0051941
X008325Y00668
X008065Y-000995
X0076378Y-0014161
X0071382Y-0017492
X0071945Y-0021185
X0054626Y-0033661
X0049689Y-0039177
X0045016Y-0039102
X0055492Y-00655
X0070492
X007475Y-00784
Y-00822
Y-0086
X0079114Y-007785
X009945Y-00639
X010235Y-006095
X01049Y-00579
X01088Y-00566
X01291Y-007015
X009685Y-00132
X00455Y-00857
X004165Y-008275
X0056732Y007215
X005511Y0075779
X00576Y00796
X0083Y0080315
X00861Y0077165
Y0083465
X0083Y0086614
X006545Y01012
X0076925Y0118079
X00563Y01244
X0052157Y013115
X004552Y0128264
X00412Y01282
X004065Y0095
X0035Y009465
X0034583Y0098516
X003Y00944
X0022724Y0098158
X0018305Y0100399
X0016043Y0097905
X00134Y008655
X00139Y0081653
X0014268Y0072772
X0008925Y0069555
X002325Y007
X003005Y006915
X002702Y0074169
X0027189Y0078095
X0026166Y0102483
X00273Y012785
X003055Y013115
X0019Y01283
X0016Y012365
X001105Y0128
X-00033Y0117421
X-001545Y01109
X-0019158Y0111653
X-002274Y0111874
X-0026264Y0112024
X-0025574Y0108051
X-0028937Y0107138
X-0032827Y0109524
X-0035209Y0113122
X-0037126Y0103
X-003545Y00975
X-0040665Y0093886
X-0038087Y0090803
X-003615Y008685
X-0032083Y0087075
X-00386Y008225
X-00365Y007055
X-0030512Y0070562
X-000565Y00715
X-00055Y00791
X-0012039Y0088035
X-001674Y008809
X-0015986Y0101594
X-002085Y01025
X-002475Y009595
X0006862Y0090811
X-001255Y01309
X-0021268Y0130756
X-001975Y01338
X-0023661Y013602
X-0025819Y0138697
X-0053059Y012998
X-007113Y0112539
X-0071925Y0103146
X-0068496Y0103685
X-0068504Y0098071
X-0063925Y0098583
X-006614Y0079718
X-0079821Y0083248
X-0078922Y0089856
X-0082945Y0094236
X-0085984Y0096539
X-0086286Y0103484
X-0083497Y0106846
X-0095551Y0081094
T03
X-0065374Y0064264
X-0057256Y0116079
T04
X-002265Y-014745
X00188Y-013015
X-0127118Y-0092823
T05
X-0062598Y0034843
Y0051772
X-0043701
Y0034843
T06
X-00231Y-00941
T07
X012507Y007178
X011811Y007874
X0111151Y00857
X003937Y0139764
Y0149606
Y0159449
X0009843Y0149606
X0
X-0009843
X-003937
Y0159449
Y0139764
X-0111151Y00857
X-011811Y007874
X-012507Y007178
T08
X-0114173Y-009252
X-0106299
Y-0082677
X-0114173
Y-0072835
X-0106299
T09
X-0108268Y-0035433
X-0108268Y0035433
X0108268
Y-0035433
X0059055Y0145669
X-0059055
T10
X-0038386Y0043307
T11
X-0067913Y0043307
M30
