G04*
G04 #@! TF.GenerationSoftware,Altium Limited,Altium Designer,20.0.13 (296)*
G04*
G04 Layer_Color=16711935*
%FSLAX25Y25*%
%MOIN*%
G70*
G01*
G75*
%ADD73R,0.06312X0.04343*%
%ADD75R,0.04619X0.04895*%
%ADD82R,0.04737X0.04147*%
%ADD83R,0.04895X0.04619*%
%ADD87R,0.06509X0.04737*%
%ADD88R,0.05721X0.07887*%
%ADD89R,0.07099X0.09422*%
%ADD90R,0.06587X0.04816*%
%ADD91R,0.04343X0.04540*%
%ADD92R,0.04540X0.04343*%
%ADD106R,0.04737X0.06509*%
%ADD108C,0.05131*%
%ADD109C,0.03398*%
%ADD110C,0.03084*%
%ADD111C,0.06343*%
%ADD112R,0.06343X0.06343*%
%ADD113R,0.06343X0.06343*%
%ADD114P,0.08971X4X360.0*%
%ADD115P,0.08971X4X90.0*%
%ADD116R,0.07296X0.07296*%
%ADD117C,0.07296*%
%ADD118C,0.16548*%
%ADD119C,0.03162*%
%ADD120C,0.06800*%
%ADD121C,0.03556*%
%ADD164C,0.10800*%
%ADD165R,0.01666X0.03320*%
%ADD166R,0.03320X0.01666*%
%ADD167R,0.05682X0.03950*%
%ADD168R,0.10642X0.04540*%
%ADD169R,0.09461X0.05328*%
%ADD170R,0.05721X0.05367*%
%ADD171R,0.05524X0.05367*%
%ADD172R,0.05328X0.06706*%
%ADD173R,0.01981X0.04737*%
%ADD174R,0.04737X0.01981*%
%ADD175R,0.04973X0.05564*%
%ADD176R,0.05131X0.02572*%
%ADD177R,0.02572X0.05131*%
%ADD178R,0.07296X0.05328*%
%ADD179R,0.03871X0.01863*%
%ADD180R,0.01863X0.03871*%
%ADD181R,0.05800X0.03000*%
%ADD182R,0.06000X0.03000*%
%ADD183O,0.07099X0.09658*%
%ADD184R,0.04737X0.06706*%
%ADD185R,0.06706X0.04737*%
G36*
X-36001Y41772D02*
X-40748D01*
Y44845D01*
X-36001D01*
Y41772D01*
D02*
G37*
D73*
X45850Y-163890D02*
D03*
Y-156410D02*
D03*
D75*
X70866Y113150D02*
D03*
Y107323D02*
D03*
X64961Y113150D02*
D03*
Y107323D02*
D03*
X39370Y113150D02*
D03*
Y107323D02*
D03*
X33465D02*
D03*
Y113150D02*
D03*
X27559Y107323D02*
D03*
Y113150D02*
D03*
X21654Y107323D02*
D03*
Y113150D02*
D03*
X-26700Y47513D02*
D03*
Y41687D02*
D03*
D82*
X71Y44246D02*
D03*
Y37946D02*
D03*
D83*
X79685Y55118D02*
D03*
X73858D02*
D03*
X79685Y49449D02*
D03*
X73858D02*
D03*
X-11638Y28900D02*
D03*
X-17465D02*
D03*
X-11638Y23367D02*
D03*
X-17465D02*
D03*
X18555Y-91D02*
D03*
X12728D02*
D03*
X18555Y-5984D02*
D03*
X12728D02*
D03*
X-18013Y-10500D02*
D03*
X-12187D02*
D03*
X-11638Y8450D02*
D03*
X-17465D02*
D03*
Y14600D02*
D03*
X-11638D02*
D03*
D87*
X4843Y-41142D02*
D03*
Y-33661D02*
D03*
X24528Y-41142D02*
D03*
Y-33661D02*
D03*
X-34528Y-41142D02*
D03*
Y-33661D02*
D03*
X-14842Y-41142D02*
D03*
Y-33661D02*
D03*
D88*
X16689Y46175D02*
D03*
Y35939D02*
D03*
X57803Y-111065D02*
D03*
Y-100828D02*
D03*
D89*
X23622Y90102D02*
D03*
Y59503D02*
D03*
X57803Y-121602D02*
D03*
Y-152202D02*
D03*
D90*
X7248Y37868D02*
D03*
Y44246D02*
D03*
X-81524Y-107346D02*
D03*
Y-113724D02*
D03*
X67335Y-104687D02*
D03*
Y-111065D02*
D03*
D91*
X-18053Y-4150D02*
D03*
X-12147D02*
D03*
D92*
X59055Y107283D02*
D03*
Y113189D02*
D03*
X500Y60047D02*
D03*
Y65953D02*
D03*
X-5913D02*
D03*
Y60047D02*
D03*
X12400Y23405D02*
D03*
Y17500D02*
D03*
D106*
X-67126Y-59055D02*
D03*
X-74606D02*
D03*
X-58858D02*
D03*
X-51378D02*
D03*
X58858D02*
D03*
X51378D02*
D03*
X67126D02*
D03*
X74606D02*
D03*
X19488Y-166945D02*
D03*
X12008D02*
D03*
X-93227Y-123100D02*
D03*
X-100708D02*
D03*
X-19488Y-166945D02*
D03*
X-12008D02*
D03*
X3740D02*
D03*
X-3740D02*
D03*
D108*
X-43701Y34843D02*
D03*
X-62598D02*
D03*
X-43701Y51772D02*
D03*
X-62598D02*
D03*
D109*
X-67913Y43307D02*
D03*
D110*
X-38386D02*
D03*
D111*
X9843Y149606D02*
D03*
X0D02*
D03*
X39370Y139764D02*
D03*
Y149606D02*
D03*
X-39370Y159449D02*
D03*
Y149606D02*
D03*
X125070Y71780D02*
D03*
X118110Y78740D02*
D03*
X-111151Y85700D02*
D03*
X-118110Y78740D02*
D03*
D112*
X-9843Y149606D02*
D03*
D113*
X39370Y159449D02*
D03*
X-39370Y139764D02*
D03*
D114*
X111151Y85700D02*
D03*
D115*
X-125070Y71780D02*
D03*
D116*
X-106299Y-72835D02*
D03*
D117*
Y-82677D02*
D03*
X-114173D02*
D03*
Y-72835D02*
D03*
Y-92520D02*
D03*
X-106299D02*
D03*
D118*
X-108268Y35433D02*
D03*
X108268D02*
D03*
Y-35433D02*
D03*
X-108268Y-35433D02*
D03*
X-59055Y145669D02*
D03*
X59055D02*
D03*
D119*
X-66140Y79718D02*
D03*
X-88850Y-147850D02*
D03*
X-94050Y-143600D02*
D03*
X-111900Y-115050D02*
D03*
X-116550Y-111550D02*
D03*
X-44100Y62992D02*
D03*
X-48524Y55450D02*
D03*
X-57776D02*
D03*
X35000Y94650D02*
D03*
X40650Y95000D02*
D03*
X23622Y59503D02*
D03*
X-13800Y53800D02*
D03*
X-6450Y31100D02*
D03*
X83250Y66800D02*
D03*
X13900Y81653D02*
D03*
X13400Y86550D02*
D03*
X11050Y128000D02*
D03*
X30550Y131150D02*
D03*
X41200Y128200D02*
D03*
X16000Y123650D02*
D03*
X19000Y128300D02*
D03*
X29450Y48750D02*
D03*
X-19850Y50450D02*
D03*
X27300Y127850D02*
D03*
X30000Y94400D02*
D03*
X65450Y101200D02*
D03*
X22650Y30250D02*
D03*
X22800Y25950D02*
D03*
X27400Y25450D02*
D03*
X22300Y18950D02*
D03*
X29600Y22100D02*
D03*
X83000Y86614D02*
D03*
X86100Y77165D02*
D03*
X83000Y80315D02*
D03*
X86100Y83465D02*
D03*
X96850Y-13200D02*
D03*
X80650Y-9950D02*
D03*
X-86600Y-104750D02*
D03*
X-98071Y-51886D02*
D03*
X108800Y-56600D02*
D03*
X74650Y-97600D02*
D03*
X-37550Y-65450D02*
D03*
X-45400Y-83200D02*
D03*
X-56500Y-88550D02*
D03*
X104900Y-57900D02*
D03*
X102350Y-60950D02*
D03*
X99450Y-63900D02*
D03*
X74750Y-86000D02*
D03*
Y-82200D02*
D03*
X-49250Y-86650D02*
D03*
X-53600D02*
D03*
X-72200Y-102250D02*
D03*
X-73050Y-106850D02*
D03*
X-59150Y-99500D02*
D03*
X74750Y-78400D02*
D03*
X-66750Y-81250D02*
D03*
X7874Y-171063D02*
D03*
X115200Y-106050D02*
D03*
X76378Y-14161D02*
D03*
X54626Y-33661D02*
D03*
X18750D02*
D03*
X-933D02*
D03*
X-20617D02*
D03*
X-39862D02*
D03*
X89114Y-101636D02*
D03*
X129100Y-70150D02*
D03*
X79114Y-77850D02*
D03*
X-31600Y-165200D02*
D03*
X70492Y-65500D02*
D03*
X55492D02*
D03*
X-70492D02*
D03*
X-55492D02*
D03*
X45500Y-85700D02*
D03*
X41650Y-82750D02*
D03*
X-42300Y-79800D02*
D03*
X-43450Y-86650D02*
D03*
X-125221Y-104921D02*
D03*
X-100421Y-66837D02*
D03*
X-118165Y-64220D02*
D03*
X-116882Y-106665D02*
D03*
X-68504Y98071D02*
D03*
X6862Y90811D02*
D03*
X52157Y131150D02*
D03*
X45520Y128264D02*
D03*
X-130354Y-71689D02*
D03*
X96126Y-100988D02*
D03*
X124921Y-99248D02*
D03*
X-82945Y94236D02*
D03*
X22724Y98158D02*
D03*
X8925Y69555D02*
D03*
X-23661Y136020D02*
D03*
X-25819Y138697D02*
D03*
X-137287Y-74138D02*
D03*
X-85984Y96539D02*
D03*
X-86286Y103484D02*
D03*
X-33075Y-169146D02*
D03*
X-71130Y112539D02*
D03*
X71945Y-21185D02*
D03*
X71382Y-17492D02*
D03*
X-63925Y98583D02*
D03*
X-71925Y103146D02*
D03*
X-68496Y103685D02*
D03*
X-83497Y106846D02*
D03*
X-78922Y89856D02*
D03*
X-49630Y-40413D02*
D03*
X-44772Y-40559D02*
D03*
X34583Y98516D02*
D03*
X26166Y102483D02*
D03*
X45016Y-39102D02*
D03*
X49689Y-39177D02*
D03*
X18305Y100399D02*
D03*
X16043Y97905D02*
D03*
X76925Y118079D02*
D03*
X62535Y51941D02*
D03*
X59075Y48791D02*
D03*
X15776Y8709D02*
D03*
X22354Y11961D02*
D03*
D120*
X-23100Y-94100D02*
D03*
D121*
X-57256Y116079D02*
D03*
X-65374Y64264D02*
D03*
D164*
X-130500Y-84100D02*
D03*
X-143000D02*
D03*
D165*
X3937Y6083D02*
D03*
X2362D02*
D03*
X787D02*
D03*
X-787D02*
D03*
X-2362D02*
D03*
X-3937D02*
D03*
Y-6083D02*
D03*
X-2362D02*
D03*
X-787D02*
D03*
X787D02*
D03*
X2362D02*
D03*
X3937D02*
D03*
D166*
X-6083Y3937D02*
D03*
Y2362D02*
D03*
Y787D02*
D03*
Y-787D02*
D03*
Y-2362D02*
D03*
Y-3937D02*
D03*
X6083D02*
D03*
Y-2362D02*
D03*
Y-787D02*
D03*
Y787D02*
D03*
Y2362D02*
D03*
Y3937D02*
D03*
D167*
X-45287Y113862D02*
D03*
Y109531D02*
D03*
Y105201D02*
D03*
Y100870D02*
D03*
Y96539D02*
D03*
Y92209D02*
D03*
Y87878D02*
D03*
Y83547D02*
D03*
D168*
X-42807Y130968D02*
D03*
D169*
X-43398Y74315D02*
D03*
X1799Y130575D02*
D03*
D170*
X-34933Y75910D02*
D03*
D171*
X500D02*
D03*
D172*
X4929Y113626D02*
D03*
Y82996D02*
D03*
D173*
X-3937Y25709D02*
D03*
X-1969D02*
D03*
X0D02*
D03*
X1969D02*
D03*
X3937D02*
D03*
Y14291D02*
D03*
X1969D02*
D03*
X0D02*
D03*
X-1969D02*
D03*
X-3937D02*
D03*
D174*
X5709Y21969D02*
D03*
Y20000D02*
D03*
Y18032D02*
D03*
X-5709D02*
D03*
Y20000D02*
D03*
Y21969D02*
D03*
D175*
X52461Y107677D02*
D03*
Y116732D02*
D03*
X45965D02*
D03*
Y107677D02*
D03*
D176*
X40354Y89764D02*
D03*
Y86614D02*
D03*
Y83465D02*
D03*
Y80315D02*
D03*
Y77165D02*
D03*
Y74016D02*
D03*
Y70866D02*
D03*
Y67716D02*
D03*
X73819D02*
D03*
Y70866D02*
D03*
Y74016D02*
D03*
Y77165D02*
D03*
Y80315D02*
D03*
Y83465D02*
D03*
Y86614D02*
D03*
Y89764D02*
D03*
D177*
X46063Y62008D02*
D03*
X49213D02*
D03*
X52362D02*
D03*
X55512D02*
D03*
X58661D02*
D03*
X61811D02*
D03*
X64961D02*
D03*
X68110D02*
D03*
Y95472D02*
D03*
X64961D02*
D03*
X61811D02*
D03*
X58661D02*
D03*
X55512D02*
D03*
X52362D02*
D03*
X49213D02*
D03*
X46063D02*
D03*
D178*
X-21654Y61024D02*
D03*
D179*
X-27402Y60039D02*
D03*
X-15905D02*
D03*
Y62008D02*
D03*
X-27402D02*
D03*
D180*
X-25591Y56260D02*
D03*
X-23622D02*
D03*
X-21654D02*
D03*
X-19685D02*
D03*
X-17717D02*
D03*
Y65787D02*
D03*
X-19685D02*
D03*
X-21654D02*
D03*
X-23622D02*
D03*
X-25591D02*
D03*
D181*
X-6943Y36846D02*
D03*
Y44246D02*
D03*
X-17143D02*
D03*
Y40546D02*
D03*
Y36846D02*
D03*
D182*
X-91308Y-113724D02*
D03*
Y-106244D02*
D03*
X-100708D02*
D03*
Y-109984D02*
D03*
Y-113724D02*
D03*
D183*
X-34528Y-83661D02*
D03*
X-24528D02*
D03*
Y-50197D02*
D03*
X-34528D02*
D03*
X-14842Y-83661D02*
D03*
X-4843D02*
D03*
Y-50197D02*
D03*
X-14842D02*
D03*
X4843Y-83661D02*
D03*
X14842D02*
D03*
Y-50197D02*
D03*
X4843D02*
D03*
X24528Y-83661D02*
D03*
X34528D02*
D03*
Y-50197D02*
D03*
X24528D02*
D03*
D184*
X-41161Y-154642D02*
D03*
X-35256D02*
D03*
X-29350D02*
D03*
X-23445D02*
D03*
X-17539D02*
D03*
X-11634D02*
D03*
X-5728D02*
D03*
X177D02*
D03*
X6083D02*
D03*
X11988D02*
D03*
X17894D02*
D03*
X23799D02*
D03*
X29705D02*
D03*
Y-103461D02*
D03*
X23799D02*
D03*
X17894D02*
D03*
X11988D02*
D03*
X6083D02*
D03*
X177D02*
D03*
X-5728D02*
D03*
X-11634D02*
D03*
X-17539D02*
D03*
X-23445D02*
D03*
X-29350D02*
D03*
X-35256D02*
D03*
X-41161D02*
D03*
D185*
X36595Y-149721D02*
D03*
Y-143815D02*
D03*
Y-137909D02*
D03*
Y-132004D02*
D03*
Y-126098D02*
D03*
Y-120193D02*
D03*
Y-114287D02*
D03*
Y-108382D02*
D03*
M02*
