G04*
G04 #@! TF.GenerationSoftware,Altium Limited,Altium Designer,19.1.5 (86)*
G04*
G04 Layer_Color=8421504*
%FSLAX25Y25*%
%MOIN*%
G70*
G01*
G75*
%ADD20R,0.03937X0.05906*%
%ADD21R,0.12008X0.25591*%
%ADD22R,0.01181X0.05807*%
%ADD23R,0.05807X0.01181*%
%ADD24R,0.01181X0.03347*%
G04:AMPARAMS|DCode=25|XSize=40.55mil|YSize=19.68mil|CornerRadius=0mil|HoleSize=0mil|Usage=FLASHONLY|Rotation=225.000|XOffset=0mil|YOffset=0mil|HoleType=Round|Shape=Rectangle|*
%AMROTATEDRECTD25*
4,1,4,0.00738,0.02130,0.02130,0.00738,-0.00738,-0.02130,-0.02130,-0.00738,0.00738,0.02130,0.0*
%
%ADD25ROTATEDRECTD25*%

G04:AMPARAMS|DCode=26|XSize=40.55mil|YSize=19.68mil|CornerRadius=0mil|HoleSize=0mil|Usage=FLASHONLY|Rotation=135.000|XOffset=0mil|YOffset=0mil|HoleType=Round|Shape=Rectangle|*
%AMROTATEDRECTD26*
4,1,4,0.02130,-0.00738,0.00738,-0.02130,-0.02130,0.00738,-0.00738,0.02130,0.02130,-0.00738,0.0*
%
%ADD26ROTATEDRECTD26*%

%ADD27R,0.03150X0.05118*%
%ADD28R,0.08268X0.11811*%
%ADD29R,0.05512X0.03543*%
%ADD30R,0.02756X0.02362*%
%ADD31R,0.03819X0.04095*%
%ADD32R,0.07874X0.07874*%
%ADD33O,0.01181X0.02559*%
%ADD34O,0.02559X0.01181*%
%ADD35R,0.04764X0.04173*%
%ADD36R,0.05900X0.07900*%
%ADD37R,0.03200X0.01600*%
%ADD38R,0.03937X0.03347*%
%ADD39R,0.04095X0.03819*%
%ADD40R,0.05354X0.02362*%
%ADD41R,0.04016X0.05787*%
%ADD42R,0.02756X0.06004*%
%ADD43R,0.05709X0.03937*%
%ADD44R,0.04921X0.07087*%
%ADD45R,0.06299X0.08622*%
%ADD46R,0.05787X0.04016*%
%ADD47R,0.03543X0.03740*%
%ADD48R,0.03740X0.03543*%
%ADD49R,0.05158X0.03661*%
%ADD50R,0.05158X0.12756*%
%ADD51R,0.08622X0.06299*%
%ADD52R,0.08268X0.11811*%
%ADD53R,0.03150X0.05118*%
%ADD54R,0.06299X0.13780*%
%ADD55R,0.05118X0.07480*%
%ADD56R,0.02362X0.01181*%
%ADD57R,0.01181X0.02362*%
%ADD58R,0.08661X0.08661*%
%ADD59R,0.02362X0.02362*%
%ADD60R,0.02559X0.04724*%
%ADD61R,0.05807X0.01772*%
%ADD62R,0.03937X0.05709*%
%ADD63R,0.04724X0.02362*%
D20*
X-107899Y100794D02*
D03*
Y120085D02*
D03*
X-95301Y100794D02*
D03*
Y120085D02*
D03*
D21*
X12205Y-90551D02*
D03*
X-12205D02*
D03*
D22*
X-42323Y75835D02*
D03*
X-40354D02*
D03*
X-38386D02*
D03*
X-36417D02*
D03*
X-34449Y75835D02*
D03*
X-32480Y75835D02*
D03*
X-30512D02*
D03*
X-28543D02*
D03*
X-26575D02*
D03*
X-24606D02*
D03*
X-22638D02*
D03*
X-20669Y75835D02*
D03*
X-18701Y75835D02*
D03*
X-16732D02*
D03*
X-14764D02*
D03*
X-12795D02*
D03*
Y121016D02*
D03*
X-14764D02*
D03*
X-16732D02*
D03*
X-18701D02*
D03*
X-20669Y121016D02*
D03*
X-22638Y121016D02*
D03*
X-24606D02*
D03*
X-26575D02*
D03*
X-28543D02*
D03*
X-30512D02*
D03*
X-32480D02*
D03*
X-34449Y121016D02*
D03*
X-36417Y121016D02*
D03*
X-38386D02*
D03*
X-40354D02*
D03*
X-42323D02*
D03*
D23*
X-4969Y83661D02*
D03*
Y85630D02*
D03*
Y87598D02*
D03*
Y89567D02*
D03*
X-4969Y91535D02*
D03*
X-4969Y93504D02*
D03*
Y95472D02*
D03*
Y97441D02*
D03*
Y99410D02*
D03*
Y101378D02*
D03*
Y103347D02*
D03*
X-4969Y105315D02*
D03*
X-4969Y107283D02*
D03*
Y109252D02*
D03*
Y111221D02*
D03*
Y113189D02*
D03*
X-50150D02*
D03*
Y111221D02*
D03*
Y109252D02*
D03*
Y107283D02*
D03*
X-50150Y105315D02*
D03*
X-50150Y103347D02*
D03*
Y101378D02*
D03*
Y99410D02*
D03*
Y97441D02*
D03*
Y95472D02*
D03*
Y93504D02*
D03*
X-50150Y91535D02*
D03*
X-50150Y89567D02*
D03*
Y87598D02*
D03*
Y85630D02*
D03*
Y83661D02*
D03*
D24*
X-42323Y40039D02*
D03*
X-44291D02*
D03*
X-46260D02*
D03*
X-48228D02*
D03*
X-50197D02*
D03*
X-52165D02*
D03*
X-54134D02*
D03*
X-56102D02*
D03*
X-58071D02*
D03*
X-60039D02*
D03*
X-62008D02*
D03*
X-63976D02*
D03*
Y46575D02*
D03*
X-62008D02*
D03*
X-60039D02*
D03*
X-58071D02*
D03*
X-56102D02*
D03*
X-54134D02*
D03*
X-52165D02*
D03*
X-50197D02*
D03*
X-48228D02*
D03*
X-46260D02*
D03*
X-44291D02*
D03*
X-42323D02*
D03*
D25*
X-38386Y39370D02*
D03*
X-67913Y47244D02*
D03*
D26*
X-38386D02*
D03*
X-67913Y39370D02*
D03*
D27*
X62063Y125957D02*
D03*
X66984D02*
D03*
X71905D02*
D03*
X76827D02*
D03*
X81748D02*
D03*
D28*
X91787Y114933D02*
D03*
X52024D02*
D03*
D29*
X-78740Y116339D02*
D03*
Y123819D02*
D03*
X23622Y-163583D02*
D03*
Y-171063D02*
D03*
X145669Y-78937D02*
D03*
Y-86417D02*
D03*
X-145669Y-78937D02*
D03*
Y-86417D02*
D03*
X-76772Y-119882D02*
D03*
Y-112402D02*
D03*
X-53150Y-119882D02*
D03*
Y-112402D02*
D03*
X70866Y-134055D02*
D03*
Y-141535D02*
D03*
X-23622Y-171063D02*
D03*
Y-163583D02*
D03*
X-7874Y-163583D02*
D03*
Y-171063D02*
D03*
X7874Y-163583D02*
D03*
Y-171063D02*
D03*
D30*
X-82677Y62992D02*
D03*
X-74803Y66732D02*
D03*
Y59252D02*
D03*
D31*
X-64961Y122992D02*
D03*
Y117165D02*
D03*
X23622Y113228D02*
D03*
Y119055D02*
D03*
X9843Y81653D02*
D03*
Y75827D02*
D03*
X3937D02*
D03*
Y81653D02*
D03*
D32*
X35433Y116142D02*
D03*
X6890Y-118110D02*
D03*
X-8858D02*
D03*
D33*
X32480Y122244D02*
D03*
X34449D02*
D03*
X36417D02*
D03*
X38386D02*
D03*
Y110039D02*
D03*
X36417D02*
D03*
X34449D02*
D03*
X32480D02*
D03*
D34*
X41535Y119095D02*
D03*
Y117126D02*
D03*
Y115157D02*
D03*
Y113189D02*
D03*
X29331D02*
D03*
Y115157D02*
D03*
Y117126D02*
D03*
Y119095D02*
D03*
D35*
X5315Y117421D02*
D03*
X14370D02*
D03*
Y110925D02*
D03*
X5315D02*
D03*
D36*
X57187Y86714D02*
D03*
D37*
X51587Y82914D02*
D03*
Y86614D02*
D03*
Y90314D02*
D03*
X62587D02*
D03*
Y86614D02*
D03*
Y82914D02*
D03*
D38*
X37402Y83465D02*
D03*
Y89764D02*
D03*
X23622D02*
D03*
Y83465D02*
D03*
D39*
X-32441Y35433D02*
D03*
X-26614D02*
D03*
X4961Y104724D02*
D03*
X10787D02*
D03*
X-52205Y122047D02*
D03*
X-58031D02*
D03*
X-12835Y62992D02*
D03*
X-18661D02*
D03*
Y35433D02*
D03*
X-12835D02*
D03*
X4882D02*
D03*
X-945D02*
D03*
X32441Y41339D02*
D03*
X26614D02*
D03*
D40*
X-48524Y66732D02*
D03*
Y62992D02*
D03*
Y59252D02*
D03*
X-57776D02*
D03*
Y62992D02*
D03*
Y66732D02*
D03*
D41*
X89803Y-59055D02*
D03*
X83425D02*
D03*
X-83425D02*
D03*
X-89803D02*
D03*
X-60276Y74803D02*
D03*
X-53898D02*
D03*
X53898Y100394D02*
D03*
X60276D02*
D03*
X-26811Y-116142D02*
D03*
X-20433D02*
D03*
D42*
X-79114Y-72000D02*
D03*
X-89114D02*
D03*
X-94114D02*
D03*
X-84114D02*
D03*
X-79114Y-93354D02*
D03*
X-89114D02*
D03*
X-94114D02*
D03*
X-84114D02*
D03*
X-70492Y-93354D02*
D03*
X-65492D02*
D03*
X-60492D02*
D03*
X-55492D02*
D03*
Y-72000D02*
D03*
X-60492D02*
D03*
X-65492D02*
D03*
X-70492D02*
D03*
X-31870D02*
D03*
X-36870D02*
D03*
X-41870D02*
D03*
X-46870D02*
D03*
Y-93354D02*
D03*
X-41870D02*
D03*
X-36870D02*
D03*
X-31870D02*
D03*
X55492D02*
D03*
X60492D02*
D03*
X65492D02*
D03*
X70492D02*
D03*
Y-72000D02*
D03*
X65492D02*
D03*
X60492D02*
D03*
X55492D02*
D03*
X46870Y-72000D02*
D03*
X41870D02*
D03*
X36870D02*
D03*
X31870D02*
D03*
Y-93354D02*
D03*
X36870D02*
D03*
X41870D02*
D03*
X46870D02*
D03*
X79114Y-72000D02*
D03*
X84114D02*
D03*
X89114D02*
D03*
X94114D02*
D03*
Y-93354D02*
D03*
X89114D02*
D03*
X84114D02*
D03*
X79114D02*
D03*
X-72461Y-150441D02*
D03*
X-67461D02*
D03*
X-62461D02*
D03*
X-57460D02*
D03*
Y-129087D02*
D03*
X-62461D02*
D03*
X-67461D02*
D03*
X-72461D02*
D03*
D43*
X78740Y-114173D02*
D03*
Y-106693D02*
D03*
X66929Y-114173D02*
D03*
Y-106693D02*
D03*
X86614Y-141535D02*
D03*
Y-134055D02*
D03*
X-33465Y-108071D02*
D03*
Y-100591D02*
D03*
X-45276Y-108071D02*
D03*
Y-100591D02*
D03*
X137795Y-86417D02*
D03*
Y-78937D02*
D03*
X129921Y-86417D02*
D03*
Y-78937D02*
D03*
X-129921Y-86417D02*
D03*
Y-78937D02*
D03*
X-68898Y-112402D02*
D03*
Y-119882D02*
D03*
X-61024Y-119882D02*
D03*
Y-112401D02*
D03*
X-82677Y-139961D02*
D03*
Y-147441D02*
D03*
X-21654Y-135630D02*
D03*
Y-128150D02*
D03*
X23622Y-151378D02*
D03*
Y-143898D02*
D03*
X7874D02*
D03*
Y-151378D02*
D03*
X0D02*
D03*
Y-143898D02*
D03*
X78740Y-141535D02*
D03*
Y-134055D02*
D03*
X-84646Y-119882D02*
D03*
Y-112402D02*
D03*
X0Y-171063D02*
D03*
Y-163583D02*
D03*
X15748Y-171063D02*
D03*
Y-163583D02*
D03*
X-15748Y-163583D02*
D03*
Y-171063D02*
D03*
X-137795Y-78937D02*
D03*
Y-86417D02*
D03*
D44*
X47244Y-146850D02*
D03*
Y-136614D02*
D03*
X35433Y-146850D02*
D03*
Y-136614D02*
D03*
D45*
X77342Y72480D02*
D03*
Y103080D02*
D03*
D46*
X30512Y89803D02*
D03*
Y83425D02*
D03*
X44291Y89803D02*
D03*
Y83425D02*
D03*
X-47244Y-126732D02*
D03*
Y-133110D02*
D03*
Y-152795D02*
D03*
Y-146417D02*
D03*
X15748Y-145000D02*
D03*
Y-151378D02*
D03*
X9843Y-137047D02*
D03*
Y-130669D02*
D03*
X62992Y-140433D02*
D03*
Y-134055D02*
D03*
D47*
X46260Y100394D02*
D03*
X40354D02*
D03*
X-40354Y60039D02*
D03*
X-34449D02*
D03*
X-40354Y65945D02*
D03*
X-34449D02*
D03*
X-984Y64961D02*
D03*
X4921D02*
D03*
X18701Y35433D02*
D03*
X12795D02*
D03*
X18701Y64961D02*
D03*
X12795D02*
D03*
X26575D02*
D03*
X32480D02*
D03*
Y59055D02*
D03*
X26575D02*
D03*
Y53150D02*
D03*
X32480D02*
D03*
X26575Y35433D02*
D03*
X32480D02*
D03*
D48*
X17717Y89567D02*
D03*
Y83661D02*
D03*
X-70866Y117126D02*
D03*
Y123031D02*
D03*
D49*
X26201Y-105157D02*
D03*
Y-114173D02*
D03*
Y-123189D02*
D03*
D50*
X52539Y-114173D02*
D03*
D51*
X-125535Y-110236D02*
D03*
X-94936D02*
D03*
X94937D02*
D03*
X125537D02*
D03*
D52*
X24902Y-48819D02*
D03*
X69587D02*
D03*
X-69587D02*
D03*
X-24902D02*
D03*
D53*
X34941Y-59646D02*
D03*
X39862D02*
D03*
X44783D02*
D03*
X49705D02*
D03*
X54626D02*
D03*
X59547D02*
D03*
X-59547D02*
D03*
X-54626D02*
D03*
X-49705D02*
D03*
X-44783D02*
D03*
X-39862D02*
D03*
X-34941D02*
D03*
D54*
X0Y-44488D02*
D03*
Y-65748D02*
D03*
D55*
X-4921Y42913D02*
D03*
X-26575D02*
D03*
Y55512D02*
D03*
X-4921D02*
D03*
D56*
X5709Y42323D02*
D03*
Y44291D02*
D03*
Y46260D02*
D03*
Y48228D02*
D03*
Y50197D02*
D03*
Y52165D02*
D03*
Y54134D02*
D03*
Y56102D02*
D03*
Y58071D02*
D03*
X17913D02*
D03*
Y56102D02*
D03*
Y54134D02*
D03*
Y52165D02*
D03*
Y50197D02*
D03*
Y48228D02*
D03*
Y46260D02*
D03*
Y44291D02*
D03*
Y42323D02*
D03*
Y40354D02*
D03*
X5709D02*
D03*
D57*
X8858Y58071D02*
D03*
X10827D02*
D03*
X12795D02*
D03*
X14764D02*
D03*
Y40354D02*
D03*
X12795D02*
D03*
X10827D02*
D03*
X8858D02*
D03*
D58*
X74405Y37008D02*
D03*
Y61417D02*
D03*
X49995D02*
D03*
Y37008D02*
D03*
D59*
X25197Y47244D02*
D03*
X33858D02*
D03*
D60*
X-37402Y-125000D02*
D03*
X-33661D02*
D03*
X-29921D02*
D03*
Y-134843D02*
D03*
X-33661D02*
D03*
X-37402D02*
D03*
D61*
X-39126Y-151476D02*
D03*
Y-148917D02*
D03*
Y-146358D02*
D03*
Y-143799D02*
D03*
X-15992D02*
D03*
Y-146358D02*
D03*
Y-148917D02*
D03*
Y-151476D02*
D03*
D62*
X-33661Y-116142D02*
D03*
X-41142D02*
D03*
D63*
X984Y-130118D02*
D03*
Y-133858D02*
D03*
Y-137599D02*
D03*
X-8858D02*
D03*
Y-133858D02*
D03*
Y-130118D02*
D03*
M02*
