G04*
G04 #@! TF.GenerationSoftware,Altium Limited,Altium Designer,20.0.13 (296)*
G04*
G04 Layer_Physical_Order=2*
G04 Layer_Color=16711680*
%FSLAX25Y25*%
%MOIN*%
G70*
G01*
G75*
%ADD13C,0.00600*%
%ADD15C,0.01000*%
%ADD17C,0.00500*%
%ADD18C,0.00800*%
%ADD29R,0.05512X0.03543*%
%ADD31R,0.03819X0.04095*%
%ADD38R,0.03937X0.03347*%
%ADD39R,0.04095X0.03819*%
%ADD43R,0.05709X0.03937*%
%ADD44R,0.04921X0.07087*%
%ADD45R,0.06299X0.08622*%
%ADD46R,0.05787X0.04016*%
%ADD47R,0.03543X0.03740*%
%ADD48R,0.03740X0.03543*%
%ADD62R,0.03937X0.05709*%
%ADD122C,0.02000*%
%ADD124C,0.05000*%
%ADD125C,0.04331*%
%ADD126C,0.02598*%
%ADD127C,0.02284*%
%ADD128C,0.05543*%
%ADD129R,0.05543X0.05543*%
%ADD130R,0.05543X0.05543*%
%ADD131P,0.07839X4X360.0*%
%ADD132P,0.07839X4X90.0*%
%ADD133R,0.06496X0.06496*%
%ADD134C,0.06496*%
%ADD135C,0.15748*%
%ADD136C,0.01890*%
%ADD137C,0.02362*%
%ADD138C,0.03000*%
%ADD139C,0.06000*%
%ADD140C,0.02756*%
%ADD141C,0.10000*%
%ADD142R,0.00866X0.02520*%
%ADD143R,0.02520X0.00866*%
%ADD144R,0.04882X0.03150*%
%ADD145R,0.09843X0.03740*%
%ADD146R,0.08661X0.04528*%
%ADD147R,0.04921X0.04567*%
%ADD148R,0.04724X0.04567*%
%ADD149R,0.04528X0.05906*%
%ADD150R,0.01181X0.03937*%
%ADD151R,0.03937X0.01181*%
%ADD152R,0.04173X0.04764*%
%ADD153R,0.04331X0.01772*%
%ADD154R,0.01772X0.04331*%
%ADD155R,0.06496X0.04528*%
%ADD156R,0.03071X0.01063*%
%ADD157R,0.01063X0.03071*%
%ADD158R,0.05000X0.02200*%
%ADD159R,0.05200X0.02200*%
%ADD160O,0.06299X0.08858*%
%ADD161R,0.03937X0.05906*%
%ADD162R,0.05906X0.03937*%
%ADD163C,0.01500*%
G36*
X11843Y176813D02*
X19713Y176110D01*
X27543Y175056D01*
X35318Y173654D01*
X43023Y171907D01*
X50643Y169819D01*
X58162Y167393D01*
X65565Y164634D01*
X72838Y161548D01*
X79966Y158141D01*
X86936Y154419D01*
X93732Y150391D01*
X100343Y146063D01*
X106753Y141446D01*
X112952Y136547D01*
X118926Y131377D01*
X124663Y125945D01*
X130153Y120263D01*
X135385Y114342D01*
X140347Y108194D01*
X145030Y101831D01*
X149424Y95266D01*
X153522Y88511D01*
X157315Y81580D01*
X160795Y74487D01*
X162192Y71285D01*
X161918Y70866D01*
X141732D01*
Y-70866D01*
X161918Y-70866D01*
X162192Y-71285D01*
X160795Y-74487D01*
X157315Y-81580D01*
X153522Y-88511D01*
X149424Y-95266D01*
X145030Y-101831D01*
X140347Y-108194D01*
X135385Y-114342D01*
X130153Y-120263D01*
X124663Y-125945D01*
X118926Y-131377D01*
X112952Y-136547D01*
X106753Y-141446D01*
X100343Y-146063D01*
X93732Y-150391D01*
X86936Y-154419D01*
X79966Y-158141D01*
X72838Y-161548D01*
X65565Y-164634D01*
X58162Y-167393D01*
X50643Y-169819D01*
X43023Y-171907D01*
X35318Y-173654D01*
X27543Y-175056D01*
X19713Y-176110D01*
X11843Y-176813D01*
X3950Y-177165D01*
X-3950Y-177165D01*
X-11843Y-176813D01*
X-19713Y-176110D01*
X-27543Y-175056D01*
X-35318Y-173654D01*
X-43023Y-171907D01*
X-50643Y-169819D01*
X-58162Y-167393D01*
X-65565Y-164634D01*
X-72838Y-161548D01*
X-79966Y-158141D01*
X-86936Y-154419D01*
X-93732Y-150391D01*
X-100343Y-146063D01*
X-106753Y-141446D01*
X-112952Y-136547D01*
X-118926Y-131377D01*
X-124663Y-125945D01*
X-130153Y-120263D01*
X-135385Y-114342D01*
X-140347Y-108194D01*
X-145030Y-101831D01*
X-149424Y-95266D01*
X-153522Y-88511D01*
X-157315Y-81580D01*
X-160795Y-74487D01*
X-162192Y-71285D01*
X-161918Y-70866D01*
X-141732D01*
Y70866D01*
X-161918D01*
X-162192Y71285D01*
X-160795Y74487D01*
X-157315Y81580D01*
X-153522Y88511D01*
X-149424Y95266D01*
X-145030Y101831D01*
X-140347Y108194D01*
X-135385Y114342D01*
X-130153Y120263D01*
X-124663Y125945D01*
X-118926Y131377D01*
X-112952Y136547D01*
X-106753Y141446D01*
X-100343Y146063D01*
X-93732Y150391D01*
X-86936Y154419D01*
X-79966Y158141D01*
X-72838Y161548D01*
X-65565Y164634D01*
X-58162Y167393D01*
X-50643Y169819D01*
X-43023Y171907D01*
X-35318Y173654D01*
X-27543Y175056D01*
X-19713Y176110D01*
X-11843Y176813D01*
X-3950Y177165D01*
X3950D01*
X11843Y176813D01*
D02*
G37*
%LPC*%
G36*
X-38870Y163187D02*
Y159949D01*
X-35632D01*
X-35695Y160433D01*
X-36075Y161351D01*
X-36680Y162139D01*
X-37468Y162743D01*
X-38385Y163123D01*
X-38870Y163187D01*
D02*
G37*
G36*
X-39870Y163187D02*
X-40355Y163123D01*
X-41272Y162743D01*
X-42060Y162139D01*
X-42665Y161351D01*
X-43045Y160433D01*
X-43108Y159949D01*
X-39870D01*
Y163187D01*
D02*
G37*
G36*
X42842Y162920D02*
X35898D01*
Y155977D01*
X42842D01*
Y162920D01*
D02*
G37*
G36*
X-39870Y158949D02*
X-43108D01*
X-43045Y158464D01*
X-42665Y157547D01*
X-42060Y156759D01*
X-41272Y156154D01*
X-40355Y155774D01*
X-39870Y155710D01*
Y158949D01*
D02*
G37*
G36*
X-35632D02*
X-38870D01*
Y155710D01*
X-38385Y155774D01*
X-37468Y156154D01*
X-36680Y156759D01*
X-36075Y157547D01*
X-35695Y158464D01*
X-35632Y158949D01*
D02*
G37*
G36*
X10343Y153345D02*
Y150106D01*
X13581D01*
X13517Y150591D01*
X13137Y151508D01*
X12532Y152296D01*
X11745Y152901D01*
X10827Y153281D01*
X10343Y153345D01*
D02*
G37*
G36*
X9342D02*
X8858Y153281D01*
X7940Y152901D01*
X7153Y152296D01*
X6548Y151508D01*
X6168Y150591D01*
X6104Y150106D01*
X9342D01*
Y153345D01*
D02*
G37*
G36*
X-6371Y153078D02*
X-13314D01*
Y146135D01*
X-6371D01*
Y153078D01*
D02*
G37*
G36*
X13581Y149106D02*
X10343D01*
Y145868D01*
X10827Y145932D01*
X11745Y146312D01*
X12532Y146916D01*
X13137Y147704D01*
X13517Y148622D01*
X13581Y149106D01*
D02*
G37*
G36*
X9342D02*
X6104D01*
X6168Y148622D01*
X6548Y147704D01*
X7153Y146916D01*
X7940Y146312D01*
X8858Y145932D01*
X9342Y145868D01*
Y149106D01*
D02*
G37*
G36*
X39870Y143502D02*
Y140264D01*
X43108D01*
X43045Y140748D01*
X42665Y141666D01*
X42060Y142454D01*
X41272Y143058D01*
X40355Y143438D01*
X39870Y143502D01*
D02*
G37*
G36*
X38870Y143502D02*
X38385Y143438D01*
X37468Y143058D01*
X36680Y142454D01*
X36075Y141666D01*
X35695Y140748D01*
X35632Y140264D01*
X38870D01*
Y143502D01*
D02*
G37*
G36*
X59055Y154285D02*
X57374Y154119D01*
X55758Y153629D01*
X54269Y152833D01*
X52963Y151761D01*
X51892Y150456D01*
X51095Y148966D01*
X50605Y147350D01*
X50440Y145669D01*
X50605Y143989D01*
X51095Y142372D01*
X51892Y140883D01*
X52963Y139577D01*
X54269Y138506D01*
X55758Y137710D01*
X57374Y137219D01*
X59055Y137054D01*
X60736Y137219D01*
X62352Y137710D01*
X63842Y138506D01*
X65147Y139577D01*
X66219Y140883D01*
X67015Y142372D01*
X67505Y143989D01*
X67671Y145669D01*
X67505Y147350D01*
X67015Y148966D01*
X66219Y150456D01*
X65147Y151761D01*
X63842Y152833D01*
X62352Y153629D01*
X60736Y154119D01*
X59055Y154285D01*
D02*
G37*
G36*
X-59055D02*
X-60736Y154119D01*
X-62352Y153629D01*
X-63842Y152833D01*
X-65147Y151761D01*
X-66219Y150456D01*
X-67015Y148966D01*
X-67505Y147350D01*
X-67671Y145669D01*
X-67505Y143989D01*
X-67015Y142372D01*
X-66219Y140883D01*
X-65147Y139577D01*
X-63842Y138506D01*
X-62352Y137710D01*
X-60736Y137219D01*
X-59055Y137054D01*
X-57374Y137219D01*
X-55758Y137710D01*
X-54269Y138506D01*
X-52963Y139577D01*
X-51892Y140883D01*
X-51095Y142372D01*
X-50605Y143989D01*
X-50440Y145669D01*
X-50605Y147350D01*
X-51095Y148966D01*
X-51892Y150456D01*
X-52963Y151761D01*
X-54269Y152833D01*
X-55758Y153629D01*
X-57374Y154119D01*
X-59055Y154285D01*
D02*
G37*
G36*
X-35898Y143235D02*
X-42842D01*
Y136292D01*
X-35898D01*
Y143235D01*
D02*
G37*
G36*
X43108Y139264D02*
X39870D01*
Y136025D01*
X40355Y136089D01*
X41272Y136469D01*
X42060Y137074D01*
X42665Y137862D01*
X43045Y138779D01*
X43108Y139264D01*
D02*
G37*
G36*
X38870D02*
X35632D01*
X35695Y138779D01*
X36075Y137862D01*
X36680Y137074D01*
X37468Y136469D01*
X38385Y136089D01*
X38870Y136025D01*
Y139264D01*
D02*
G37*
G36*
X52157Y133068D02*
X51424Y132922D01*
X50801Y132506D01*
X50385Y131884D01*
X50347Y131691D01*
X48406D01*
X48406Y131691D01*
X48023Y131532D01*
X46417Y129927D01*
X46254Y130036D01*
X45520Y130182D01*
X44786Y130036D01*
X44164Y129620D01*
X43769Y129029D01*
X43622Y129011D01*
X43337Y129042D01*
X43250Y129058D01*
X42772Y129772D01*
X42051Y130254D01*
X41700Y130324D01*
Y128200D01*
Y126076D01*
X42051Y126146D01*
X42772Y126628D01*
X43255Y127349D01*
X43268Y127416D01*
X43544Y127482D01*
X43788Y127469D01*
X44164Y126908D01*
X44786Y126492D01*
X45520Y126346D01*
X46254Y126492D01*
X46876Y126908D01*
X47292Y127530D01*
X47438Y128264D01*
X47292Y128998D01*
X47182Y129161D01*
X48630Y130608D01*
X50347D01*
X50385Y130416D01*
X50801Y129793D01*
X51424Y129378D01*
X52157Y129232D01*
X52891Y129378D01*
X53514Y129793D01*
X53929Y130416D01*
X54075Y131150D01*
X53929Y131884D01*
X53514Y132506D01*
X52891Y132922D01*
X52157Y133068D01*
D02*
G37*
G36*
X-36886Y133839D02*
X-42307D01*
Y131468D01*
X-36886D01*
Y133839D01*
D02*
G37*
G36*
X-43307D02*
X-48728D01*
Y131468D01*
X-43307D01*
Y133839D01*
D02*
G37*
G36*
X7130D02*
X2299D01*
Y131075D01*
X7130D01*
Y133839D01*
D02*
G37*
G36*
X1299D02*
X-3531D01*
Y131075D01*
X1299D01*
Y133839D01*
D02*
G37*
G36*
X-52559Y132105D02*
Y130480D01*
X-50935D01*
X-51004Y130831D01*
X-51487Y131553D01*
X-52208Y132035D01*
X-52559Y132105D01*
D02*
G37*
G36*
X-53559D02*
X-53910Y132035D01*
X-54632Y131553D01*
X-55114Y130831D01*
X-55183Y130480D01*
X-53559D01*
Y132105D01*
D02*
G37*
G36*
X30550Y133068D02*
X29816Y132922D01*
X29194Y132506D01*
X28778Y131884D01*
X28740Y131691D01*
X14200D01*
X13817Y131533D01*
X13817Y131533D01*
X11947Y129663D01*
X11784Y129772D01*
X11050Y129918D01*
X10316Y129772D01*
X9694Y129356D01*
X9278Y128734D01*
X9132Y128000D01*
X9278Y127266D01*
X9694Y126644D01*
X10316Y126228D01*
X11050Y126082D01*
X11784Y126228D01*
X12406Y126644D01*
X12822Y127266D01*
X12968Y128000D01*
X12822Y128734D01*
X12713Y128897D01*
X14424Y130609D01*
X17629D01*
X17781Y130109D01*
X17427Y129873D01*
X16945Y129151D01*
X16876Y128800D01*
X21124D01*
X21055Y129151D01*
X20572Y129873D01*
X20219Y130109D01*
X20370Y130609D01*
X28740D01*
X28778Y130416D01*
X29194Y129794D01*
X29816Y129378D01*
X30550Y129232D01*
X31284Y129378D01*
X31906Y129794D01*
X32322Y130416D01*
X32468Y131150D01*
X32322Y131884D01*
X31906Y132506D01*
X31284Y132922D01*
X30550Y133068D01*
D02*
G37*
G36*
X40700Y130324D02*
X40349Y130254D01*
X39628Y129772D01*
X39145Y129051D01*
X39076Y128700D01*
X40700D01*
Y130324D01*
D02*
G37*
G36*
X-36886Y130468D02*
X-42307D01*
Y128098D01*
X-36886D01*
Y130468D01*
D02*
G37*
G36*
X-43307D02*
X-48728D01*
Y128098D01*
X-43307D01*
Y130468D01*
D02*
G37*
G36*
X7130Y130075D02*
X2299D01*
Y127311D01*
X7130D01*
Y130075D01*
D02*
G37*
G36*
X1299D02*
X-3531D01*
Y127311D01*
X1299D01*
Y130075D01*
D02*
G37*
G36*
X21124Y127800D02*
X19500D01*
Y126176D01*
X19851Y126245D01*
X20572Y126727D01*
X21055Y127449D01*
X21124Y127800D01*
D02*
G37*
G36*
X18500D02*
X16876D01*
X16945Y127449D01*
X17427Y126727D01*
X18149Y126245D01*
X18500Y126176D01*
Y127800D01*
D02*
G37*
G36*
X40700Y127700D02*
X39076D01*
X39145Y127349D01*
X39628Y126628D01*
X40349Y126146D01*
X40700Y126076D01*
Y127700D01*
D02*
G37*
G36*
X16500Y125774D02*
Y124150D01*
X18124D01*
X18055Y124501D01*
X17572Y125223D01*
X16851Y125705D01*
X16500Y125774D01*
D02*
G37*
G36*
X15500D02*
X15149Y125705D01*
X14427Y125223D01*
X13945Y124501D01*
X13876Y124150D01*
X15500D01*
Y125774D01*
D02*
G37*
G36*
X27300Y129768D02*
X26566Y129622D01*
X25944Y129206D01*
X25528Y128584D01*
X25382Y127850D01*
X25528Y127116D01*
X25944Y126494D01*
X26566Y126078D01*
X27300Y125932D01*
X28034Y126078D01*
X28197Y126187D01*
X30367Y124017D01*
X30367Y124017D01*
X30750Y123859D01*
X30750Y123859D01*
X54490D01*
X54528Y123666D01*
X54944Y123044D01*
X55566Y122628D01*
X56300Y122482D01*
X57034Y122628D01*
X57656Y123044D01*
X58072Y123666D01*
X58218Y124400D01*
X58072Y125134D01*
X57656Y125756D01*
X57034Y126172D01*
X56300Y126318D01*
X55566Y126172D01*
X54944Y125756D01*
X54528Y125134D01*
X54490Y124941D01*
X30974D01*
X28963Y126953D01*
X29072Y127116D01*
X29218Y127850D01*
X29072Y128584D01*
X28656Y129206D01*
X28034Y129622D01*
X27300Y129768D01*
D02*
G37*
G36*
X18124Y123150D02*
X16500D01*
Y121526D01*
X16851Y121596D01*
X17572Y122078D01*
X18055Y122799D01*
X18124Y123150D01*
D02*
G37*
G36*
X15500D02*
X13876D01*
X13945Y122799D01*
X14427Y122078D01*
X15149Y121596D01*
X15500Y121526D01*
Y123150D01*
D02*
G37*
G36*
X-2800Y119546D02*
Y117921D01*
X-1176D01*
X-1245Y118272D01*
X-1727Y118994D01*
X-2449Y119476D01*
X-2800Y119546D01*
D02*
G37*
G36*
X49051Y120114D02*
X46465D01*
Y117232D01*
X49051D01*
Y120114D01*
D02*
G37*
G36*
X45465D02*
X42878D01*
Y117232D01*
X45465D01*
Y120114D01*
D02*
G37*
G36*
X-1176Y116921D02*
X-2800D01*
Y115297D01*
X-2449Y115367D01*
X-1727Y115849D01*
X-1245Y116570D01*
X-1176Y116921D01*
D02*
G37*
G36*
X8193Y117579D02*
X5429D01*
Y114126D01*
X8193D01*
Y117579D01*
D02*
G37*
G36*
X4429D02*
X1665D01*
Y114126D01*
X4429D01*
Y117579D01*
D02*
G37*
G36*
X73776Y116197D02*
X71366D01*
Y113650D01*
X73776D01*
Y116197D01*
D02*
G37*
G36*
X42279D02*
X39870D01*
Y113650D01*
X42279D01*
Y116197D01*
D02*
G37*
G36*
X49051Y116232D02*
X46465D01*
Y113350D01*
X49051D01*
Y116232D01*
D02*
G37*
G36*
X45465D02*
X42878D01*
Y113350D01*
X45465D01*
Y116232D01*
D02*
G37*
G36*
X8193Y113126D02*
X5429D01*
Y109673D01*
X8193D01*
Y113126D01*
D02*
G37*
G36*
X4429D02*
X1665D01*
Y109673D01*
X4429D01*
Y113126D01*
D02*
G37*
G36*
X55547Y111059D02*
X52961D01*
Y108177D01*
X55547D01*
Y111059D01*
D02*
G37*
G36*
X51961D02*
X49374D01*
Y108177D01*
X51961D01*
Y111059D01*
D02*
G37*
G36*
Y107177D02*
X49374D01*
Y104295D01*
X51961D01*
Y107177D01*
D02*
G37*
G36*
X21154Y106823D02*
X18744D01*
Y104276D01*
X21154D01*
Y106823D01*
D02*
G37*
G36*
X-25819Y140615D02*
X-26553Y140469D01*
X-27175Y140053D01*
X-27591Y139431D01*
X-27737Y138697D01*
X-27591Y137963D01*
X-27175Y137341D01*
X-26553Y136925D01*
X-25819Y136779D01*
X-25518Y136329D01*
X-25579Y136020D01*
X-25433Y135286D01*
X-25018Y134663D01*
X-24395Y134248D01*
X-23661Y134102D01*
X-22927Y134248D01*
X-22305Y134663D01*
X-21890Y135286D01*
X-21825Y135609D01*
X-21329D01*
X-21192Y135331D01*
X-21138Y135109D01*
X-21522Y134534D01*
X-21668Y133800D01*
X-21522Y133066D01*
X-21792Y132570D01*
X-22002Y132528D01*
X-22624Y132112D01*
X-23040Y131490D01*
X-23186Y130756D01*
X-23040Y130022D01*
X-22624Y129400D01*
X-22002Y128984D01*
X-21268Y128838D01*
X-20534Y128984D01*
X-19911Y129400D01*
X-19496Y130022D01*
X-19444Y130215D01*
X-19061Y130373D01*
X-16376Y133059D01*
X-13605D01*
X-13453Y132559D01*
X-13906Y132256D01*
X-14322Y131634D01*
X-14468Y130900D01*
X-14322Y130166D01*
X-13906Y129544D01*
X-13284Y129128D01*
X-12550Y128982D01*
X-11816Y129128D01*
X-11799Y129139D01*
X-11278Y128619D01*
Y100465D01*
X-11224Y100191D01*
X-11069Y99960D01*
X-10485Y99376D01*
X-10676Y98914D01*
X-18554D01*
X-19934Y100293D01*
X-19877Y100888D01*
X-19494Y101144D01*
X-19078Y101766D01*
X-18932Y102500D01*
X-19078Y103234D01*
X-19494Y103856D01*
X-20116Y104272D01*
X-20136Y104276D01*
Y105204D01*
X-16201Y109140D01*
X-16184Y109128D01*
X-15450Y108982D01*
X-14716Y109128D01*
X-14094Y109544D01*
X-13949Y109760D01*
X-13449Y109608D01*
Y109005D01*
X-16445Y106009D01*
X-16636Y105550D01*
Y103383D01*
X-16720Y103366D01*
X-17342Y102951D01*
X-17758Y102329D01*
X-17904Y101594D01*
X-17758Y100861D01*
X-17342Y100238D01*
X-16720Y99822D01*
X-15986Y99677D01*
X-15252Y99822D01*
X-14630Y100238D01*
X-14214Y100861D01*
X-14068Y101594D01*
X-14214Y102329D01*
X-14630Y102951D01*
X-15252Y103366D01*
X-15337Y103383D01*
Y105281D01*
X-12341Y108277D01*
X-12151Y108736D01*
Y115611D01*
X-12341Y116070D01*
X-23638Y127368D01*
X-24098Y127558D01*
X-51858D01*
X-52010Y128058D01*
X-51487Y128408D01*
X-51004Y129129D01*
X-50935Y129480D01*
X-55183D01*
X-55114Y129129D01*
X-54632Y128408D01*
X-54108Y128058D01*
X-54260Y127558D01*
X-87040D01*
X-87499Y127368D01*
X-95499Y119368D01*
X-95690Y118909D01*
Y114826D01*
X-96190Y114675D01*
X-96364Y114936D01*
X-96908Y115299D01*
X-97550Y115427D01*
X-98192Y115299D01*
X-98736Y114936D01*
X-99099Y114392D01*
X-99227Y113750D01*
X-99099Y113108D01*
X-98736Y112564D01*
X-98199Y112206D01*
Y88550D01*
X-98009Y88091D01*
X-96201Y86282D01*
Y82883D01*
X-96285Y82866D01*
X-96907Y82451D01*
X-97323Y81828D01*
X-97469Y81094D01*
X-97323Y80361D01*
X-96907Y79738D01*
X-96285Y79322D01*
X-96201Y79306D01*
Y79027D01*
X-96010Y78568D01*
X-95311Y77869D01*
Y-54172D01*
X-98419Y-57280D01*
X-121961D01*
X-122420Y-57470D01*
X-127424Y-62474D01*
X-127614Y-62933D01*
Y-69223D01*
X-128748Y-70357D01*
X-128998Y-70333D01*
X-129620Y-69917D01*
X-130354Y-69771D01*
X-131088Y-69917D01*
X-131711Y-70333D01*
X-132126Y-70955D01*
X-132272Y-71689D01*
X-132126Y-72423D01*
X-131748Y-72988D01*
X-131814Y-73238D01*
X-131947Y-73488D01*
X-135499D01*
X-135515Y-73404D01*
X-135931Y-72782D01*
X-136553Y-72366D01*
X-137287Y-72220D01*
X-138021Y-72366D01*
X-138644Y-72782D01*
X-139059Y-73404D01*
X-139205Y-74138D01*
X-139059Y-74872D01*
X-138644Y-75494D01*
X-138021Y-75910D01*
X-137287Y-76056D01*
X-136553Y-75910D01*
X-135931Y-75494D01*
X-135515Y-74872D01*
X-135499Y-74787D01*
X-129122D01*
X-128663Y-74597D01*
X-125029Y-70963D01*
X-124839Y-70504D01*
Y-63852D01*
X-124453Y-63466D01*
X-124210Y-63553D01*
X-123991Y-63711D01*
Y-92058D01*
X-124488Y-92118D01*
X-124760Y-91461D01*
X-125192Y-90897D01*
X-127009Y-89080D01*
X-126977Y-88581D01*
X-126435Y-88165D01*
X-125521Y-86975D01*
X-124947Y-85588D01*
X-124751Y-84100D01*
X-124947Y-82612D01*
X-125521Y-81225D01*
X-126435Y-80035D01*
X-127625Y-79121D01*
X-129012Y-78547D01*
X-130500Y-78351D01*
X-131988Y-78547D01*
X-133375Y-79121D01*
X-134565Y-80035D01*
X-135479Y-81225D01*
X-136053Y-82612D01*
X-136249Y-84100D01*
X-136053Y-85588D01*
X-135479Y-86975D01*
X-134565Y-88165D01*
X-133375Y-89079D01*
X-133223Y-89142D01*
Y-89441D01*
X-133131Y-90146D01*
X-132858Y-90803D01*
X-132426Y-91367D01*
X-129044Y-94749D01*
X-128480Y-95181D01*
X-128342Y-95239D01*
Y-98356D01*
X-129633Y-99647D01*
X-129898Y-100044D01*
X-129991Y-100513D01*
Y-106282D01*
X-129898Y-106751D01*
X-129633Y-107147D01*
X-107165Y-129615D01*
X-106768Y-129880D01*
X-106300Y-129973D01*
X-65710D01*
X-54926Y-140757D01*
X-54957Y-140913D01*
X-54811Y-141647D01*
X-54396Y-142270D01*
X-53773Y-142685D01*
X-53039Y-142831D01*
X-52305Y-142685D01*
X-51683Y-142270D01*
X-51267Y-141647D01*
X-51121Y-140913D01*
X-51267Y-140179D01*
X-51683Y-139557D01*
X-52305Y-139141D01*
X-53039Y-138995D01*
X-53196Y-139027D01*
X-64338Y-127885D01*
X-64735Y-127620D01*
X-65203Y-127526D01*
X-105793D01*
X-117158Y-116161D01*
X-117146Y-116107D01*
X-116913Y-115699D01*
X-113689D01*
X-113672Y-115784D01*
X-113256Y-116406D01*
X-112634Y-116822D01*
X-111900Y-116968D01*
X-111166Y-116822D01*
X-110544Y-116406D01*
X-110128Y-115784D01*
X-109982Y-115050D01*
X-110128Y-114316D01*
X-110544Y-113694D01*
X-111166Y-113278D01*
X-111900Y-113132D01*
X-112634Y-113278D01*
X-113256Y-113694D01*
X-113672Y-114316D01*
X-113689Y-114401D01*
X-116781D01*
X-117366Y-113815D01*
X-117120Y-113355D01*
X-116550Y-113468D01*
X-115816Y-113322D01*
X-115194Y-112906D01*
X-114778Y-112284D01*
X-114632Y-111550D01*
X-114778Y-110816D01*
X-115194Y-110194D01*
X-115816Y-109778D01*
X-116550Y-109632D01*
X-117284Y-109778D01*
X-117356Y-109826D01*
X-119951Y-107231D01*
Y-105069D01*
X-119451Y-104862D01*
X-118545Y-105768D01*
X-118654Y-105931D01*
X-118800Y-106665D01*
X-118654Y-107399D01*
X-118238Y-108022D01*
X-117616Y-108437D01*
X-116882Y-108583D01*
X-116148Y-108437D01*
X-115526Y-108022D01*
X-115110Y-107399D01*
X-114964Y-106665D01*
X-115110Y-105931D01*
X-115526Y-105309D01*
X-116148Y-104893D01*
X-116882Y-104747D01*
X-117616Y-104893D01*
X-117779Y-105003D01*
X-118709Y-104073D01*
Y-69199D01*
X-113461Y-63951D01*
X-101042D01*
X-100839Y-64451D01*
X-100962Y-64748D01*
X-101155Y-65065D01*
X-101778Y-65480D01*
X-102193Y-66103D01*
X-102339Y-66837D01*
X-102193Y-67571D01*
X-101778Y-68193D01*
X-101155Y-68609D01*
X-100421Y-68755D01*
X-99687Y-68609D01*
X-99065Y-68193D01*
X-98649Y-67571D01*
X-98503Y-66837D01*
X-98649Y-66103D01*
X-99065Y-65480D01*
X-99434Y-65234D01*
X-99531Y-64633D01*
X-99525Y-64617D01*
X-98858Y-63951D01*
X-95555D01*
X-95555Y-63951D01*
X-95172Y-63792D01*
X-88720Y-57339D01*
X-88720Y-57339D01*
X-88561Y-56957D01*
Y-9857D01*
X-88061Y-9650D01*
X-64179Y-33532D01*
Y-55116D01*
X-64457Y-55501D01*
X-69794D01*
Y-62609D01*
X-69336D01*
Y-63409D01*
X-69698Y-63683D01*
X-69775Y-63725D01*
X-70492Y-63582D01*
X-71226Y-63728D01*
X-71848Y-64144D01*
X-72264Y-64766D01*
X-72410Y-65500D01*
X-72264Y-66234D01*
X-71848Y-66856D01*
X-71226Y-67272D01*
X-70492Y-67418D01*
X-69758Y-67272D01*
X-69136Y-66856D01*
X-68720Y-66234D01*
X-68574Y-65500D01*
X-68720Y-64766D01*
X-68829Y-64603D01*
X-68412Y-64185D01*
X-68412Y-64185D01*
X-68253Y-63802D01*
Y-62609D01*
X-64457D01*
Y-57152D01*
X-63255Y-55950D01*
X-63244Y-55923D01*
X-62703Y-55923D01*
X-62666Y-56013D01*
X-61527Y-57152D01*
Y-62609D01*
X-57731D01*
Y-63802D01*
X-57731Y-63802D01*
X-57573Y-64185D01*
X-57155Y-64603D01*
X-57264Y-64766D01*
X-57410Y-65500D01*
X-57264Y-66234D01*
X-56848Y-66856D01*
X-56226Y-67272D01*
X-55492Y-67418D01*
X-54758Y-67272D01*
X-54136Y-66856D01*
X-53720Y-66234D01*
X-53574Y-65500D01*
X-53720Y-64766D01*
X-54136Y-64144D01*
X-54758Y-63728D01*
X-55492Y-63582D01*
X-56209Y-63725D01*
X-56287Y-63682D01*
X-56649Y-63409D01*
Y-62609D01*
X-56190D01*
Y-55501D01*
X-61527D01*
X-61742Y-55090D01*
Y-33182D01*
X-61726Y-33149D01*
X-61330Y-32847D01*
X-61280Y-32832D01*
X-61246Y-32847D01*
X-61246Y-32847D01*
X-50741D01*
X-48561Y-35027D01*
Y-38264D01*
X-48651Y-38366D01*
X-49047Y-38611D01*
X-49630Y-38495D01*
X-50364Y-38641D01*
X-50986Y-39057D01*
X-51402Y-39679D01*
X-51548Y-40413D01*
X-51402Y-41147D01*
X-50986Y-41770D01*
X-50364Y-42185D01*
X-49630Y-42331D01*
X-48896Y-42185D01*
X-48274Y-41770D01*
X-47858Y-41147D01*
X-47712Y-40413D01*
X-47858Y-39679D01*
X-47967Y-39516D01*
X-47637Y-39186D01*
X-47637Y-39186D01*
X-47555Y-38987D01*
X-47017Y-38979D01*
X-46946Y-39150D01*
X-46434Y-39662D01*
X-46544Y-39825D01*
X-46690Y-40559D01*
X-46544Y-41293D01*
X-46128Y-41915D01*
X-45506Y-42331D01*
X-44772Y-42477D01*
X-44038Y-42331D01*
X-43415Y-41915D01*
X-43000Y-41293D01*
X-42854Y-40559D01*
X-43000Y-39825D01*
X-43415Y-39203D01*
X-44038Y-38787D01*
X-44772Y-38641D01*
X-45506Y-38787D01*
X-45669Y-38896D01*
X-46022Y-38543D01*
Y-33984D01*
X-46180Y-33602D01*
X-46180Y-33601D01*
X-48844Y-30938D01*
X-48637Y-30438D01*
X-32752D01*
X-32715Y-30493D01*
X-32982Y-30993D01*
X-38082D01*
Y-32040D01*
X-38287Y-32168D01*
X-38582Y-32254D01*
X-39128Y-31890D01*
X-39862Y-31743D01*
X-40596Y-31890D01*
X-41218Y-32305D01*
X-41634Y-32927D01*
X-41780Y-33661D01*
X-41634Y-34395D01*
X-41218Y-35018D01*
X-40596Y-35433D01*
X-39862Y-35579D01*
X-39128Y-35433D01*
X-38582Y-35068D01*
X-38287Y-35154D01*
X-38082Y-35283D01*
Y-36330D01*
X-30973D01*
Y-32460D01*
X-30511Y-32269D01*
X-25069Y-37711D01*
Y-45106D01*
X-25532Y-45167D01*
X-26469Y-45555D01*
X-27273Y-46172D01*
X-27890Y-46976D01*
X-28278Y-47912D01*
X-28410Y-48917D01*
Y-51476D01*
X-28278Y-52481D01*
X-27890Y-53418D01*
X-27273Y-54222D01*
X-26469Y-54839D01*
X-25532Y-55227D01*
X-24528Y-55359D01*
X-23523Y-55227D01*
X-22586Y-54839D01*
X-21782Y-54222D01*
X-21165Y-53418D01*
X-20777Y-52481D01*
X-20645Y-51476D01*
Y-48917D01*
X-20777Y-47912D01*
X-21165Y-46976D01*
X-21782Y-46172D01*
X-22586Y-45555D01*
X-23523Y-45167D01*
X-23986Y-45106D01*
Y-37487D01*
X-23986Y-37487D01*
X-24145Y-37104D01*
X-31511Y-29738D01*
X-31304Y-29238D01*
X-13857D01*
X-12564Y-30531D01*
X-12755Y-30993D01*
X-18397D01*
Y-32766D01*
X-18555Y-32823D01*
X-18897Y-32849D01*
X-19261Y-32305D01*
X-19883Y-31890D01*
X-20617Y-31743D01*
X-21351Y-31890D01*
X-21973Y-32305D01*
X-22389Y-32927D01*
X-22535Y-33661D01*
X-22389Y-34395D01*
X-21973Y-35018D01*
X-21351Y-35433D01*
X-20617Y-35579D01*
X-19883Y-35433D01*
X-19261Y-35018D01*
X-18897Y-34473D01*
X-18555Y-34499D01*
X-18397Y-34557D01*
Y-36330D01*
X-11288D01*
Y-32460D01*
X-10826Y-32269D01*
X-5384Y-37711D01*
Y-45106D01*
X-5847Y-45167D01*
X-6784Y-45555D01*
X-7588Y-46172D01*
X-8205Y-46976D01*
X-8593Y-47912D01*
X-8725Y-48917D01*
Y-51476D01*
X-8593Y-52481D01*
X-8205Y-53418D01*
X-7588Y-54222D01*
X-6784Y-54839D01*
X-5847Y-55227D01*
X-4843Y-55359D01*
X-3838Y-55227D01*
X-2901Y-54839D01*
X-2097Y-54222D01*
X-1480Y-53418D01*
X-1092Y-52481D01*
X-960Y-51476D01*
Y-48917D01*
X-1092Y-47912D01*
X-1480Y-46976D01*
X-2097Y-46172D01*
X-2901Y-45555D01*
X-3838Y-45167D01*
X-4301Y-45106D01*
Y-37487D01*
X-4301Y-37487D01*
X-4460Y-37104D01*
X-4460Y-37104D01*
X-13026Y-28538D01*
X-12819Y-28038D01*
X4628D01*
X7121Y-30531D01*
X6930Y-30993D01*
X1288D01*
Y-32769D01*
X1111Y-32831D01*
X788Y-32852D01*
X423Y-32305D01*
X-199Y-31890D01*
X-933Y-31743D01*
X-1667Y-31890D01*
X-2290Y-32305D01*
X-2705Y-32927D01*
X-2851Y-33661D01*
X-2705Y-34395D01*
X-2290Y-35018D01*
X-1667Y-35433D01*
X-933Y-35579D01*
X-199Y-35433D01*
X423Y-35018D01*
X788Y-34471D01*
X1111Y-34492D01*
X1288Y-34554D01*
Y-36330D01*
X8397D01*
Y-32460D01*
X8859Y-32269D01*
X14301Y-37711D01*
Y-45106D01*
X13838Y-45167D01*
X12901Y-45555D01*
X12097Y-46172D01*
X11480Y-46976D01*
X11092Y-47912D01*
X10960Y-48917D01*
Y-51476D01*
X11092Y-52481D01*
X11480Y-53418D01*
X12097Y-54222D01*
X12901Y-54839D01*
X13838Y-55227D01*
X14842Y-55359D01*
X15847Y-55227D01*
X16784Y-54839D01*
X17588Y-54222D01*
X18205Y-53418D01*
X18593Y-52481D01*
X18725Y-51476D01*
Y-48917D01*
X18593Y-47912D01*
X18205Y-46976D01*
X17588Y-46172D01*
X16784Y-45555D01*
X15847Y-45167D01*
X15384Y-45106D01*
Y-37487D01*
X15225Y-37104D01*
X15225Y-37104D01*
X5459Y-27338D01*
X5666Y-26838D01*
X23113D01*
X26806Y-30531D01*
X26615Y-30993D01*
X20973D01*
Y-32771D01*
X20779Y-32838D01*
X20473Y-32855D01*
X20106Y-32305D01*
X19484Y-31890D01*
X18750Y-31743D01*
X18016Y-31890D01*
X17394Y-32305D01*
X16978Y-32927D01*
X16832Y-33661D01*
X16978Y-34395D01*
X17394Y-35018D01*
X18016Y-35433D01*
X18750Y-35579D01*
X19484Y-35433D01*
X20106Y-35018D01*
X20473Y-34468D01*
X20779Y-34484D01*
X20973Y-34551D01*
Y-36330D01*
X28082D01*
Y-32460D01*
X28544Y-32269D01*
X33986Y-37711D01*
Y-45106D01*
X33523Y-45167D01*
X32586Y-45555D01*
X31782Y-46172D01*
X31165Y-46976D01*
X30777Y-47912D01*
X30645Y-48917D01*
Y-51476D01*
X30777Y-52481D01*
X31165Y-53418D01*
X31782Y-54222D01*
X32586Y-54839D01*
X33523Y-55227D01*
X34528Y-55359D01*
X35533Y-55227D01*
X36469Y-54839D01*
X37273Y-54222D01*
X37890Y-53418D01*
X38278Y-52481D01*
X38410Y-51476D01*
Y-48917D01*
X38278Y-47912D01*
X37890Y-46976D01*
X37273Y-46172D01*
X36469Y-45555D01*
X35533Y-45167D01*
X35069Y-45106D01*
Y-37487D01*
X35069Y-37487D01*
X34910Y-37104D01*
X23944Y-26138D01*
X24151Y-25638D01*
X30787D01*
X43353Y-38205D01*
X43244Y-38368D01*
X43098Y-39102D01*
X43244Y-39836D01*
X43660Y-40458D01*
X44282Y-40874D01*
X45016Y-41020D01*
X45750Y-40874D01*
X46372Y-40458D01*
X46788Y-39836D01*
X46934Y-39102D01*
X46788Y-38368D01*
X46372Y-37746D01*
X45750Y-37330D01*
X45016Y-37184D01*
X44282Y-37330D01*
X44118Y-37439D01*
X31617Y-24938D01*
X31824Y-24438D01*
X34185D01*
X48026Y-38280D01*
X47917Y-38443D01*
X47771Y-39177D01*
X47917Y-39911D01*
X48333Y-40533D01*
X48955Y-40949D01*
X49689Y-41095D01*
X50423Y-40949D01*
X51045Y-40533D01*
X51461Y-39911D01*
X51607Y-39177D01*
X51570Y-38993D01*
X52031Y-38746D01*
X61259Y-47974D01*
Y-55501D01*
X56190D01*
Y-62609D01*
X56910D01*
X57117Y-63109D01*
X56390Y-63837D01*
X56226Y-63728D01*
X55492Y-63582D01*
X54758Y-63728D01*
X54136Y-64144D01*
X53720Y-64766D01*
X53574Y-65500D01*
X53720Y-66234D01*
X54136Y-66856D01*
X54758Y-67272D01*
X55492Y-67418D01*
X56226Y-67272D01*
X56848Y-66856D01*
X57264Y-66234D01*
X57410Y-65500D01*
X57264Y-64766D01*
X57155Y-64603D01*
X58407Y-63351D01*
X58407Y-63351D01*
X58565Y-62968D01*
Y-62609D01*
X61527D01*
Y-57152D01*
X62183Y-56496D01*
X62183Y-56496D01*
X62341Y-56113D01*
Y-47750D01*
X62183Y-47367D01*
X62183Y-47367D01*
X37353Y-22538D01*
X37560Y-22038D01*
X38673D01*
X63559Y-46924D01*
Y-56029D01*
X63559Y-56029D01*
X63717Y-56412D01*
X64457Y-57152D01*
Y-62609D01*
X67124D01*
X67419Y-62968D01*
X67577Y-63351D01*
X68829Y-64603D01*
X68720Y-64766D01*
X68574Y-65500D01*
X68720Y-66234D01*
X69136Y-66856D01*
X69758Y-67272D01*
X70492Y-67418D01*
X71226Y-67272D01*
X71848Y-66856D01*
X72264Y-66234D01*
X72410Y-65500D01*
X72264Y-64766D01*
X71848Y-64144D01*
X71226Y-63728D01*
X70492Y-63582D01*
X69758Y-63728D01*
X69595Y-63837D01*
X68867Y-63109D01*
X69074Y-62609D01*
X69794D01*
Y-55501D01*
X64641D01*
Y-46700D01*
X64641Y-46700D01*
X64483Y-46317D01*
X64483Y-46317D01*
X54162Y-35997D01*
X54409Y-35536D01*
X54626Y-35579D01*
X55360Y-35433D01*
X55982Y-35018D01*
X56398Y-34395D01*
X56402Y-34375D01*
X66966D01*
X73893Y-41302D01*
Y-55501D01*
X71938D01*
Y-62609D01*
X77275D01*
Y-59769D01*
X81141D01*
X86595Y-65223D01*
X88401Y-67028D01*
Y-70150D01*
Y-99860D01*
X88380Y-99864D01*
X87758Y-100280D01*
X87342Y-100902D01*
X87196Y-101636D01*
X87342Y-102370D01*
X87758Y-102992D01*
X88380Y-103408D01*
X88401Y-103412D01*
Y-106390D01*
X72195Y-122595D01*
X72041Y-122827D01*
X71986Y-123100D01*
Y-148104D01*
X59904Y-160186D01*
X55917D01*
X55818Y-159686D01*
X55928Y-159641D01*
X58262Y-157306D01*
X58301Y-157213D01*
X61653D01*
Y-147191D01*
X53953D01*
Y-157213D01*
X55865D01*
X56056Y-157675D01*
X55199Y-158532D01*
X49306D01*
Y-153938D01*
X42394D01*
Y-155760D01*
X37590D01*
X37131Y-155951D01*
X34131Y-158951D01*
X33021D01*
X32673Y-158595D01*
X32673Y-158450D01*
Y-155142D01*
X29705D01*
Y-154642D01*
X29205D01*
Y-150689D01*
X26736Y-150689D01*
X26360Y-150989D01*
X26236Y-150989D01*
X21131D01*
Y-158294D01*
X26330Y-158294D01*
X26449Y-158428D01*
X26452Y-158480D01*
X26008Y-158951D01*
X20075D01*
X19959Y-158794D01*
X20210Y-158294D01*
X20562D01*
Y-150989D01*
X15225D01*
Y-158294D01*
X17386D01*
X17435Y-158412D01*
X19082Y-160059D01*
X19302Y-160151D01*
X19203Y-160651D01*
X9385D01*
X8926Y-160841D01*
X6376Y-163391D01*
X1072D01*
Y-170499D01*
X5674D01*
X5991Y-170886D01*
X5956Y-171063D01*
X6102Y-171797D01*
X6518Y-172419D01*
X7140Y-172835D01*
X7874Y-172981D01*
X8608Y-172835D01*
X9230Y-172419D01*
X9646Y-171797D01*
X9684Y-171604D01*
X23587D01*
X23587Y-171604D01*
X23970Y-171446D01*
X27924Y-167491D01*
X49650D01*
X49650Y-167491D01*
X50033Y-167333D01*
X54074Y-163291D01*
X61150D01*
X61150Y-163291D01*
X61533Y-163133D01*
X75133Y-149533D01*
X75133Y-149533D01*
X75291Y-149150D01*
Y-124174D01*
X92874Y-106591D01*
X113390D01*
X113428Y-106784D01*
X113844Y-107406D01*
X114466Y-107822D01*
X115200Y-107968D01*
X115934Y-107822D01*
X116556Y-107406D01*
X116972Y-106784D01*
X117118Y-106050D01*
X116972Y-105316D01*
X116556Y-104694D01*
X115934Y-104278D01*
X115200Y-104132D01*
X114466Y-104278D01*
X113844Y-104694D01*
X113428Y-105316D01*
X113390Y-105509D01*
X92650D01*
X92267Y-105667D01*
X92267Y-105667D01*
X74367Y-123567D01*
X74209Y-123950D01*
X74209Y-123950D01*
Y-148926D01*
X60926Y-162209D01*
X53850D01*
X53850Y-162209D01*
X53467Y-162367D01*
X53467Y-162367D01*
X49806Y-166029D01*
X49306Y-165822D01*
Y-161614D01*
X60200D01*
X60473Y-161559D01*
X60705Y-161405D01*
X73205Y-148905D01*
X73359Y-148673D01*
X73414Y-148400D01*
Y-123396D01*
X89619Y-107191D01*
X89774Y-106959D01*
X89828Y-106686D01*
Y-103412D01*
X89848Y-103408D01*
X90470Y-102992D01*
X90886Y-102370D01*
X91032Y-101636D01*
X90886Y-100902D01*
X90470Y-100280D01*
X89848Y-99864D01*
X89828Y-99860D01*
Y-70864D01*
X127324D01*
X127328Y-70884D01*
X127744Y-71506D01*
X128366Y-71922D01*
X129100Y-72068D01*
X129834Y-71922D01*
X130456Y-71506D01*
X130872Y-70884D01*
X131018Y-70150D01*
X130872Y-69416D01*
X130456Y-68794D01*
X129834Y-68378D01*
X129100Y-68232D01*
X128366Y-68378D01*
X127744Y-68794D01*
X127328Y-69416D01*
X127324Y-69436D01*
X89828D01*
Y-66732D01*
X89774Y-66459D01*
X89619Y-66228D01*
X87814Y-64423D01*
Y26500D01*
X87759Y26773D01*
X87605Y27005D01*
X74572Y40037D01*
Y46839D01*
X76262D01*
X76638Y46539D01*
X76981Y46539D01*
X79185D01*
Y49449D01*
X79685D01*
Y49949D01*
X82732D01*
Y52209D01*
Y54618D01*
X79685D01*
Y55118D01*
X79185D01*
Y58028D01*
X76981D01*
X76638Y58028D01*
X76262Y57728D01*
X74309D01*
X73355Y58682D01*
X73124Y58837D01*
X72850Y58891D01*
X70092D01*
X69696Y59143D01*
Y64873D01*
X68824D01*
Y79690D01*
X68770Y79963D01*
X68615Y80194D01*
X59375Y89434D01*
Y92607D01*
X68227D01*
X69517Y91317D01*
X69517Y91317D01*
X69900Y91159D01*
X69900Y91159D01*
X70954D01*
Y88178D01*
Y85028D01*
Y81879D01*
Y78729D01*
Y75580D01*
Y72430D01*
Y69602D01*
X70653D01*
Y68217D01*
X73819D01*
X76984D01*
Y69602D01*
X76684D01*
Y73475D01*
X86410D01*
X88459Y71426D01*
X88459Y-49500D01*
X88459Y-49500D01*
X88617Y-49883D01*
X98909Y-60174D01*
Y-62090D01*
X98716Y-62128D01*
X98094Y-62544D01*
X97678Y-63166D01*
X97532Y-63900D01*
X97678Y-64634D01*
X98094Y-65256D01*
X98716Y-65672D01*
X99450Y-65818D01*
X100184Y-65672D01*
X100806Y-65256D01*
X101222Y-64634D01*
X101368Y-63900D01*
X101222Y-63166D01*
X101094Y-62975D01*
X101454Y-62614D01*
X101616Y-62722D01*
X102350Y-62868D01*
X103084Y-62722D01*
X103706Y-62306D01*
X104122Y-61684D01*
X104268Y-60950D01*
X104122Y-60216D01*
X104089Y-60166D01*
X104390Y-59716D01*
X104900Y-59818D01*
X105634Y-59672D01*
X106256Y-59256D01*
X106672Y-58634D01*
X106815Y-57915D01*
X106866Y-57883D01*
X107294Y-57733D01*
X107444Y-57956D01*
X108066Y-58372D01*
X108800Y-58518D01*
X109534Y-58372D01*
X110156Y-57956D01*
X110572Y-57334D01*
X110718Y-56600D01*
X110572Y-55866D01*
X110156Y-55244D01*
X109534Y-54828D01*
X108800Y-54682D01*
X108562Y-54729D01*
X107267Y-53435D01*
X106870Y-53170D01*
X106402Y-53076D01*
X101807D01*
X95024Y-46293D01*
Y-16757D01*
X96693Y-15087D01*
X96850Y-15118D01*
X97584Y-14972D01*
X98206Y-14556D01*
X98622Y-13934D01*
X98768Y-13200D01*
X98622Y-12466D01*
X98206Y-11844D01*
X97584Y-11428D01*
X96850Y-11282D01*
X96116Y-11428D01*
X95494Y-11844D01*
X95078Y-12466D01*
X94932Y-13200D01*
X94963Y-13356D01*
X92935Y-15385D01*
X92670Y-15782D01*
X92591Y-16176D01*
X92091Y-16127D01*
Y86750D01*
X92091Y86750D01*
X91933Y87133D01*
X91933Y87133D01*
X86983Y92083D01*
X86600Y92241D01*
X86600Y92241D01*
X70124D01*
X69696Y92669D01*
Y98338D01*
X60382D01*
X60191Y98800D01*
X61878Y100486D01*
X63674D01*
X63678Y100466D01*
X64094Y99844D01*
X64716Y99428D01*
X65450Y99282D01*
X66184Y99428D01*
X66806Y99844D01*
X67222Y100466D01*
X67226Y100486D01*
X69527D01*
X69800Y100541D01*
X70031Y100695D01*
X71371Y102035D01*
X71526Y102266D01*
X71580Y102539D01*
Y104576D01*
X73476D01*
Y110070D01*
X73776Y110102D01*
Y112650D01*
X70866D01*
Y113150D01*
X70366D01*
Y116197D01*
X69106D01*
X68899Y116697D01*
X69740Y117537D01*
X75115D01*
X75153Y117345D01*
X75569Y116723D01*
X76191Y116307D01*
X76925Y116161D01*
X77659Y116307D01*
X78281Y116723D01*
X78697Y117345D01*
X78843Y118079D01*
X78697Y118813D01*
X78281Y119435D01*
X77659Y119851D01*
X76925Y119997D01*
X76191Y119851D01*
X75569Y119435D01*
X75153Y118813D01*
X75115Y118620D01*
X69516D01*
X69133Y118461D01*
X69133Y118461D01*
X67577Y116906D01*
X67419Y116523D01*
X67092Y116197D01*
X65461D01*
Y113150D01*
X64461D01*
Y116197D01*
X62051D01*
Y115839D01*
X61625Y115661D01*
X61551Y115661D01*
X59705D01*
Y115673D01*
X59514Y116132D01*
X58455Y117192D01*
X57996Y117382D01*
X55247D01*
Y119814D01*
X49674D01*
Y113650D01*
X55247D01*
Y116083D01*
X56297D01*
X56485Y115661D01*
Y110717D01*
X61551D01*
X61625Y110717D01*
X62051Y110539D01*
Y110102D01*
X62351Y110070D01*
Y104576D01*
X62052Y104199D01*
X59400D01*
X58941Y104009D01*
X55053Y100121D01*
X54862Y99661D01*
Y98338D01*
X53012D01*
Y100321D01*
X57502Y104812D01*
X61625D01*
Y109755D01*
X56485D01*
Y105632D01*
X56009Y105156D01*
X55547Y105347D01*
Y107177D01*
X52961D01*
Y104295D01*
X54495D01*
X54686Y103833D01*
X51903Y101050D01*
X51713Y100591D01*
Y98338D01*
X49862D01*
Y100799D01*
X49672Y101259D01*
X46835Y104095D01*
X47042Y104595D01*
X48751D01*
Y110759D01*
X43178D01*
Y104595D01*
X45315D01*
Y104047D01*
X45505Y103588D01*
X48563Y100530D01*
Y98338D01*
X46740D01*
X46722Y98427D01*
X46568Y98658D01*
X41112Y104114D01*
X41304Y104576D01*
X41980D01*
Y110070D01*
X42279Y110102D01*
Y112650D01*
X39370D01*
Y113150D01*
X38870D01*
Y116197D01*
X36461D01*
Y116171D01*
X36074Y115897D01*
X30855D01*
Y113863D01*
X30169D01*
Y115897D01*
X24950D01*
Y113863D01*
X24263D01*
Y115897D01*
X19044D01*
Y110746D01*
X18744Y110370D01*
X18744Y110027D01*
Y107823D01*
X21654D01*
Y107323D01*
X22153D01*
Y104276D01*
X24150D01*
X24650Y104276D01*
X24767Y103776D01*
X24394Y103217D01*
X24248Y102483D01*
X24394Y101749D01*
X24809Y101127D01*
X25432Y100711D01*
X26166Y100565D01*
X26899Y100711D01*
X27522Y101127D01*
X27937Y101749D01*
X27954Y101834D01*
X30346D01*
X32859Y99321D01*
X32811Y99250D01*
X32665Y98516D01*
X32811Y97782D01*
X33226Y97160D01*
X33578Y96925D01*
X33582Y96326D01*
X33428Y96223D01*
X32945Y95501D01*
X32876Y95150D01*
X37124D01*
X37055Y95501D01*
X36573Y96223D01*
X36004Y96602D01*
X35937Y97158D01*
X35939Y97160D01*
X36355Y97782D01*
X36501Y98516D01*
X36355Y99250D01*
X35939Y99872D01*
X35317Y100288D01*
X34583Y100434D01*
X33849Y100288D01*
X33777Y100240D01*
X31074Y102943D01*
X30615Y103133D01*
X27954D01*
X27937Y103217D01*
X27564Y103776D01*
X27637Y104043D01*
X27769Y104276D01*
X30468D01*
Y104276D01*
X30555D01*
Y104276D01*
X32965D01*
Y107323D01*
X33965D01*
Y104276D01*
X36374D01*
Y104302D01*
X36761Y104576D01*
X38710D01*
X38711Y104573D01*
X38865Y104342D01*
X44592Y98615D01*
X44477Y98338D01*
X44477D01*
Y96186D01*
X42120D01*
X42006Y96356D01*
X41384Y96772D01*
X40650Y96918D01*
X39916Y96772D01*
X39294Y96356D01*
X38878Y95734D01*
X38732Y95000D01*
X38878Y94266D01*
X39294Y93644D01*
X39916Y93228D01*
X40650Y93082D01*
X41384Y93228D01*
X42006Y93644D01*
X42422Y94266D01*
X42520Y94759D01*
X44477D01*
Y92607D01*
X44022Y92499D01*
X36607D01*
X36456Y92999D01*
X36573Y93077D01*
X37055Y93799D01*
X37124Y94150D01*
X32876D01*
X32945Y93799D01*
X33428Y93077D01*
X33563Y92987D01*
X33572Y92848D01*
X33470Y92448D01*
X33135Y92309D01*
X31577Y90752D01*
X27472D01*
Y93642D01*
X27866Y93955D01*
X28247Y93637D01*
X28644Y93044D01*
X29266Y92628D01*
X30000Y92482D01*
X30734Y92628D01*
X31356Y93044D01*
X31772Y93666D01*
X31918Y94400D01*
X31772Y95134D01*
X31356Y95756D01*
X30734Y96172D01*
X30000Y96318D01*
X29266Y96172D01*
X28644Y95756D01*
X28456Y95474D01*
X27812Y95411D01*
X27262Y95961D01*
X26879Y96120D01*
X26879Y96120D01*
X23961D01*
X23809Y96620D01*
X24081Y96801D01*
X24496Y97423D01*
X24642Y98158D01*
X24496Y98891D01*
X24081Y99514D01*
X23458Y99929D01*
X22724Y100075D01*
X21990Y99929D01*
X21907Y99874D01*
X20999Y100782D01*
X20617Y100940D01*
X20617Y100940D01*
X20116D01*
X20077Y101133D01*
X19661Y101755D01*
X19039Y102171D01*
X18305Y102317D01*
X17571Y102171D01*
X16949Y101755D01*
X16533Y101133D01*
X16387Y100399D01*
X16433Y100170D01*
X16079Y99816D01*
X16043Y99823D01*
X15309Y99677D01*
X14687Y99262D01*
X14271Y98640D01*
X14125Y97905D01*
X14271Y97171D01*
X14430Y96934D01*
X14148Y96456D01*
X14097Y96460D01*
X-4195Y114752D01*
X-4180Y114863D01*
X-3800Y115134D01*
Y117421D01*
Y119546D01*
X-4151Y119476D01*
X-4523Y119227D01*
X-5023Y119494D01*
Y133462D01*
X-5182Y133844D01*
X-9170Y137833D01*
X-9553Y137991D01*
X-9553Y137991D01*
X-20526D01*
X-21614Y139079D01*
X-21997Y139238D01*
X-21997Y139238D01*
X-24009D01*
X-24047Y139431D01*
X-24463Y140053D01*
X-25085Y140469D01*
X-25819Y140615D01*
D02*
G37*
G36*
X-111151Y89504D02*
X-112135Y89374D01*
X-113053Y88994D01*
X-113440Y88697D01*
X-111151Y86407D01*
X-108861Y88697D01*
X-109248Y88994D01*
X-110166Y89374D01*
X-111151Y89504D01*
D02*
G37*
G36*
X-108153Y87990D02*
X-110443Y85700D01*
X-108153Y83410D01*
X-107856Y83798D01*
X-107476Y84715D01*
X-107346Y85700D01*
X-107476Y86685D01*
X-107856Y87602D01*
X-108153Y87990D01*
D02*
G37*
G36*
X-114147Y87990D02*
X-114445Y87602D01*
X-114825Y86685D01*
X-114955Y85700D01*
X-114825Y84715D01*
X-114445Y83798D01*
X-114147Y83410D01*
X-111858Y85700D01*
X-114147Y87990D01*
D02*
G37*
G36*
X-111151Y84993D02*
X-113440Y82703D01*
X-113053Y82405D01*
X-112135Y82025D01*
X-111151Y81896D01*
X-110166Y82025D01*
X-109248Y82405D01*
X-108861Y82703D01*
X-111151Y84993D01*
D02*
G37*
G36*
X111151Y90610D02*
X106241Y85700D01*
X111151Y80790D01*
X116060Y85700D01*
X111151Y90610D01*
D02*
G37*
G36*
X21953Y159350D02*
X7961D01*
X7492Y159256D01*
X7096Y158991D01*
X1038Y152934D01*
X906Y152989D01*
X0Y153108D01*
X-906Y152989D01*
X-1751Y152639D01*
X-2476Y152082D01*
X-3032Y151357D01*
X-3382Y150513D01*
X-3502Y149606D01*
X-3382Y148700D01*
X-3164Y148173D01*
X-8653Y142684D01*
X-21139D01*
X-28926Y150471D01*
X-29323Y150737D01*
X-29791Y150830D01*
X-36119D01*
X-36338Y151357D01*
X-36894Y152082D01*
X-37619Y152639D01*
X-38464Y152989D01*
X-39370Y153108D01*
X-40276Y152989D01*
X-41121Y152639D01*
X-41846Y152082D01*
X-42403Y151357D01*
X-42752Y150513D01*
X-42872Y149606D01*
X-42752Y148700D01*
X-42534Y148173D01*
X-54381Y136326D01*
X-99929D01*
X-100397Y136233D01*
X-100794Y135968D01*
X-118975Y117786D01*
X-119241Y117390D01*
X-119334Y116921D01*
Y81991D01*
X-119861Y81773D01*
X-120586Y81216D01*
X-121143Y80491D01*
X-121493Y79646D01*
X-121612Y78740D01*
X-121493Y77834D01*
X-121143Y76989D01*
X-120586Y76264D01*
X-119861Y75708D01*
X-119334Y75489D01*
Y53129D01*
X-121345Y51117D01*
X-121611Y50720D01*
X-121704Y50252D01*
Y-43429D01*
X-121611Y-43897D01*
X-121345Y-44294D01*
X-112889Y-52751D01*
X-112492Y-53016D01*
X-112024Y-53109D01*
X-99516D01*
X-99427Y-53242D01*
X-98805Y-53658D01*
X-98071Y-53804D01*
X-97337Y-53658D01*
X-96715Y-53242D01*
X-96299Y-52620D01*
X-96153Y-51886D01*
X-96299Y-51152D01*
X-96715Y-50530D01*
X-97337Y-50114D01*
X-98071Y-49968D01*
X-98805Y-50114D01*
X-99427Y-50530D01*
X-99516Y-50662D01*
X-111517D01*
X-119257Y-42922D01*
Y49745D01*
X-117245Y51757D01*
X-116980Y52154D01*
X-116887Y52622D01*
Y75489D01*
X-116359Y75708D01*
X-115634Y76264D01*
X-115078Y76989D01*
X-114728Y77834D01*
X-114609Y78740D01*
X-114728Y79646D01*
X-115078Y80491D01*
X-115634Y81216D01*
X-116359Y81773D01*
X-116887Y81991D01*
Y116414D01*
X-99422Y133879D01*
X-53874D01*
X-53406Y133972D01*
X-53009Y134237D01*
X-40804Y146442D01*
X-40276Y146224D01*
X-39370Y146105D01*
X-38464Y146224D01*
X-37619Y146574D01*
X-36894Y147130D01*
X-36338Y147855D01*
X-36119Y148383D01*
X-30298D01*
X-22511Y140595D01*
X-22114Y140330D01*
X-21646Y140237D01*
X-8146D01*
X-7677Y140330D01*
X-7281Y140595D01*
X-1434Y146442D01*
X-906Y146224D01*
X0Y146105D01*
X906Y146224D01*
X1751Y146574D01*
X2476Y147130D01*
X3032Y147855D01*
X3382Y148700D01*
X3502Y149606D01*
X3382Y150513D01*
X3032Y151357D01*
X2984Y151420D01*
X8467Y156903D01*
X21446D01*
X29607Y148741D01*
X30004Y148476D01*
X30472Y148383D01*
X36119D01*
X36338Y147855D01*
X36894Y147130D01*
X37619Y146574D01*
X38464Y146224D01*
X39370Y146105D01*
X40276Y146224D01*
X40804Y146442D01*
X57241Y130005D01*
X57638Y129740D01*
X58106Y129647D01*
X104273D01*
X116887Y117033D01*
Y81991D01*
X116359Y81773D01*
X115634Y81216D01*
X115078Y80491D01*
X114728Y79646D01*
X114609Y78740D01*
X114728Y77834D01*
X115078Y76989D01*
X115634Y76264D01*
X116359Y75708D01*
X117204Y75358D01*
X118110Y75239D01*
X119017Y75358D01*
X119861Y75708D01*
X120586Y76264D01*
X121143Y76989D01*
X121493Y77834D01*
X121612Y78740D01*
X121493Y79646D01*
X121143Y80491D01*
X120586Y81216D01*
X119861Y81773D01*
X119334Y81991D01*
Y117539D01*
X119241Y118008D01*
X118975Y118404D01*
X105645Y131735D01*
X105248Y132001D01*
X104780Y132094D01*
X58613D01*
X42534Y148173D01*
X42752Y148700D01*
X42872Y149606D01*
X42752Y150513D01*
X42403Y151357D01*
X41846Y152082D01*
X41121Y152639D01*
X40276Y152989D01*
X39370Y153108D01*
X38464Y152989D01*
X37619Y152639D01*
X36894Y152082D01*
X36338Y151357D01*
X36119Y150830D01*
X30979D01*
X22818Y158991D01*
X22421Y159256D01*
X21953Y159350D01*
D02*
G37*
G36*
X125070Y75585D02*
X124085Y75455D01*
X123168Y75075D01*
X122780Y74777D01*
X125070Y72488D01*
X127360Y74777D01*
X126972Y75075D01*
X126055Y75455D01*
X125070Y75585D01*
D02*
G37*
G36*
X128067Y74070D02*
X125777Y71780D01*
X128067Y69491D01*
X128365Y69878D01*
X128744Y70796D01*
X128874Y71780D01*
X128744Y72765D01*
X128365Y73683D01*
X128067Y74070D01*
D02*
G37*
G36*
X122073Y74070D02*
X121775Y73683D01*
X121395Y72765D01*
X121266Y71780D01*
X121395Y70796D01*
X121775Y69878D01*
X122073Y69491D01*
X124363Y71780D01*
X122073Y74070D01*
D02*
G37*
G36*
X125070Y71073D02*
X122780Y68783D01*
X123168Y68486D01*
X124085Y68106D01*
X125070Y67976D01*
X126055Y68106D01*
X126972Y68486D01*
X127360Y68783D01*
X125070Y71073D01*
D02*
G37*
G36*
X83750Y68924D02*
Y67300D01*
X85374D01*
X85304Y67651D01*
X84822Y68372D01*
X84101Y68854D01*
X83750Y68924D01*
D02*
G37*
G36*
X82750D02*
X82399Y68854D01*
X81678Y68372D01*
X81195Y67651D01*
X81126Y67300D01*
X82750D01*
Y68924D01*
D02*
G37*
G36*
X-125070Y76690D02*
X-129980Y71780D01*
X-125070Y66871D01*
X-120160Y71780D01*
X-125070Y76690D01*
D02*
G37*
G36*
X76984Y67216D02*
X74319D01*
Y65831D01*
X76984D01*
Y67216D01*
D02*
G37*
G36*
X73319D02*
X70653D01*
Y65831D01*
X73319D01*
Y67216D01*
D02*
G37*
G36*
X85374Y66300D02*
X83750D01*
Y64676D01*
X84101Y64745D01*
X84822Y65228D01*
X85304Y65949D01*
X85374Y66300D01*
D02*
G37*
G36*
X82750D02*
X81126D01*
X81195Y65949D01*
X81678Y65228D01*
X82399Y64745D01*
X82750Y64676D01*
Y66300D01*
D02*
G37*
G36*
X80185Y58028D02*
Y55618D01*
X82732D01*
Y58028D01*
X80185D01*
D02*
G37*
G36*
X82732Y48949D02*
X80185D01*
Y46539D01*
X82732D01*
Y48949D01*
D02*
G37*
G36*
X108268Y44049D02*
X106587Y43883D01*
X104971Y43393D01*
X103481Y42597D01*
X102176Y41525D01*
X101104Y40220D01*
X100308Y38730D01*
X99818Y37114D01*
X99652Y35433D01*
X99818Y33752D01*
X100308Y32136D01*
X101104Y30646D01*
X102176Y29341D01*
X103481Y28269D01*
X104971Y27473D01*
X106587Y26983D01*
X108268Y26818D01*
X109949Y26983D01*
X111565Y27473D01*
X113054Y28269D01*
X114360Y29341D01*
X115431Y30646D01*
X116227Y32136D01*
X116718Y33752D01*
X116883Y35433D01*
X116718Y37114D01*
X116227Y38730D01*
X115431Y40220D01*
X114360Y41525D01*
X113054Y42597D01*
X111565Y43393D01*
X109949Y43883D01*
X108268Y44049D01*
D02*
G37*
G36*
X-108268D02*
X-109949Y43883D01*
X-111565Y43393D01*
X-113054Y42597D01*
X-114360Y41525D01*
X-115431Y40220D01*
X-116227Y38730D01*
X-116718Y37114D01*
X-116883Y35433D01*
X-116718Y33752D01*
X-116227Y32136D01*
X-115431Y30646D01*
X-114360Y29341D01*
X-113054Y28269D01*
X-111565Y27473D01*
X-109949Y26983D01*
X-108268Y26818D01*
X-106587Y26983D01*
X-104971Y27473D01*
X-103481Y28269D01*
X-102176Y29341D01*
X-101104Y30646D01*
X-100308Y32136D01*
X-99818Y33752D01*
X-99652Y35433D01*
X-99818Y37114D01*
X-100308Y38730D01*
X-101104Y40220D01*
X-102176Y41525D01*
X-103481Y42597D01*
X-104971Y43393D01*
X-106587Y43883D01*
X-108268Y44049D01*
D02*
G37*
G36*
X108268Y-26818D02*
X106587Y-26983D01*
X104971Y-27473D01*
X103481Y-28269D01*
X102176Y-29341D01*
X101104Y-30646D01*
X100308Y-32136D01*
X99818Y-33752D01*
X99652Y-35433D01*
X99818Y-37114D01*
X100308Y-38730D01*
X101104Y-40220D01*
X102176Y-41525D01*
X103481Y-42597D01*
X104971Y-43393D01*
X106587Y-43883D01*
X108268Y-44049D01*
X109949Y-43883D01*
X111565Y-43393D01*
X113054Y-42597D01*
X114360Y-41525D01*
X115431Y-40220D01*
X116227Y-38730D01*
X116718Y-37114D01*
X116883Y-35433D01*
X116718Y-33752D01*
X116227Y-32136D01*
X115431Y-30646D01*
X114360Y-29341D01*
X113054Y-28269D01*
X111565Y-27473D01*
X109949Y-26983D01*
X108268Y-26818D01*
D02*
G37*
G36*
X-108268Y-26818D02*
X-109949Y-26983D01*
X-111565Y-27473D01*
X-113054Y-28269D01*
X-114360Y-29341D01*
X-115431Y-30647D01*
X-116227Y-32136D01*
X-116718Y-33752D01*
X-116883Y-35433D01*
X-116718Y-37114D01*
X-116227Y-38730D01*
X-115431Y-40220D01*
X-114360Y-41525D01*
X-113054Y-42597D01*
X-111565Y-43393D01*
X-109949Y-43883D01*
X-108268Y-44049D01*
X-106587Y-43883D01*
X-104971Y-43393D01*
X-103481Y-42597D01*
X-102176Y-41525D01*
X-101104Y-40220D01*
X-100308Y-38730D01*
X-99818Y-37114D01*
X-99652Y-35433D01*
X-99818Y-33752D01*
X-100308Y-32136D01*
X-101104Y-30647D01*
X-102176Y-29341D01*
X-103481Y-28269D01*
X-104971Y-27473D01*
X-106587Y-26983D01*
X-108268Y-26818D01*
D02*
G37*
G36*
X28082Y-38473D02*
X20973D01*
Y-43810D01*
X23814D01*
Y-45129D01*
X23523Y-45167D01*
X22586Y-45555D01*
X21782Y-46172D01*
X21165Y-46976D01*
X20777Y-47912D01*
X20645Y-48917D01*
Y-51476D01*
X20777Y-52481D01*
X21165Y-53418D01*
X21782Y-54222D01*
X22586Y-54839D01*
X23523Y-55227D01*
X24528Y-55359D01*
X25532Y-55227D01*
X26469Y-54839D01*
X27273Y-54222D01*
X27890Y-53418D01*
X28278Y-52481D01*
X28410Y-51476D01*
Y-48917D01*
X28278Y-47912D01*
X27890Y-46976D01*
X27273Y-46172D01*
X26469Y-45555D01*
X25532Y-45167D01*
X25241Y-45129D01*
Y-43810D01*
X28082D01*
Y-38473D01*
D02*
G37*
G36*
X8397D02*
X1288D01*
Y-43810D01*
X4129D01*
Y-45129D01*
X3838Y-45167D01*
X2901Y-45555D01*
X2097Y-46172D01*
X1480Y-46976D01*
X1092Y-47912D01*
X960Y-48917D01*
Y-51476D01*
X1092Y-52481D01*
X1480Y-53418D01*
X2097Y-54222D01*
X2901Y-54839D01*
X3838Y-55227D01*
X4843Y-55359D01*
X5847Y-55227D01*
X6784Y-54839D01*
X7588Y-54222D01*
X8205Y-53418D01*
X8593Y-52481D01*
X8725Y-51476D01*
Y-48917D01*
X8593Y-47912D01*
X8205Y-46976D01*
X7588Y-46172D01*
X6784Y-45555D01*
X5847Y-45167D01*
X5556Y-45129D01*
Y-43810D01*
X8397D01*
Y-38473D01*
D02*
G37*
G36*
X-11288D02*
X-18397D01*
Y-43810D01*
X-15556D01*
Y-45129D01*
X-15847Y-45167D01*
X-16784Y-45555D01*
X-17588Y-46172D01*
X-18205Y-46976D01*
X-18593Y-47912D01*
X-18725Y-48917D01*
Y-51476D01*
X-18593Y-52481D01*
X-18205Y-53418D01*
X-17588Y-54222D01*
X-16784Y-54839D01*
X-15847Y-55227D01*
X-14842Y-55359D01*
X-13838Y-55227D01*
X-12901Y-54839D01*
X-12097Y-54222D01*
X-11480Y-53418D01*
X-11092Y-52481D01*
X-10960Y-51476D01*
Y-48917D01*
X-11092Y-47912D01*
X-11480Y-46976D01*
X-12097Y-46172D01*
X-12901Y-45555D01*
X-13838Y-45167D01*
X-14129Y-45129D01*
Y-43810D01*
X-11288D01*
Y-38473D01*
D02*
G37*
G36*
X-30973D02*
X-38082D01*
Y-43810D01*
X-35241D01*
Y-45129D01*
X-35533Y-45167D01*
X-36469Y-45555D01*
X-37273Y-46172D01*
X-37890Y-46976D01*
X-38278Y-47912D01*
X-38410Y-48917D01*
Y-51476D01*
X-38278Y-52481D01*
X-37890Y-53418D01*
X-37273Y-54222D01*
X-36469Y-54839D01*
X-35533Y-55227D01*
X-34528Y-55359D01*
X-33523Y-55227D01*
X-32586Y-54839D01*
X-31782Y-54222D01*
X-31165Y-53418D01*
X-30777Y-52481D01*
X-30645Y-51476D01*
Y-48917D01*
X-30777Y-47912D01*
X-31165Y-46976D01*
X-31782Y-46172D01*
X-32586Y-45555D01*
X-33523Y-45167D01*
X-33814Y-45129D01*
Y-43810D01*
X-30973D01*
Y-38473D01*
D02*
G37*
G36*
X54347Y-55201D02*
X51878D01*
Y-58555D01*
X54347D01*
Y-55201D01*
D02*
G37*
G36*
X50878D02*
X48409D01*
Y-58555D01*
X50878D01*
Y-55201D01*
D02*
G37*
G36*
X-71638D02*
X-74106D01*
Y-58555D01*
X-71638D01*
Y-55201D01*
D02*
G37*
G36*
X-75106D02*
X-77575D01*
Y-58555D01*
X-75106D01*
Y-55201D01*
D02*
G37*
G36*
X54347Y-59555D02*
X51878D01*
Y-62910D01*
X54347D01*
Y-59555D01*
D02*
G37*
G36*
X50878D02*
X48409D01*
Y-62910D01*
X50878D01*
Y-59555D01*
D02*
G37*
G36*
X-71638Y-59555D02*
X-74106D01*
Y-62910D01*
X-71638D01*
Y-59555D01*
D02*
G37*
G36*
X-75106D02*
X-77575D01*
Y-62910D01*
X-75106D01*
Y-59555D01*
D02*
G37*
G36*
X-48709Y-55501D02*
X-54046D01*
Y-62609D01*
X-48709D01*
Y-59715D01*
X-48209Y-59709D01*
X-42009Y-65909D01*
X-41550Y-66099D01*
X-39339D01*
X-39322Y-66184D01*
X-38906Y-66806D01*
X-38284Y-67222D01*
X-37550Y-67368D01*
X-36816Y-67222D01*
X-36194Y-66806D01*
X-35778Y-66184D01*
X-35632Y-65450D01*
X-35778Y-64716D01*
X-36194Y-64094D01*
X-36816Y-63678D01*
X-37550Y-63532D01*
X-38284Y-63678D01*
X-38906Y-64094D01*
X-39322Y-64716D01*
X-39339Y-64801D01*
X-41281D01*
X-47486Y-58596D01*
X-47945Y-58406D01*
X-48709D01*
Y-55501D01*
D02*
G37*
G36*
X-114173Y-68853D02*
X-115204Y-68988D01*
X-116164Y-69386D01*
X-116989Y-70019D01*
X-117622Y-70843D01*
X-118020Y-71804D01*
X-118155Y-72835D01*
X-118020Y-73865D01*
X-117622Y-74826D01*
X-116989Y-75650D01*
X-116164Y-76283D01*
X-115204Y-76681D01*
X-114173Y-76817D01*
X-113143Y-76681D01*
X-112182Y-76283D01*
X-111357Y-75650D01*
X-110747Y-74855D01*
X-110695Y-74852D01*
X-110247Y-75099D01*
Y-76783D01*
X-102351D01*
Y-68887D01*
X-110247D01*
Y-70570D01*
X-110695Y-70817D01*
X-110747Y-70814D01*
X-111357Y-70019D01*
X-112182Y-69386D01*
X-113143Y-68988D01*
X-114173Y-68853D01*
D02*
G37*
G36*
X-106299Y-78695D02*
X-107330Y-78831D01*
X-108290Y-79229D01*
X-109115Y-79861D01*
X-109748Y-80686D01*
X-109966Y-81212D01*
X-110507D01*
X-110725Y-80686D01*
X-111357Y-79861D01*
X-112182Y-79229D01*
X-113143Y-78831D01*
X-114173Y-78695D01*
X-115204Y-78831D01*
X-116164Y-79229D01*
X-116989Y-79861D01*
X-117622Y-80686D01*
X-118020Y-81647D01*
X-118155Y-82677D01*
X-118020Y-83708D01*
X-117622Y-84668D01*
X-116989Y-85493D01*
X-116164Y-86126D01*
X-115204Y-86524D01*
X-114173Y-86659D01*
X-113143Y-86524D01*
X-112182Y-86126D01*
X-111357Y-85493D01*
X-110725Y-84668D01*
X-110507Y-84142D01*
X-109966D01*
X-109748Y-84668D01*
X-109115Y-85493D01*
X-108290Y-86126D01*
X-107330Y-86524D01*
X-106299Y-86659D01*
X-105269Y-86524D01*
X-104308Y-86126D01*
X-103483Y-85493D01*
X-102851Y-84668D01*
X-102453Y-83708D01*
X-102317Y-82677D01*
X-102453Y-81647D01*
X-102851Y-80686D01*
X-103483Y-79861D01*
X-104308Y-79229D01*
X-105269Y-78831D01*
X-106299Y-78695D01*
D02*
G37*
G36*
X-45900Y-81076D02*
X-46251Y-81146D01*
X-46973Y-81628D01*
X-47455Y-82349D01*
X-47524Y-82700D01*
X-45900D01*
Y-81076D01*
D02*
G37*
G36*
X15342Y-78262D02*
Y-83161D01*
X19028D01*
Y-82382D01*
X18885Y-81299D01*
X18467Y-80289D01*
X17802Y-79422D01*
X16935Y-78757D01*
X15926Y-78339D01*
X15342Y-78262D01*
D02*
G37*
G36*
X-4343D02*
Y-83161D01*
X-657D01*
Y-82382D01*
X-800Y-81299D01*
X-1218Y-80289D01*
X-1883Y-79422D01*
X-2750Y-78757D01*
X-3759Y-78339D01*
X-4343Y-78262D01*
D02*
G37*
G36*
X-24028D02*
Y-83161D01*
X-20342D01*
Y-82382D01*
X-20485Y-81299D01*
X-20903Y-80289D01*
X-21568Y-79422D01*
X-22435Y-78757D01*
X-23444Y-78339D01*
X-24028Y-78262D01*
D02*
G37*
G36*
X14343Y-78262D02*
X13759Y-78339D01*
X12750Y-78757D01*
X11883Y-79422D01*
X11218Y-80289D01*
X10800Y-81299D01*
X10657Y-82382D01*
Y-83161D01*
X14343D01*
Y-78262D01*
D02*
G37*
G36*
X-5342D02*
X-5926Y-78339D01*
X-6935Y-78757D01*
X-7802Y-79422D01*
X-8467Y-80289D01*
X-8885Y-81299D01*
X-9028Y-82382D01*
Y-83161D01*
X-5342D01*
Y-78262D01*
D02*
G37*
G36*
X-25028D02*
X-25611Y-78339D01*
X-26620Y-78757D01*
X-27487Y-79422D01*
X-28152Y-80289D01*
X-28570Y-81299D01*
X-28713Y-82382D01*
Y-83161D01*
X-25028D01*
Y-78262D01*
D02*
G37*
G36*
X39000Y-76586D02*
X26500D01*
X26227Y-76641D01*
X25995Y-76795D01*
X24256Y-78535D01*
X23523Y-78631D01*
X22586Y-79019D01*
X21782Y-79636D01*
X21165Y-80440D01*
X20777Y-81377D01*
X20645Y-82382D01*
Y-84941D01*
X20777Y-85946D01*
X21165Y-86882D01*
X21782Y-87687D01*
X22586Y-88304D01*
X23523Y-88692D01*
X24528Y-88824D01*
X25532Y-88692D01*
X26469Y-88304D01*
X27273Y-87687D01*
X27890Y-86882D01*
X28278Y-85946D01*
X28410Y-84941D01*
Y-82382D01*
X28278Y-81377D01*
X27890Y-80440D01*
X27273Y-79636D01*
X26485Y-79031D01*
X26410Y-78960D01*
X26347Y-78462D01*
X26796Y-78014D01*
X32923D01*
X33023Y-78514D01*
X32435Y-78757D01*
X31568Y-79422D01*
X30903Y-80289D01*
X30485Y-81299D01*
X30342Y-82382D01*
Y-83161D01*
X34528D01*
X38713D01*
Y-82382D01*
X38570Y-81299D01*
X38152Y-80289D01*
X37487Y-79422D01*
X36620Y-78757D01*
X36032Y-78514D01*
X36132Y-78014D01*
X38704D01*
X40936Y-80246D01*
Y-80974D01*
X40916Y-80978D01*
X40294Y-81394D01*
X39878Y-82016D01*
X39732Y-82750D01*
X39878Y-83484D01*
X40294Y-84106D01*
X40916Y-84522D01*
X41650Y-84668D01*
X42384Y-84522D01*
X43006Y-84106D01*
X43422Y-83484D01*
X43568Y-82750D01*
X43422Y-82016D01*
X43006Y-81394D01*
X42384Y-80978D01*
X42364Y-80974D01*
Y-79950D01*
X42309Y-79677D01*
X42155Y-79445D01*
X39505Y-76795D01*
X39273Y-76641D01*
X39000Y-76586D01*
D02*
G37*
G36*
X-34528Y-78499D02*
X-35533Y-78631D01*
X-36469Y-79019D01*
X-37273Y-79636D01*
X-37890Y-80440D01*
X-38278Y-81377D01*
X-38410Y-82382D01*
Y-82948D01*
X-40461D01*
X-40734Y-83002D01*
X-40966Y-83157D01*
X-42699Y-84890D01*
X-42716Y-84878D01*
X-43229Y-84776D01*
X-43479Y-84293D01*
X-43482Y-84255D01*
X-43345Y-84051D01*
X-43276Y-83700D01*
X-47524D01*
X-47455Y-84051D01*
X-46973Y-84772D01*
X-46251Y-85255D01*
X-45483Y-85407D01*
X-45178Y-85851D01*
X-45222Y-85916D01*
X-45368Y-86650D01*
X-45222Y-87384D01*
X-44806Y-88006D01*
X-44184Y-88422D01*
X-43450Y-88568D01*
X-42716Y-88422D01*
X-42094Y-88006D01*
X-41678Y-87384D01*
X-41532Y-86650D01*
X-41678Y-85916D01*
X-41690Y-85899D01*
X-40166Y-84375D01*
X-38410D01*
Y-84941D01*
X-38278Y-85946D01*
X-37890Y-86882D01*
X-37273Y-87687D01*
X-36469Y-88304D01*
X-35533Y-88692D01*
X-34528Y-88824D01*
X-33523Y-88692D01*
X-32586Y-88304D01*
X-31782Y-87687D01*
X-31165Y-86882D01*
X-30777Y-85946D01*
X-30645Y-84941D01*
Y-82382D01*
X-30777Y-81377D01*
X-31165Y-80440D01*
X-31782Y-79636D01*
X-32586Y-79019D01*
X-33523Y-78631D01*
X-34528Y-78499D01*
D02*
G37*
G36*
X40900Y-73836D02*
X8450D01*
X8177Y-73891D01*
X7945Y-74045D01*
X4338Y-77653D01*
X4183Y-77884D01*
X4129Y-78158D01*
Y-78593D01*
X3838Y-78631D01*
X2901Y-79019D01*
X2097Y-79636D01*
X1480Y-80440D01*
X1092Y-81377D01*
X960Y-82382D01*
Y-84941D01*
X1092Y-85946D01*
X1480Y-86882D01*
X2097Y-87687D01*
X2901Y-88304D01*
X3838Y-88692D01*
X4843Y-88824D01*
X5847Y-88692D01*
X6784Y-88304D01*
X7588Y-87687D01*
X8205Y-86882D01*
X8593Y-85946D01*
X8725Y-84941D01*
Y-82382D01*
X8593Y-81377D01*
X8205Y-80440D01*
X7588Y-79636D01*
X6784Y-79019D01*
X6016Y-78701D01*
X5870Y-78261D01*
X5878Y-78131D01*
X8746Y-75264D01*
X40604D01*
X44786Y-79446D01*
Y-83924D01*
X44766Y-83928D01*
X44144Y-84344D01*
X43728Y-84966D01*
X43582Y-85700D01*
X43728Y-86434D01*
X44144Y-87056D01*
X44766Y-87472D01*
X45500Y-87618D01*
X46234Y-87472D01*
X46856Y-87056D01*
X47272Y-86434D01*
X47418Y-85700D01*
X47272Y-84966D01*
X46856Y-84344D01*
X46234Y-83928D01*
X46214Y-83924D01*
Y-79150D01*
X46159Y-78877D01*
X46005Y-78645D01*
X41405Y-74045D01*
X41173Y-73891D01*
X40900Y-73836D01*
D02*
G37*
G36*
X43550Y-68659D02*
X43550Y-68659D01*
X-42450D01*
X-42833Y-68817D01*
X-42833Y-68817D01*
X-54724Y-80709D01*
X-64940D01*
X-64978Y-80516D01*
X-65394Y-79894D01*
X-66016Y-79478D01*
X-66750Y-79332D01*
X-67484Y-79478D01*
X-68106Y-79894D01*
X-68522Y-80516D01*
X-68668Y-81250D01*
X-68522Y-81984D01*
X-68106Y-82606D01*
X-67484Y-83022D01*
X-66750Y-83168D01*
X-66016Y-83022D01*
X-65394Y-82606D01*
X-64978Y-81984D01*
X-64940Y-81791D01*
X-54500D01*
X-54500Y-81791D01*
X-54117Y-81633D01*
X-42226Y-69741D01*
X-41698D01*
X-41599Y-70241D01*
X-41783Y-70317D01*
Y-70317D01*
X-53983Y-82517D01*
X-54141Y-82900D01*
X-54141Y-82900D01*
Y-84840D01*
X-54334Y-84878D01*
X-54956Y-85294D01*
X-55372Y-85916D01*
X-55473Y-86422D01*
X-55649Y-86496D01*
X-56000Y-86426D01*
Y-88550D01*
Y-90674D01*
X-55649Y-90605D01*
X-54927Y-90122D01*
X-54445Y-89401D01*
X-54351Y-88928D01*
X-53810Y-88526D01*
X-53600Y-88568D01*
X-52866Y-88422D01*
X-52244Y-88006D01*
X-51828Y-87384D01*
X-51682Y-86650D01*
X-51828Y-85916D01*
X-52244Y-85294D01*
X-52866Y-84878D01*
X-53059Y-84840D01*
Y-83124D01*
X-41176Y-71241D01*
X-40228D01*
X-40150Y-71709D01*
X-40533Y-71867D01*
X-40533Y-71867D01*
X-49633Y-80967D01*
X-49791Y-81350D01*
X-49791Y-81350D01*
Y-84840D01*
X-49984Y-84878D01*
X-50606Y-85294D01*
X-51022Y-85916D01*
X-51168Y-86650D01*
X-51022Y-87384D01*
X-50606Y-88006D01*
X-49984Y-88422D01*
X-49250Y-88568D01*
X-48516Y-88422D01*
X-47894Y-88006D01*
X-47478Y-87384D01*
X-47332Y-86650D01*
X-47478Y-85916D01*
X-47894Y-85294D01*
X-48516Y-84878D01*
X-48709Y-84840D01*
Y-81574D01*
X-39926Y-72791D01*
X41826D01*
X53217Y-84183D01*
X53217Y-84183D01*
X53600Y-84341D01*
X53600Y-84341D01*
X72326D01*
X73087Y-85103D01*
X72978Y-85266D01*
X72832Y-86000D01*
X72978Y-86734D01*
X73394Y-87356D01*
X74016Y-87772D01*
X74750Y-87918D01*
X75484Y-87772D01*
X76106Y-87356D01*
X76522Y-86734D01*
X76668Y-86000D01*
X76522Y-85266D01*
X76106Y-84644D01*
X75732Y-84394D01*
Y-83806D01*
X76106Y-83556D01*
X76522Y-82934D01*
X76668Y-82200D01*
X76522Y-81466D01*
X76106Y-80844D01*
X75732Y-80594D01*
Y-80006D01*
X76106Y-79756D01*
X76522Y-79134D01*
X76668Y-78400D01*
X76522Y-77666D01*
X76106Y-77044D01*
X75484Y-76628D01*
X74750Y-76482D01*
X74016Y-76628D01*
X73394Y-77044D01*
X72978Y-77666D01*
X72832Y-78400D01*
X72978Y-79134D01*
X73087Y-79297D01*
X72326Y-80059D01*
X55174D01*
X43933Y-68817D01*
X43550Y-68659D01*
D02*
G37*
G36*
X-57000Y-86426D02*
X-57351Y-86496D01*
X-58073Y-86977D01*
X-58555Y-87699D01*
X-58624Y-88050D01*
X-57000D01*
Y-86426D01*
D02*
G37*
G36*
X-16950Y-76036D02*
X-39250D01*
X-39523Y-76091D01*
X-39755Y-76245D01*
X-41549Y-78039D01*
X-41566Y-78028D01*
X-42300Y-77882D01*
X-43034Y-78028D01*
X-43656Y-78444D01*
X-44072Y-79066D01*
X-44218Y-79800D01*
X-44072Y-80534D01*
X-43656Y-81156D01*
X-43953Y-81544D01*
X-44549Y-81146D01*
X-44900Y-81076D01*
Y-82700D01*
X-43276D01*
X-43345Y-82349D01*
X-43646Y-81900D01*
X-43828Y-81628D01*
X-43531Y-81240D01*
X-43034Y-81572D01*
X-42300Y-81718D01*
X-41566Y-81572D01*
X-40944Y-81156D01*
X-40528Y-80534D01*
X-40382Y-79800D01*
X-40528Y-79066D01*
X-40540Y-79049D01*
X-38954Y-77464D01*
X-17246D01*
X-16329Y-78381D01*
X-16426Y-78871D01*
X-16784Y-79019D01*
X-17588Y-79636D01*
X-18205Y-80440D01*
X-18593Y-81377D01*
X-18725Y-82382D01*
Y-84941D01*
X-18593Y-85946D01*
X-18205Y-86882D01*
X-17588Y-87687D01*
X-16784Y-88304D01*
X-15847Y-88692D01*
X-14842Y-88824D01*
X-13838Y-88692D01*
X-12901Y-88304D01*
X-12097Y-87687D01*
X-11480Y-86882D01*
X-11092Y-85946D01*
X-10960Y-84941D01*
Y-82382D01*
X-11092Y-81377D01*
X-11480Y-80440D01*
X-12097Y-79636D01*
X-12901Y-79019D01*
X-13838Y-78631D01*
X-14183Y-78586D01*
X-14183Y-78584D01*
X-14338Y-78353D01*
X-16445Y-76245D01*
X-16677Y-76091D01*
X-16950Y-76036D01*
D02*
G37*
G36*
X34028Y-84161D02*
X30342D01*
Y-84941D01*
X30485Y-86024D01*
X30903Y-87034D01*
X31568Y-87901D01*
X32435Y-88566D01*
X33444Y-88984D01*
X34028Y-89060D01*
Y-84161D01*
D02*
G37*
G36*
X14343D02*
X10657D01*
Y-84941D01*
X10800Y-86024D01*
X11218Y-87034D01*
X11883Y-87901D01*
X12750Y-88566D01*
X13759Y-88984D01*
X14343Y-89060D01*
Y-84161D01*
D02*
G37*
G36*
X-5342D02*
X-9028D01*
Y-84941D01*
X-8885Y-86024D01*
X-8467Y-87034D01*
X-7802Y-87901D01*
X-6935Y-88566D01*
X-5926Y-88984D01*
X-5342Y-89060D01*
Y-84161D01*
D02*
G37*
G36*
X-25028D02*
X-28713D01*
Y-84941D01*
X-28570Y-86024D01*
X-28152Y-87034D01*
X-27487Y-87901D01*
X-26620Y-88566D01*
X-25611Y-88984D01*
X-25028Y-89060D01*
Y-84161D01*
D02*
G37*
G36*
X38713D02*
X35028D01*
Y-89060D01*
X35611Y-88984D01*
X36620Y-88566D01*
X37487Y-87901D01*
X38152Y-87034D01*
X38570Y-86024D01*
X38713Y-84941D01*
Y-84161D01*
D02*
G37*
G36*
X19028D02*
X15342D01*
Y-89060D01*
X15926Y-88984D01*
X16935Y-88566D01*
X17802Y-87901D01*
X18467Y-87034D01*
X18885Y-86024D01*
X19028Y-84941D01*
Y-84161D01*
D02*
G37*
G36*
X-657D02*
X-4343D01*
Y-89060D01*
X-3759Y-88984D01*
X-2750Y-88566D01*
X-1883Y-87901D01*
X-1218Y-87034D01*
X-800Y-86024D01*
X-657Y-84941D01*
Y-84161D01*
D02*
G37*
G36*
X-20342D02*
X-24028D01*
Y-89060D01*
X-23444Y-88984D01*
X-22435Y-88566D01*
X-21568Y-87901D01*
X-20903Y-87034D01*
X-20485Y-86024D01*
X-20342Y-84941D01*
Y-84161D01*
D02*
G37*
G36*
X-57000Y-89050D02*
X-58624D01*
X-58555Y-89401D01*
X-58073Y-90122D01*
X-57351Y-90605D01*
X-57000Y-90674D01*
Y-89050D01*
D02*
G37*
G36*
X-106299Y-88538D02*
X-107330Y-88673D01*
X-108290Y-89071D01*
X-109115Y-89704D01*
X-109748Y-90529D01*
X-109966Y-91054D01*
X-110507D01*
X-110725Y-90529D01*
X-111357Y-89704D01*
X-112182Y-89071D01*
X-113143Y-88673D01*
X-114173Y-88538D01*
X-115204Y-88673D01*
X-116164Y-89071D01*
X-116989Y-89704D01*
X-117622Y-90529D01*
X-118020Y-91489D01*
X-118155Y-92520D01*
X-118020Y-93550D01*
X-117622Y-94511D01*
X-116989Y-95336D01*
X-116896Y-95407D01*
Y-96925D01*
X-116804Y-97630D01*
X-116532Y-98287D01*
X-116099Y-98851D01*
X-113323Y-101626D01*
X-112759Y-102059D01*
X-112366Y-102222D01*
Y-107653D01*
X-112293Y-108024D01*
X-112083Y-108338D01*
X-109752Y-110669D01*
X-109438Y-110879D01*
X-109067Y-110953D01*
X-104361D01*
X-104008Y-111306D01*
X-104008Y-111784D01*
X-104008Y-112284D01*
Y-115524D01*
X-101249D01*
Y-119546D01*
X-103376D01*
Y-126654D01*
X-98039D01*
Y-121197D01*
X-96534Y-119691D01*
X-95896D01*
Y-126654D01*
X-90559D01*
Y-121197D01*
X-90553Y-121191D01*
X-78300D01*
X-78300Y-121191D01*
X-77917Y-121033D01*
X-74417Y-117533D01*
X-74417Y-117533D01*
X-74259Y-117150D01*
X-74259Y-117150D01*
Y-108878D01*
X-73865Y-108568D01*
X-73784Y-108622D01*
X-73050Y-108768D01*
X-72316Y-108622D01*
X-71694Y-108206D01*
X-71278Y-107584D01*
X-71132Y-106850D01*
X-71278Y-106116D01*
X-71694Y-105494D01*
X-72316Y-105078D01*
X-73050Y-104932D01*
X-73784Y-105078D01*
X-74406Y-105494D01*
X-74822Y-106116D01*
X-74968Y-106850D01*
X-74822Y-107584D01*
X-74713Y-107747D01*
X-75183Y-108217D01*
X-75259Y-108401D01*
X-75759Y-108302D01*
Y-104574D01*
X-74397Y-103213D01*
X-73768Y-103290D01*
X-73556Y-103606D01*
X-72934Y-104022D01*
X-72200Y-104168D01*
X-71466Y-104022D01*
X-70844Y-103606D01*
X-70428Y-102984D01*
X-70282Y-102250D01*
X-70428Y-101516D01*
X-70844Y-100894D01*
X-71466Y-100478D01*
X-72200Y-100332D01*
X-72934Y-100478D01*
X-73556Y-100894D01*
X-73972Y-101516D01*
X-74200Y-101709D01*
X-74583Y-101867D01*
X-76683Y-103967D01*
X-76841Y-104350D01*
X-76841Y-104350D01*
Y-116176D01*
X-79274Y-118609D01*
X-96758D01*
X-97141Y-118767D01*
X-97141Y-118767D01*
X-97658Y-119285D01*
X-98039Y-119546D01*
Y-119546D01*
X-98039Y-119546D01*
X-100167D01*
Y-115524D01*
X-97408D01*
Y-112284D01*
X-97408Y-111924D01*
X-97408Y-111424D01*
Y-108344D01*
X-97108D01*
Y-106744D01*
X-104308D01*
Y-108344D01*
X-104008D01*
Y-109016D01*
X-108666D01*
X-110429Y-107252D01*
Y-102424D01*
X-90480D01*
X-89776Y-102331D01*
X-89119Y-102059D01*
X-88555Y-101626D01*
X-83751Y-96823D01*
X-72328D01*
X-67823Y-101328D01*
Y-113000D01*
X-67730Y-113705D01*
X-67458Y-114362D01*
X-67026Y-114926D01*
X-49926Y-132026D01*
X-49362Y-132458D01*
X-48705Y-132730D01*
X-48000Y-132823D01*
X-5794D01*
X-5642Y-133323D01*
X-6173Y-133677D01*
X-6655Y-134399D01*
X-6724Y-134750D01*
X-2476D01*
X-2545Y-134399D01*
X-3028Y-133677D01*
X-3558Y-133323D01*
X-3406Y-132823D01*
X18750D01*
X19455Y-132730D01*
X20112Y-132458D01*
X20676Y-132026D01*
X21108Y-131462D01*
X21381Y-130805D01*
X21473Y-130100D01*
X21381Y-129395D01*
X21108Y-128738D01*
X20676Y-128174D01*
X20112Y-127742D01*
X19455Y-127470D01*
X18750Y-127377D01*
X-46872D01*
X-62377Y-111872D01*
Y-100200D01*
X-62470Y-99495D01*
X-62742Y-98838D01*
X-63174Y-98274D01*
X-64163Y-97285D01*
X-63972Y-96823D01*
X-25629D01*
X-24966Y-97332D01*
X-24066Y-97705D01*
X-23100Y-97832D01*
X-22134Y-97705D01*
X-21234Y-97332D01*
X-20461Y-96739D01*
X-19868Y-95966D01*
X-19602Y-95323D01*
X22800D01*
X23268Y-95230D01*
X23665Y-94965D01*
X25907Y-92724D01*
X68043D01*
X72763Y-97443D01*
X72732Y-97600D01*
X72878Y-98334D01*
X73294Y-98956D01*
X73916Y-99372D01*
X74650Y-99518D01*
X75384Y-99372D01*
X76006Y-98956D01*
X76422Y-98334D01*
X76568Y-97600D01*
X76422Y-96866D01*
X76006Y-96244D01*
X75384Y-95828D01*
X74650Y-95682D01*
X74493Y-95713D01*
X69415Y-90635D01*
X69018Y-90370D01*
X68550Y-90276D01*
X25400D01*
X24932Y-90370D01*
X24535Y-90635D01*
X22293Y-92876D01*
X-19602D01*
X-19868Y-92234D01*
X-20461Y-91461D01*
X-21234Y-90868D01*
X-22134Y-90495D01*
X-23100Y-90368D01*
X-24066Y-90495D01*
X-24966Y-90868D01*
X-25629Y-91377D01*
X-84879D01*
X-85584Y-91470D01*
X-86241Y-91742D01*
X-86805Y-92174D01*
X-91608Y-96978D01*
X-106016D01*
X-106083Y-96952D01*
X-106114Y-96478D01*
X-106001Y-96463D01*
X-105269Y-96366D01*
X-104308Y-95968D01*
X-103483Y-95336D01*
X-102851Y-94511D01*
X-102453Y-93550D01*
X-102317Y-92520D01*
X-102453Y-91489D01*
X-102851Y-90529D01*
X-103483Y-89704D01*
X-104308Y-89071D01*
X-105269Y-88673D01*
X-106299Y-88538D01*
D02*
G37*
G36*
X61264Y-96285D02*
X58303D01*
Y-100328D01*
X61264D01*
Y-96285D01*
D02*
G37*
G36*
X57303D02*
X54343D01*
Y-100328D01*
X57303D01*
Y-96285D01*
D02*
G37*
G36*
X124921Y-97330D02*
X124187Y-97476D01*
X123565Y-97892D01*
X123149Y-98514D01*
X123003Y-99248D01*
X123149Y-99982D01*
X123191Y-100044D01*
X122878Y-100447D01*
X97936D01*
X97898Y-100254D01*
X97482Y-99632D01*
X96860Y-99216D01*
X96126Y-99070D01*
X95392Y-99216D01*
X94770Y-99632D01*
X94354Y-100254D01*
X94208Y-100988D01*
X94354Y-101722D01*
X94770Y-102344D01*
X95392Y-102760D01*
X96126Y-102906D01*
X96860Y-102760D01*
X97482Y-102344D01*
X97898Y-101722D01*
X97936Y-101529D01*
X123181D01*
X123181Y-101529D01*
X123564Y-101371D01*
X124024Y-100911D01*
X124187Y-101020D01*
X124921Y-101166D01*
X125655Y-101020D01*
X126277Y-100604D01*
X126693Y-99982D01*
X126839Y-99248D01*
X126693Y-98514D01*
X126277Y-97892D01*
X125655Y-97476D01*
X124921Y-97330D01*
D02*
G37*
G36*
X30205Y-99508D02*
Y-102961D01*
X32673D01*
Y-99508D01*
X30205D01*
D02*
G37*
G36*
X71228Y-101679D02*
X67835D01*
Y-104187D01*
X71228D01*
Y-101679D01*
D02*
G37*
G36*
X66835D02*
X63441D01*
Y-104187D01*
X66835D01*
Y-101679D01*
D02*
G37*
G36*
X61264Y-101328D02*
X58303D01*
Y-105372D01*
X61264D01*
Y-101328D01*
D02*
G37*
G36*
X57303D02*
X54343D01*
Y-105372D01*
X57303D01*
Y-101328D01*
D02*
G37*
G36*
X-97108Y-104144D02*
X-100208D01*
Y-105744D01*
X-97108D01*
Y-104144D01*
D02*
G37*
G36*
X-101208D02*
X-104308D01*
Y-105744D01*
X-101208D01*
Y-104144D01*
D02*
G37*
G36*
X-77630Y-104339D02*
X-81024D01*
Y-106846D01*
X-77630D01*
Y-104339D01*
D02*
G37*
G36*
X-86100Y-102626D02*
Y-104750D01*
Y-106874D01*
X-85917Y-106838D01*
X-85903Y-106846D01*
X-82024D01*
Y-104339D01*
X-84458D01*
X-84545Y-103899D01*
X-85027Y-103177D01*
X-85749Y-102696D01*
X-86100Y-102626D01*
D02*
G37*
G36*
X-87100D02*
X-87451Y-102696D01*
X-88173Y-103177D01*
X-88655Y-103899D01*
X-88763Y-104444D01*
X-94608D01*
Y-108044D01*
X-88008D01*
Y-106963D01*
X-87567Y-106727D01*
X-87451Y-106805D01*
X-87100Y-106874D01*
Y-104750D01*
Y-102626D01*
D02*
G37*
G36*
X20562Y-99808D02*
X15225D01*
Y-107113D01*
X20562D01*
Y-99808D01*
D02*
G37*
G36*
X14657D02*
X9320D01*
Y-107113D01*
X14657D01*
Y-99808D01*
D02*
G37*
G36*
X8751D02*
X3414D01*
Y-107113D01*
X8751D01*
Y-99808D01*
D02*
G37*
G36*
X2846D02*
X-2491D01*
Y-107113D01*
X2846D01*
Y-99808D01*
D02*
G37*
G36*
X-3060D02*
X-8397D01*
Y-107113D01*
X-3060D01*
Y-99808D01*
D02*
G37*
G36*
X-8965D02*
X-14302D01*
Y-107113D01*
X-8965D01*
Y-99808D01*
D02*
G37*
G36*
X-14871D02*
X-20208D01*
Y-107113D01*
X-14871D01*
Y-99808D01*
D02*
G37*
G36*
X-20776D02*
X-26113D01*
Y-107113D01*
X-20776D01*
Y-99808D01*
D02*
G37*
G36*
X-26682D02*
X-32019D01*
Y-107113D01*
X-26682D01*
Y-99808D01*
D02*
G37*
G36*
X71228Y-105187D02*
X67835D01*
Y-107694D01*
X71228D01*
Y-105187D01*
D02*
G37*
G36*
X66835D02*
X63441D01*
Y-107694D01*
X66835D01*
Y-105187D01*
D02*
G37*
G36*
X-59150Y-97582D02*
X-59884Y-97728D01*
X-60506Y-98144D01*
X-60922Y-98766D01*
X-61068Y-99500D01*
X-60922Y-100234D01*
X-60506Y-100856D01*
X-59884Y-101272D01*
X-59150Y-101418D01*
X-58735Y-101335D01*
X-58434Y-101785D01*
X-58722Y-102216D01*
X-58868Y-102950D01*
X-58722Y-103684D01*
X-58306Y-104306D01*
X-57953Y-104542D01*
X-58059Y-105073D01*
X-58084Y-105078D01*
X-58706Y-105494D01*
X-59122Y-106116D01*
X-59268Y-106850D01*
X-59122Y-107584D01*
X-58706Y-108206D01*
X-58084Y-108622D01*
X-57350Y-108768D01*
X-56616Y-108622D01*
X-55994Y-108206D01*
X-55872Y-108024D01*
X-54307D01*
X-47265Y-115065D01*
X-46868Y-115330D01*
X-46400Y-115424D01*
X18723D01*
X18794Y-115529D01*
X19416Y-115945D01*
X20150Y-116091D01*
X20884Y-115945D01*
X21506Y-115529D01*
X21922Y-114907D01*
X22068Y-114173D01*
X21922Y-113439D01*
X21506Y-112817D01*
X20884Y-112401D01*
X20150Y-112255D01*
X19416Y-112401D01*
X18794Y-112817D01*
X18687Y-112977D01*
X-45893D01*
X-52935Y-105935D01*
X-53332Y-105670D01*
X-53800Y-105577D01*
X-55939D01*
X-55994Y-105494D01*
X-56347Y-105258D01*
X-56241Y-104727D01*
X-56216Y-104722D01*
X-55594Y-104306D01*
X-55178Y-103684D01*
X-55140Y-103491D01*
X-49474D01*
X-43883Y-109083D01*
X-43883Y-109083D01*
X-43500Y-109241D01*
X-43500Y-109241D01*
X-36450D01*
X-36450Y-109241D01*
X-36067Y-109083D01*
X-34873Y-107889D01*
X-34873D01*
X-34715Y-107506D01*
X-34454Y-107113D01*
X-32587D01*
Y-99808D01*
X-37924D01*
Y-107113D01*
X-36336D01*
X-36129Y-107613D01*
X-36674Y-108159D01*
X-43276D01*
X-43821Y-107613D01*
X-43614Y-107113D01*
X-43419Y-107113D01*
X-38493D01*
Y-99808D01*
X-43830D01*
X-43830Y-99808D01*
Y-99808D01*
X-44249Y-99608D01*
X-44739Y-99117D01*
X-45122Y-98959D01*
X-45122Y-98959D01*
X-57340D01*
X-57378Y-98766D01*
X-57794Y-98144D01*
X-58416Y-97728D01*
X-59150Y-97582D01*
D02*
G37*
G36*
X79114Y-75932D02*
X78380Y-76078D01*
X77758Y-76494D01*
X77342Y-77116D01*
X77196Y-77850D01*
X77342Y-78584D01*
X77758Y-79206D01*
X77877Y-79285D01*
Y-106543D01*
X74579Y-109841D01*
X70928D01*
Y-108357D01*
X63741D01*
Y-109841D01*
X60964D01*
Y-106821D01*
X54642D01*
Y-109865D01*
X50379D01*
X47952Y-107438D01*
Y-99347D01*
X47859Y-98878D01*
X47594Y-98481D01*
X44645Y-95533D01*
X44248Y-95267D01*
X43780Y-95174D01*
X26685D01*
X26217Y-95267D01*
X25820Y-95533D01*
X22934Y-98418D01*
X22669Y-98815D01*
X22576Y-99283D01*
Y-99808D01*
X21131D01*
Y-107113D01*
X26360Y-107113D01*
X26736Y-107413D01*
X26844Y-107413D01*
X29205D01*
Y-103461D01*
Y-99508D01*
X26736Y-99508D01*
X26360Y-99808D01*
X26236Y-99808D01*
X25712D01*
X25505Y-99308D01*
X27192Y-97621D01*
X43273D01*
X45505Y-99853D01*
Y-107945D01*
X45598Y-108413D01*
X45863Y-108810D01*
X49007Y-111954D01*
X49404Y-112219D01*
X49872Y-112312D01*
X54642D01*
Y-115308D01*
X56580D01*
Y-116591D01*
X53953D01*
Y-126613D01*
X61653D01*
Y-116591D01*
X59027D01*
Y-115308D01*
X60964D01*
Y-112288D01*
X63741D01*
Y-113772D01*
X70928D01*
Y-112288D01*
X75085D01*
X75554Y-112195D01*
X75951Y-111930D01*
X79965Y-107915D01*
X80230Y-107518D01*
X80323Y-107050D01*
Y-79304D01*
X80470Y-79206D01*
X80886Y-78584D01*
X81032Y-77850D01*
X80886Y-77116D01*
X80470Y-76494D01*
X79848Y-76078D01*
X79114Y-75932D01*
D02*
G37*
G36*
X-77630Y-107846D02*
X-81024D01*
Y-110354D01*
X-77630D01*
Y-107846D01*
D02*
G37*
G36*
X-82024D02*
X-85417D01*
Y-110354D01*
X-82024D01*
Y-107846D01*
D02*
G37*
G36*
X32673Y-103961D02*
X30205D01*
Y-107413D01*
X32442D01*
X32673Y-107413D01*
X32942Y-107802D01*
Y-111050D01*
X40247D01*
Y-105713D01*
X33173D01*
X32942Y-105713D01*
X32673Y-105325D01*
Y-103961D01*
D02*
G37*
G36*
X-77930Y-111016D02*
X-85117D01*
Y-113183D01*
X-88008D01*
Y-111924D01*
X-94608D01*
Y-115524D01*
X-88008D01*
Y-114266D01*
X-85117D01*
Y-116432D01*
X-77930D01*
Y-111016D01*
D02*
G37*
G36*
X40247Y-111619D02*
X32942D01*
Y-116956D01*
X40247D01*
Y-111619D01*
D02*
G37*
G36*
X-23950Y-120626D02*
Y-122250D01*
X-22326D01*
X-22395Y-121899D01*
X-22877Y-121177D01*
X-23599Y-120695D01*
X-23950Y-120626D01*
D02*
G37*
G36*
X-24950D02*
X-25301Y-120695D01*
X-26022Y-121177D01*
X-26505Y-121899D01*
X-26574Y-122250D01*
X-24950D01*
Y-120626D01*
D02*
G37*
G36*
X40247Y-117524D02*
X32942D01*
Y-122861D01*
X40247D01*
Y-117524D01*
D02*
G37*
G36*
X-22326Y-123250D02*
X-23950D01*
Y-124874D01*
X-23599Y-124804D01*
X-22877Y-124322D01*
X-22395Y-123601D01*
X-22326Y-123250D01*
D02*
G37*
G36*
X-24950D02*
X-26574D01*
X-26505Y-123601D01*
X-26022Y-124322D01*
X-25301Y-124804D01*
X-24950Y-124874D01*
Y-123250D01*
D02*
G37*
G36*
X40247Y-123430D02*
X32942D01*
Y-128767D01*
X40247D01*
Y-123430D01*
D02*
G37*
G36*
Y-129335D02*
X32942D01*
Y-134672D01*
X40247D01*
Y-129335D01*
D02*
G37*
G36*
X-2476Y-135750D02*
X-4100D01*
Y-137374D01*
X-3749Y-137304D01*
X-3028Y-136822D01*
X-2545Y-136101D01*
X-2476Y-135750D01*
D02*
G37*
G36*
X-5100D02*
X-6724D01*
X-6655Y-136101D01*
X-6173Y-136822D01*
X-5451Y-137304D01*
X-5100Y-137374D01*
Y-135750D01*
D02*
G37*
G36*
X40247Y-135241D02*
X32942D01*
Y-140578D01*
X40247D01*
Y-135241D01*
D02*
G37*
G36*
X-42250Y-136882D02*
X-42984Y-137028D01*
X-43606Y-137444D01*
X-44022Y-138066D01*
X-44168Y-138800D01*
X-44022Y-139534D01*
X-43606Y-140156D01*
X-42984Y-140572D01*
X-42250Y-140718D01*
X-41516Y-140572D01*
X-40894Y-140156D01*
X-40478Y-139534D01*
X-40440Y-139341D01*
X-32424D01*
X-31383Y-140383D01*
X-31383Y-140383D01*
X-31000Y-140541D01*
X-31000Y-140541D01*
X-23464D01*
X-23425Y-140734D01*
X-23010Y-141356D01*
X-22387Y-141772D01*
X-21654Y-141918D01*
X-20920Y-141772D01*
X-20297Y-141356D01*
X-19882Y-140734D01*
X-19736Y-140000D01*
X-19882Y-139266D01*
X-20297Y-138644D01*
X-20920Y-138228D01*
X-21654Y-138082D01*
X-22387Y-138228D01*
X-23010Y-138644D01*
X-23425Y-139266D01*
X-23464Y-139459D01*
X-30776D01*
X-31817Y-138417D01*
X-32200Y-138259D01*
X-32200Y-138259D01*
X-40440D01*
X-40478Y-138066D01*
X-40894Y-137444D01*
X-41516Y-137028D01*
X-42250Y-136882D01*
D02*
G37*
G36*
X-4400Y-145376D02*
Y-147000D01*
X-2776D01*
X-2845Y-146649D01*
X-3328Y-145928D01*
X-4049Y-145446D01*
X-4400Y-145376D01*
D02*
G37*
G36*
X-5400D02*
X-5751Y-145446D01*
X-6472Y-145928D01*
X-6955Y-146649D01*
X-7024Y-147000D01*
X-5400D01*
Y-145376D01*
D02*
G37*
G36*
X40247Y-141147D02*
X32942D01*
X32942Y-146376D01*
X32642Y-146752D01*
X32642Y-146859D01*
Y-149221D01*
X36595D01*
X40547D01*
X40547Y-146752D01*
X40247Y-146376D01*
X40247Y-146252D01*
Y-141147D01*
D02*
G37*
G36*
X-2776Y-148000D02*
X-4400D01*
Y-149624D01*
X-4049Y-149555D01*
X-3328Y-149073D01*
X-2845Y-148351D01*
X-2776Y-148000D01*
D02*
G37*
G36*
X-5400D02*
X-7024D01*
X-6955Y-148351D01*
X-6472Y-149073D01*
X-5751Y-149555D01*
X-5400Y-149624D01*
Y-148000D01*
D02*
G37*
G36*
X-143000Y-78351D02*
X-144488Y-78547D01*
X-145875Y-79121D01*
X-147065Y-80035D01*
X-147979Y-81225D01*
X-148553Y-82612D01*
X-148749Y-84100D01*
X-148553Y-85588D01*
X-147979Y-86975D01*
X-147065Y-88165D01*
X-145875Y-89079D01*
X-145723Y-89142D01*
Y-98350D01*
X-145631Y-99055D01*
X-145358Y-99712D01*
X-144926Y-100276D01*
X-109126Y-136076D01*
X-108562Y-136508D01*
X-107905Y-136781D01*
X-107200Y-136873D01*
X-70428D01*
X-57926Y-149376D01*
X-57362Y-149808D01*
X-56705Y-150081D01*
X-56000Y-150173D01*
X-22650D01*
X-21945Y-150081D01*
X-21288Y-149808D01*
X-20724Y-149376D01*
X-20292Y-148812D01*
X-20019Y-148155D01*
X-19927Y-147450D01*
X-20019Y-146745D01*
X-20292Y-146088D01*
X-20724Y-145524D01*
X-21288Y-145092D01*
X-21945Y-144819D01*
X-22650Y-144727D01*
X-54872D01*
X-67374Y-132224D01*
X-67938Y-131792D01*
X-68595Y-131519D01*
X-69300Y-131427D01*
X-106072D01*
X-140277Y-97222D01*
Y-89142D01*
X-140125Y-89079D01*
X-138935Y-88165D01*
X-138021Y-86975D01*
X-137447Y-85588D01*
X-137251Y-84100D01*
X-137447Y-82612D01*
X-138021Y-81225D01*
X-138935Y-80035D01*
X-140125Y-79121D01*
X-141512Y-78547D01*
X-143000Y-78351D01*
D02*
G37*
G36*
X36094Y-150221D02*
X32642D01*
Y-150689D01*
X30205D01*
Y-154142D01*
X32673D01*
Y-152689D01*
X36094D01*
Y-150221D01*
D02*
G37*
G36*
X40547D02*
X37095D01*
Y-152689D01*
X40547D01*
Y-150221D01*
D02*
G37*
G36*
X14657Y-150989D02*
X9320D01*
Y-158294D01*
X14657D01*
Y-150989D01*
D02*
G37*
G36*
X2846D02*
X-2491D01*
Y-158294D01*
X2846D01*
Y-150989D01*
D02*
G37*
G36*
X-3060D02*
X-8397D01*
Y-158294D01*
X-3060D01*
Y-150989D01*
D02*
G37*
G36*
X-8965D02*
X-14302D01*
Y-158294D01*
X-8965D01*
Y-150989D01*
D02*
G37*
G36*
X-14871D02*
X-20208D01*
Y-158294D01*
X-14871D01*
Y-150989D01*
D02*
G37*
G36*
X-20776D02*
X-26113D01*
Y-158294D01*
X-20776D01*
Y-150989D01*
D02*
G37*
G36*
X-26682D02*
X-32019D01*
Y-158294D01*
X-26682D01*
Y-150989D01*
D02*
G37*
G36*
X-32587D02*
X-37924D01*
Y-158294D01*
X-32587D01*
Y-150989D01*
D02*
G37*
G36*
X-38493D02*
X-43830D01*
Y-158294D01*
X-38493D01*
Y-150989D01*
D02*
G37*
G36*
X8751D02*
X3414D01*
Y-158294D01*
X4293D01*
X4484Y-158756D01*
X3179Y-160062D01*
X-626D01*
X-899Y-160116D01*
X-1130Y-160271D01*
X-4245Y-163385D01*
X-4248Y-163391D01*
X-6409D01*
Y-166231D01*
X-9339D01*
Y-163391D01*
X-14676D01*
Y-170499D01*
X-9339D01*
Y-167659D01*
X-6409D01*
Y-170499D01*
X-1072D01*
Y-163391D01*
X-1578D01*
X-1769Y-162929D01*
X-330Y-161489D01*
X3474D01*
X3748Y-161435D01*
X3979Y-161280D01*
X6587Y-158672D01*
X6742Y-158440D01*
X6771Y-158294D01*
X8751D01*
Y-150989D01*
D02*
G37*
G36*
X-16520Y-163091D02*
X-18988D01*
Y-166445D01*
X-16520D01*
Y-163091D01*
D02*
G37*
G36*
X-19988D02*
X-22457D01*
Y-166445D01*
X-19988D01*
Y-163091D01*
D02*
G37*
G36*
X-94050Y-141682D02*
X-94784Y-141828D01*
X-95406Y-142244D01*
X-95822Y-142866D01*
X-95968Y-143600D01*
X-95822Y-144334D01*
X-95406Y-144956D01*
X-94784Y-145372D01*
X-94050Y-145518D01*
X-93316Y-145372D01*
X-93244Y-145324D01*
X-92959Y-145609D01*
X-92500Y-145799D01*
X-90067D01*
X-89915Y-146299D01*
X-90206Y-146494D01*
X-90622Y-147116D01*
X-90768Y-147850D01*
X-90622Y-148584D01*
X-90206Y-149206D01*
X-89584Y-149622D01*
X-88850Y-149768D01*
X-88116Y-149622D01*
X-87494Y-149206D01*
X-87078Y-148584D01*
X-86932Y-147850D01*
X-86985Y-147586D01*
X-86667Y-147199D01*
X-67419D01*
X-47459Y-167159D01*
X-47000Y-167349D01*
X-35789D01*
X-34799Y-168340D01*
X-34847Y-168412D01*
X-34993Y-169146D01*
X-34847Y-169880D01*
X-34431Y-170502D01*
X-33809Y-170918D01*
X-33075Y-171064D01*
X-32341Y-170918D01*
X-31719Y-170502D01*
X-31303Y-169880D01*
X-31157Y-169146D01*
X-31303Y-168412D01*
X-31719Y-167789D01*
X-32114Y-167526D01*
X-31918Y-167055D01*
X-31600Y-167118D01*
X-30866Y-166972D01*
X-30244Y-166556D01*
X-29828Y-165934D01*
X-29682Y-165200D01*
X-29828Y-164466D01*
X-30244Y-163844D01*
X-30866Y-163428D01*
X-31600Y-163282D01*
X-32334Y-163428D01*
X-32956Y-163844D01*
X-33372Y-164466D01*
X-33389Y-164551D01*
X-46081D01*
X-65941Y-144691D01*
X-66400Y-144501D01*
X-91834D01*
X-92212Y-144000D01*
X-92132Y-143600D01*
X-92278Y-142866D01*
X-92694Y-142244D01*
X-93316Y-141828D01*
X-94050Y-141682D01*
D02*
G37*
G36*
X-16520Y-167445D02*
X-18988D01*
Y-170799D01*
X-16520D01*
Y-167445D01*
D02*
G37*
G36*
X-19988D02*
X-22457D01*
Y-170799D01*
X-19988D01*
Y-167445D01*
D02*
G37*
%LPD*%
G36*
X-23390Y116558D02*
Y113663D01*
X-23474Y113646D01*
X-24096Y113230D01*
X-24151Y113148D01*
X-24753D01*
X-24908Y113380D01*
X-25530Y113796D01*
X-25723Y113834D01*
Y115886D01*
X-25881Y116269D01*
X-25881Y116269D01*
X-32772Y123159D01*
X-32565Y123659D01*
X-30491D01*
X-23390Y116558D01*
D02*
G37*
G36*
X-19699Y117315D02*
Y113464D01*
X-19892Y113426D01*
X-20514Y113010D01*
X-20574Y112919D01*
X-21176D01*
X-21384Y113230D01*
X-22006Y113646D01*
X-22091Y113663D01*
Y116827D01*
X-22281Y117286D01*
X-29562Y124567D01*
X-29355Y125067D01*
X-27451D01*
X-19699Y117315D01*
D02*
G37*
G36*
X-13449Y115342D02*
Y112192D01*
X-13949Y112040D01*
X-14094Y112256D01*
X-14716Y112672D01*
X-15450Y112818D01*
X-16184Y112672D01*
X-16806Y112256D01*
X-16840Y112206D01*
X-17370Y112312D01*
X-17386Y112388D01*
X-17801Y113010D01*
X-18424Y113426D01*
X-18616Y113464D01*
Y117539D01*
X-18616Y117539D01*
X-18775Y117922D01*
X-26612Y125759D01*
X-26405Y126259D01*
X-24367D01*
X-13449Y115342D01*
D02*
G37*
G36*
X-50099Y118368D02*
X-52446Y116021D01*
X-52604Y115638D01*
X-52604Y115638D01*
Y70846D01*
X-52604Y70846D01*
X-52446Y70464D01*
X-48622Y66640D01*
X-48239Y66482D01*
X-26822D01*
Y63552D01*
X-26902Y63550D01*
Y62008D01*
X-27402D01*
Y61508D01*
X-29937D01*
Y60476D01*
X-29637D01*
Y58808D01*
X-27193D01*
X-26822Y58495D01*
Y54024D01*
X-22367D01*
Y52438D01*
X-22313Y52165D01*
X-22158Y51933D01*
X-21889Y51664D01*
X-22096Y51164D01*
X-23901D01*
X-24174Y51109D01*
X-24406Y50955D01*
X-25100Y50261D01*
X-29309D01*
Y45110D01*
X-29610Y44734D01*
X-29609Y44390D01*
Y42187D01*
X-26700D01*
Y41687D01*
X-26200D01*
Y38639D01*
X-23923D01*
Y35000D01*
Y8057D01*
X-26465Y5515D01*
X-26730Y5118D01*
X-26823Y4650D01*
Y-11350D01*
X-26730Y-11818D01*
X-26465Y-12215D01*
X-22084Y-16597D01*
X-22054Y-16616D01*
X-22206Y-17116D01*
X-54862D01*
X-70246Y-1733D01*
Y42368D01*
X-70069Y42431D01*
X-69746Y42452D01*
X-69355Y41866D01*
X-68693Y41424D01*
X-67913Y41269D01*
X-67133Y41424D01*
X-66472Y41866D01*
X-66030Y42527D01*
X-65875Y43307D01*
X-66030Y44087D01*
X-66472Y44748D01*
X-67133Y45190D01*
X-67913Y45346D01*
X-68693Y45190D01*
X-69355Y44748D01*
X-69746Y44163D01*
X-70069Y44183D01*
X-70246Y44246D01*
Y74846D01*
X-67037Y78055D01*
X-66874Y77946D01*
X-66140Y77800D01*
X-65406Y77946D01*
X-64784Y78361D01*
X-64368Y78984D01*
X-64222Y79718D01*
X-64368Y80452D01*
X-64784Y81074D01*
X-65406Y81489D01*
X-66140Y81636D01*
X-66874Y81489D01*
X-67496Y81074D01*
X-67912Y80452D01*
X-68058Y79718D01*
X-67912Y78984D01*
X-67803Y78820D01*
X-71170Y75453D01*
X-71187Y75412D01*
X-71687Y75511D01*
Y76138D01*
X-69050Y78775D01*
X-69050Y78775D01*
X-68892Y79158D01*
Y92851D01*
X-64823Y96920D01*
X-64659Y96811D01*
X-63925Y96665D01*
X-63191Y96811D01*
X-62569Y97227D01*
X-62153Y97849D01*
X-62007Y98583D01*
X-62153Y99317D01*
X-62569Y99939D01*
X-63191Y100355D01*
X-63925Y100501D01*
X-64659Y100355D01*
X-65281Y99939D01*
X-65697Y99317D01*
X-65843Y98583D01*
X-65697Y97849D01*
X-65588Y97685D01*
X-66522Y96751D01*
X-66910Y97070D01*
X-66732Y97337D01*
X-66586Y98071D01*
X-66732Y98805D01*
X-67148Y99427D01*
X-67770Y99843D01*
X-68504Y99989D01*
X-69238Y99843D01*
X-69860Y99427D01*
X-70276Y98805D01*
X-70422Y98071D01*
X-70276Y97337D01*
X-70167Y97174D01*
X-70871Y96469D01*
X-71371Y96676D01*
Y99991D01*
X-69362Y102001D01*
X-69230Y101913D01*
X-68496Y101767D01*
X-67762Y101913D01*
X-67140Y102329D01*
X-66724Y102951D01*
X-66578Y103685D01*
X-66724Y104419D01*
X-67140Y105041D01*
X-67762Y105457D01*
X-68496Y105603D01*
X-69230Y105457D01*
X-69852Y105041D01*
X-70090Y104685D01*
X-70521Y104520D01*
X-70707Y104594D01*
X-71191Y104918D01*
X-71925Y105064D01*
X-72659Y104918D01*
X-73281Y104502D01*
X-73304Y104467D01*
X-73804Y104619D01*
Y109099D01*
X-72027Y110877D01*
X-71864Y110767D01*
X-71130Y110621D01*
X-70396Y110767D01*
X-69774Y111183D01*
X-69358Y111805D01*
X-69212Y112539D01*
X-69358Y113273D01*
X-69774Y113896D01*
X-70396Y114311D01*
X-70757Y114383D01*
X-70921Y114926D01*
X-66980Y118868D01*
X-50306D01*
X-50099Y118368D01*
D02*
G37*
G36*
X4564Y99371D02*
X4318Y98910D01*
X4300Y98914D01*
X-8004D01*
X-9851Y100760D01*
Y113079D01*
X-9351Y113286D01*
X4564Y99371D01*
D02*
G37*
G36*
X-26578Y96400D02*
X-26668Y95950D01*
X-26522Y95216D01*
X-26106Y94594D01*
X-25484Y94178D01*
X-24750Y94032D01*
X-24016Y94178D01*
X-23394Y94594D01*
X-22978Y95216D01*
X-22947Y95374D01*
X-22388Y95617D01*
X-22291Y95557D01*
Y84681D01*
X-22291Y84681D01*
X-22133Y84298D01*
X-13301Y75467D01*
Y64011D01*
X-13370Y63539D01*
X-15405D01*
Y62008D01*
X-16406D01*
Y63550D01*
X-16485Y63552D01*
Y68023D01*
X-17175D01*
Y75652D01*
X-17175Y75652D01*
X-17334Y76034D01*
X-17334Y76034D01*
X-36914Y95614D01*
X-36595Y96003D01*
X-36184Y95728D01*
X-35450Y95582D01*
X-34716Y95728D01*
X-34094Y96144D01*
X-33678Y96766D01*
X-33674Y96786D01*
X-26964D01*
X-26578Y96400D01*
D02*
G37*
G36*
X-68804Y121967D02*
X-78328Y112443D01*
X-78487Y112061D01*
X-78487Y112061D01*
Y96007D01*
X-80582Y93912D01*
X-81042Y94158D01*
X-81027Y94236D01*
X-81173Y94970D01*
X-81589Y95592D01*
X-82211Y96008D01*
X-82945Y96154D01*
X-83679Y96008D01*
X-84110Y96322D01*
X-84066Y96539D01*
X-84212Y97273D01*
X-84628Y97896D01*
X-85250Y98311D01*
X-85611Y98383D01*
X-85776Y98926D01*
X-83114Y101587D01*
X-83114Y101587D01*
X-82956Y101970D01*
Y105036D01*
X-82763Y105075D01*
X-82141Y105490D01*
X-81725Y106113D01*
X-81579Y106846D01*
X-81725Y107580D01*
X-82141Y108203D01*
X-82763Y108618D01*
X-83497Y108764D01*
X-84231Y108618D01*
X-84853Y108203D01*
X-85269Y107580D01*
X-85415Y106846D01*
X-85269Y106113D01*
X-84853Y105490D01*
X-84231Y105075D01*
X-84038Y105036D01*
Y104553D01*
X-84502Y104250D01*
X-84538Y104254D01*
X-84930Y104840D01*
X-85552Y105256D01*
X-86286Y105402D01*
X-87020Y105256D01*
X-87642Y104840D01*
X-88058Y104218D01*
X-88204Y103484D01*
X-88058Y102750D01*
X-87949Y102587D01*
X-89648Y100887D01*
X-89807Y100505D01*
X-89807Y100505D01*
Y92876D01*
X-90307Y92608D01*
X-90380Y92658D01*
Y116457D01*
X-84369Y122468D01*
X-69011D01*
X-68804Y121967D01*
D02*
G37*
G36*
X57948Y89139D02*
X58002Y88866D01*
X58157Y88634D01*
X67396Y79394D01*
Y64873D01*
X62352D01*
Y65146D01*
X62194Y65528D01*
X62194Y65528D01*
X57754Y69968D01*
X57817Y70612D01*
X58088Y70793D01*
X58504Y71416D01*
X58650Y72150D01*
X58504Y72884D01*
X58088Y73506D01*
X57466Y73922D01*
X56778Y74058D01*
X56725Y74120D01*
X56677Y74205D01*
X56544Y74540D01*
X56882Y75046D01*
X57028Y75779D01*
X56882Y76513D01*
X56466Y77136D01*
X55844Y77552D01*
X55110Y77697D01*
X54376Y77552D01*
X53754Y77136D01*
X53338Y76513D01*
X53192Y75779D01*
X53338Y75046D01*
X53754Y74423D01*
X53845Y74363D01*
Y69779D01*
X53845Y69779D01*
X54003Y69397D01*
X58027Y65373D01*
X57895Y64873D01*
X45607D01*
X45415Y65335D01*
X49415Y69335D01*
X49680Y69732D01*
X49773Y70200D01*
Y75043D01*
X52925Y78195D01*
X56317D01*
X56866Y77828D01*
X57600Y77682D01*
X58334Y77828D01*
X58956Y78244D01*
X59372Y78866D01*
X59518Y79600D01*
X59372Y80334D01*
X58956Y80956D01*
X58334Y81372D01*
X57600Y81518D01*
X56866Y81372D01*
X56244Y80956D01*
X56034Y80642D01*
X52419D01*
X51950Y80549D01*
X51553Y80284D01*
X47685Y76415D01*
X47420Y76018D01*
X47326Y75550D01*
Y70707D01*
X43682Y67062D01*
X43220Y67253D01*
Y69280D01*
Y72430D01*
Y75580D01*
Y78729D01*
Y81879D01*
Y85028D01*
Y87878D01*
X43520D01*
Y89264D01*
X40354D01*
X37189D01*
Y87878D01*
X37489D01*
Y84006D01*
X36878D01*
X36878Y84006D01*
X36495Y83847D01*
X33609Y80961D01*
X33451Y80579D01*
X33451Y80579D01*
Y15666D01*
X29393Y11608D01*
X24562D01*
X24272Y11961D01*
X24126Y12695D01*
X23710Y13317D01*
X23088Y13733D01*
X22354Y13879D01*
X21620Y13733D01*
X20998Y13317D01*
X20582Y12695D01*
X20436Y11961D01*
X20582Y11227D01*
X20795Y10908D01*
X20528Y10408D01*
X18361D01*
X17286Y11483D01*
X16904Y11641D01*
X16904Y11641D01*
X5528D01*
Y13791D01*
X3937D01*
Y14791D01*
X5528D01*
Y16441D01*
X8677D01*
Y17531D01*
X5709D01*
Y18531D01*
X8677D01*
Y19622D01*
X8377D01*
Y22494D01*
X8748Y22864D01*
X9830D01*
Y20934D01*
X14970D01*
Y24861D01*
X15432Y25053D01*
X20637Y19847D01*
X20528Y19684D01*
X20382Y18950D01*
X20528Y18216D01*
X20944Y17594D01*
X21566Y17178D01*
X22300Y17032D01*
X23034Y17178D01*
X23656Y17594D01*
X24072Y18216D01*
X24218Y18950D01*
X24072Y19684D01*
X23656Y20306D01*
X23034Y20722D01*
X22300Y20868D01*
X21566Y20722D01*
X21403Y20613D01*
X20919Y21097D01*
X21034Y21392D01*
X21164Y21559D01*
X27790D01*
X27828Y21366D01*
X28244Y20744D01*
X28866Y20328D01*
X29600Y20182D01*
X30334Y20328D01*
X30956Y20744D01*
X31372Y21366D01*
X31518Y22100D01*
X31372Y22834D01*
X30956Y23456D01*
X30334Y23872D01*
X29600Y24018D01*
X29262Y23951D01*
X28961Y24401D01*
X29172Y24716D01*
X29318Y25450D01*
X29172Y26184D01*
X28756Y26806D01*
X28134Y27222D01*
X27400Y27368D01*
X26666Y27222D01*
X26044Y26806D01*
X25628Y26184D01*
X25482Y25450D01*
X25610Y24806D01*
X25412Y24485D01*
X25277Y24341D01*
X24589D01*
X24321Y24841D01*
X24572Y25216D01*
X24718Y25950D01*
X24572Y26684D01*
X24156Y27306D01*
X23534Y27722D01*
X22800Y27868D01*
X22742Y28350D01*
X23384Y28478D01*
X24006Y28894D01*
X24422Y29516D01*
X24568Y30250D01*
X24422Y30984D01*
X24006Y31606D01*
X23384Y32022D01*
X23299Y32039D01*
Y44150D01*
Y46181D01*
X25219Y48101D01*
X27661D01*
X27678Y48016D01*
X28094Y47394D01*
X28716Y46978D01*
X29450Y46832D01*
X30184Y46978D01*
X30806Y47394D01*
X31222Y48016D01*
X31368Y48750D01*
X31222Y49484D01*
X30806Y50106D01*
X30184Y50522D01*
X30099Y50539D01*
Y63800D01*
X29909Y64259D01*
X24974Y69194D01*
X25022Y69266D01*
X25168Y70000D01*
X25022Y70734D01*
X24606Y71356D01*
X23984Y71772D01*
X23250Y71918D01*
X22516Y71772D01*
X21894Y71356D01*
X21478Y70734D01*
X21332Y70000D01*
X21478Y69266D01*
X21894Y68644D01*
X22516Y68228D01*
X23250Y68082D01*
X23984Y68228D01*
X24056Y68276D01*
X27056Y65276D01*
X26865Y64814D01*
X24122D01*
Y60003D01*
X27771D01*
Y63907D01*
X28233Y64098D01*
X28801Y63531D01*
Y50539D01*
X28716Y50522D01*
X28094Y50106D01*
X27678Y49484D01*
X27661Y49399D01*
X24950D01*
X24491Y49209D01*
X22191Y46909D01*
X22001Y46450D01*
Y46371D01*
X21539Y46180D01*
X21084Y46634D01*
X20625Y46824D01*
X19850D01*
Y50418D01*
X13528D01*
Y46416D01*
X13142Y46099D01*
X12795Y46168D01*
X12061Y46022D01*
X11439Y45606D01*
X11342Y45461D01*
X10842Y45612D01*
Y46953D01*
X3654D01*
Y44895D01*
X2739D01*
Y46619D01*
X-2598D01*
Y44895D01*
X-3743D01*
Y46046D01*
X-6294D01*
Y48538D01*
X-2191Y52641D01*
X-2001Y53100D01*
Y57576D01*
X3070D01*
Y62519D01*
X-2001D01*
Y63481D01*
X3070D01*
Y68424D01*
X1041D01*
Y72926D01*
X3562D01*
Y78559D01*
X11250D01*
X11250Y78559D01*
X11633Y78717D01*
X12945Y80029D01*
X13166Y79882D01*
X13900Y79736D01*
X14049Y79765D01*
X14295Y79304D01*
X8542Y73552D01*
X8384Y73169D01*
X8384Y73169D01*
Y71365D01*
X8191Y71327D01*
X7569Y70911D01*
X7153Y70289D01*
X7007Y69555D01*
X7153Y68821D01*
X7569Y68199D01*
X8191Y67783D01*
X8925Y67637D01*
X9659Y67783D01*
X10281Y68199D01*
X10697Y68821D01*
X10843Y69555D01*
X10697Y70289D01*
X10281Y70911D01*
X9659Y71327D01*
X9466Y71365D01*
Y72945D01*
X16131Y79610D01*
X16631Y79403D01*
Y75900D01*
X15165Y74434D01*
X15002Y74544D01*
X14268Y74690D01*
X13534Y74544D01*
X12912Y74128D01*
X12496Y73506D01*
X12350Y72772D01*
X12496Y72038D01*
X12912Y71415D01*
X13534Y71000D01*
X14268Y70854D01*
X15002Y71000D01*
X15624Y71415D01*
X16040Y72038D01*
X16186Y72772D01*
X16040Y73506D01*
X15931Y73669D01*
X17555Y75293D01*
X17555Y75293D01*
X17714Y75676D01*
X17714Y75676D01*
Y79857D01*
X18214Y80064D01*
X24491Y73787D01*
Y73787D01*
X24874Y73628D01*
X25248Y73435D01*
X25664Y72813D01*
X26286Y72397D01*
X27020Y72251D01*
X27754Y72397D01*
X28376Y72813D01*
X28792Y73435D01*
X28938Y74169D01*
X28792Y74903D01*
X28376Y75525D01*
X27941Y75816D01*
X27932Y76053D01*
X27988Y76366D01*
X28545Y76738D01*
X28961Y77360D01*
X29107Y78095D01*
X28961Y78829D01*
X28545Y79451D01*
X27923Y79866D01*
X27189Y80012D01*
X26455Y79866D01*
X25833Y79451D01*
X25417Y78829D01*
X25379Y78636D01*
X22870D01*
X20113Y81392D01*
Y85091D01*
X27472D01*
Y89453D01*
X31846D01*
X32306Y89643D01*
X33863Y91201D01*
X37189D01*
Y90264D01*
X40354D01*
X43520D01*
Y91201D01*
X54204D01*
X54663Y91391D01*
X55880Y92607D01*
X57948D01*
Y89139D01*
D02*
G37*
G36*
X-48428Y107257D02*
Y102926D01*
Y98595D01*
Y94784D01*
X-48728D01*
Y92709D01*
X-45287D01*
Y91709D01*
X-48728D01*
Y89634D01*
X-48428D01*
Y85603D01*
Y81272D01*
X-42147D01*
Y85603D01*
Y87337D01*
X-41012D01*
X-41012Y87337D01*
X-40629Y87495D01*
X-38984Y89140D01*
X-38821Y89031D01*
X-38087Y88885D01*
X-37353Y89031D01*
X-36730Y89447D01*
X-36315Y90069D01*
X-36169Y90803D01*
X-36315Y91537D01*
X-36730Y92159D01*
X-37353Y92575D01*
X-38087Y92721D01*
X-38239Y92691D01*
X-38395Y92835D01*
X-38592Y93130D01*
X-38541Y93386D01*
X-40665D01*
Y94386D01*
X-38541D01*
X-38611Y94737D01*
X-38842Y95082D01*
X-38622Y95653D01*
X-38511Y95681D01*
X-32291Y89461D01*
X-32456Y88919D01*
X-32817Y88847D01*
X-33439Y88431D01*
X-33855Y87809D01*
X-33884Y87662D01*
X-34255Y87603D01*
X-34402Y87620D01*
X-34794Y88206D01*
X-35416Y88622D01*
X-36150Y88768D01*
X-36884Y88622D01*
X-37506Y88206D01*
X-37922Y87584D01*
X-38068Y86850D01*
X-37922Y86116D01*
X-37506Y85494D01*
X-36884Y85078D01*
X-36864Y85074D01*
Y84900D01*
X-36809Y84627D01*
X-36655Y84395D01*
X-31567Y79308D01*
X-31859Y78893D01*
X-38094D01*
Y77666D01*
X-38367Y77279D01*
X-38594Y77279D01*
X-48428D01*
Y71351D01*
X-38768D01*
X-38357Y70855D01*
X-38418Y70550D01*
X-38272Y69816D01*
X-38067Y69510D01*
X-38335Y69010D01*
X-47414D01*
X-50230Y71826D01*
Y107772D01*
X-49012Y108990D01*
X-48428D01*
Y107257D01*
D02*
G37*
G36*
X89709Y85776D02*
Y72414D01*
X89209Y72207D01*
X87017Y74398D01*
X86634Y74557D01*
X86634Y74557D01*
X76684D01*
Y76624D01*
X84290D01*
X84328Y76431D01*
X84744Y75809D01*
X85366Y75393D01*
X86100Y75247D01*
X86834Y75393D01*
X87456Y75809D01*
X87872Y76431D01*
X88018Y77165D01*
X87872Y77899D01*
X87456Y78522D01*
X86834Y78937D01*
X86100Y79083D01*
X85366Y78937D01*
X84744Y78522D01*
X84328Y77899D01*
X84290Y77707D01*
X76684D01*
Y79774D01*
X81190D01*
X81228Y79581D01*
X81644Y78959D01*
X82266Y78543D01*
X83000Y78397D01*
X83734Y78543D01*
X84356Y78959D01*
X84772Y79581D01*
X84918Y80315D01*
X84772Y81049D01*
X84356Y81671D01*
X83734Y82087D01*
X83000Y82233D01*
X82266Y82087D01*
X81644Y81671D01*
X81228Y81049D01*
X81190Y80856D01*
X76684D01*
Y82923D01*
X84290D01*
X84328Y82731D01*
X84744Y82108D01*
X85366Y81693D01*
X86100Y81547D01*
X86834Y81693D01*
X87456Y82108D01*
X87872Y82731D01*
X88018Y83465D01*
X87872Y84198D01*
X87456Y84821D01*
X86834Y85237D01*
X86100Y85382D01*
X85366Y85237D01*
X84744Y84821D01*
X84328Y84198D01*
X84290Y84006D01*
X76684D01*
Y86073D01*
X81190D01*
X81228Y85880D01*
X81644Y85258D01*
X82266Y84842D01*
X83000Y84696D01*
X83734Y84842D01*
X84356Y85258D01*
X84772Y85880D01*
X84918Y86614D01*
X84772Y87348D01*
X84356Y87970D01*
X83734Y88386D01*
X83000Y88532D01*
X82266Y88386D01*
X81644Y87970D01*
X81228Y87348D01*
X81190Y87155D01*
X76684D01*
Y89223D01*
X86262D01*
X89709Y85776D01*
D02*
G37*
G36*
X-39191Y114736D02*
Y112594D01*
X-39191Y112594D01*
X-39032Y112212D01*
X-35961Y109141D01*
X-35961Y109141D01*
X-35579Y108982D01*
X-35579Y108982D01*
X-34637D01*
X-34599Y108790D01*
X-34183Y108167D01*
X-33561Y107752D01*
X-32827Y107606D01*
X-32093Y107752D01*
X-31471Y108167D01*
X-31055Y108790D01*
X-30977Y109181D01*
X-30531Y109317D01*
X-30208Y109028D01*
X-30249Y108523D01*
X-30293Y108494D01*
X-30709Y107872D01*
X-30855Y107138D01*
X-30709Y106404D01*
X-30293Y105782D01*
X-29671Y105366D01*
X-28937Y105220D01*
X-28203Y105366D01*
X-27581Y105782D01*
X-27215Y106329D01*
X-27156Y106405D01*
X-26637Y106498D01*
X-26309Y106279D01*
X-25574Y106133D01*
X-24841Y106279D01*
X-24218Y106694D01*
X-23803Y107317D01*
X-23657Y108051D01*
X-23803Y108784D01*
X-24218Y109407D01*
X-24841Y109822D01*
X-25173Y109889D01*
X-25279Y110419D01*
X-24908Y110667D01*
X-24853Y110750D01*
X-24251D01*
X-24096Y110518D01*
X-23474Y110102D01*
X-22740Y109956D01*
X-22006Y110102D01*
X-21384Y110518D01*
X-21323Y110609D01*
X-20722D01*
X-20514Y110297D01*
X-19892Y109882D01*
X-19158Y109736D01*
X-18424Y109882D01*
X-18164Y110055D01*
X-17577Y109846D01*
X-17563Y109797D01*
X-21355Y106005D01*
X-21509Y105773D01*
X-21564Y105500D01*
Y104276D01*
X-21584Y104272D01*
X-22206Y103856D01*
X-22622Y103234D01*
X-22768Y102500D01*
X-22622Y101766D01*
X-22206Y101144D01*
X-21584Y100728D01*
X-21564Y100724D01*
Y100200D01*
X-21509Y99927D01*
X-21355Y99695D01*
X-19355Y97695D01*
X-19123Y97541D01*
X-18850Y97486D01*
X4004D01*
X12686Y88804D01*
Y88326D01*
X12666Y88322D01*
X12044Y87906D01*
X11628Y87284D01*
X11482Y86550D01*
X11628Y85816D01*
X12044Y85194D01*
X12666Y84778D01*
X13400Y84632D01*
X14134Y84778D01*
X14756Y85194D01*
X14931Y85456D01*
X15431Y85304D01*
Y83494D01*
X14931Y83227D01*
X14634Y83425D01*
X13900Y83571D01*
X13166Y83425D01*
X12544Y83010D01*
X12128Y82388D01*
X11982Y81653D01*
X12128Y80920D01*
X12199Y80814D01*
X11026Y79641D01*
X7893D01*
Y86649D01*
X1965D01*
Y79641D01*
X-3690D01*
X-3728Y79834D01*
X-4144Y80456D01*
X-4766Y80872D01*
X-5500Y81018D01*
X-6234Y80872D01*
X-6856Y80456D01*
X-7272Y79834D01*
X-7418Y79100D01*
X-7272Y78366D01*
X-6856Y77744D01*
X-6234Y77328D01*
X-5500Y77182D01*
X-4766Y77328D01*
X-4144Y77744D01*
X-3728Y78366D01*
X-3690Y78559D01*
X-2562D01*
Y72926D01*
X-41D01*
Y68424D01*
X-2001D01*
Y68500D01*
X-2191Y68959D01*
X-3926Y70694D01*
X-3878Y70766D01*
X-3732Y71500D01*
X-3878Y72234D01*
X-4294Y72856D01*
X-4916Y73272D01*
X-5650Y73418D01*
X-6384Y73272D01*
X-7006Y72856D01*
X-7422Y72234D01*
X-7568Y71500D01*
X-7422Y70766D01*
X-7006Y70144D01*
X-6384Y69728D01*
X-5650Y69582D01*
X-4916Y69728D01*
X-4844Y69776D01*
X-3955Y68886D01*
X-4146Y68424D01*
X-8484D01*
X-8817Y68786D01*
Y76344D01*
X-8976Y76727D01*
X-8976Y76727D01*
X-16199Y83950D01*
Y86280D01*
X-16006Y86319D01*
X-15384Y86734D01*
X-14968Y87357D01*
X-14822Y88090D01*
X-14968Y88824D01*
X-15384Y89447D01*
X-16006Y89863D01*
X-16740Y90008D01*
X-17474Y89863D01*
X-18096Y89447D01*
X-18512Y88824D01*
X-18658Y88090D01*
X-18512Y87357D01*
X-18096Y86734D01*
X-17474Y86319D01*
X-17281Y86280D01*
Y83726D01*
X-17281Y83726D01*
X-17123Y83343D01*
X-17513Y83078D01*
X-19884Y85449D01*
Y96725D01*
X-20042Y97108D01*
X-24917Y101983D01*
X-25300Y102141D01*
X-25300Y102141D01*
X-34882D01*
X-35279Y102641D01*
X-35208Y103000D01*
X-35354Y103734D01*
X-35770Y104356D01*
X-36392Y104772D01*
X-37126Y104918D01*
X-37860Y104772D01*
X-38482Y104356D01*
X-38898Y103734D01*
X-38970Y103373D01*
X-39512Y103208D01*
X-41887Y105584D01*
X-42147Y105691D01*
Y107257D01*
Y111587D01*
Y116137D01*
X-48428D01*
Y111587D01*
Y110073D01*
X-49236D01*
X-49236Y110073D01*
X-49619Y109914D01*
X-49619Y109914D01*
X-51022Y108511D01*
X-51522Y108699D01*
Y115414D01*
X-49268Y117667D01*
X-42122D01*
X-39191Y114736D01*
D02*
G37*
G36*
X-95690Y112674D02*
Y90000D01*
X-95499Y89541D01*
X-93795Y87836D01*
Y82684D01*
X-94295Y82518D01*
X-94817Y82866D01*
X-94902Y82883D01*
Y86551D01*
X-95092Y87010D01*
X-96901Y88819D01*
Y112206D01*
X-96364Y112564D01*
X-96190Y112825D01*
X-95690Y112674D01*
D02*
G37*
G36*
X-33831Y86305D02*
X-33439Y85719D01*
X-32817Y85303D01*
X-32083Y85157D01*
X-31349Y85303D01*
X-31185Y85412D01*
X-20226Y74453D01*
Y68323D01*
X-21154D01*
Y65787D01*
X-22153D01*
Y68323D01*
X-23185D01*
Y68323D01*
X-23685Y68257D01*
X-24279Y68852D01*
X-24662Y69010D01*
X-24662Y69010D01*
X-28685D01*
X-28952Y69510D01*
X-28740Y69828D01*
X-28594Y70562D01*
X-28740Y71296D01*
X-29156Y71918D01*
X-29778Y72334D01*
X-29798Y72338D01*
Y79262D01*
X-29852Y79535D01*
X-30007Y79766D01*
X-35079Y84838D01*
X-35030Y85336D01*
X-34794Y85494D01*
X-34378Y86116D01*
X-34349Y86263D01*
X-33978Y86321D01*
X-33831Y86305D01*
D02*
G37*
G36*
X-9900Y76120D02*
Y68308D01*
X-9900Y68308D01*
X-9741Y67926D01*
X-8484Y66668D01*
Y63481D01*
X-3343D01*
X-3300Y63000D01*
X-3343Y62519D01*
X-3799Y62519D01*
X-8484D01*
Y57576D01*
X-6627D01*
Y55282D01*
X-10746Y51164D01*
X-13311D01*
X-13360Y51664D01*
X-12949Y51745D01*
X-12228Y52227D01*
X-11745Y52949D01*
X-11676Y53300D01*
X-13800D01*
Y54300D01*
X-11676D01*
X-11745Y54651D01*
X-12228Y55373D01*
X-12903Y55824D01*
X-12985Y55954D01*
X-13100Y56334D01*
X-10817Y58617D01*
X-10659Y59000D01*
Y76000D01*
X-10659Y76000D01*
X-10817Y76383D01*
X-10427Y76648D01*
X-9900Y76120D01*
D02*
G37*
G36*
X22001Y43881D02*
Y32039D01*
X21916Y32022D01*
X21294Y31606D01*
X20878Y30984D01*
X20732Y30250D01*
X20878Y29516D01*
X21294Y28894D01*
X21916Y28478D01*
X22650Y28332D01*
X22708Y27850D01*
X22066Y27722D01*
X21444Y27306D01*
X21308Y27104D01*
X20811Y27055D01*
X16970Y30895D01*
X17177Y31395D01*
X20150D01*
Y35438D01*
X16689D01*
X13228D01*
Y31541D01*
X1460D01*
X1460Y31541D01*
X1077Y31383D01*
X-1929Y28377D01*
X-5228D01*
Y25374D01*
X-8891D01*
Y25976D01*
X-8890D01*
Y26291D01*
X-8891D01*
Y29927D01*
X-8391Y30078D01*
X-8022Y29528D01*
X-7301Y29045D01*
X-6950Y28976D01*
Y31100D01*
Y33224D01*
X-7301Y33155D01*
X-8022Y32673D01*
X-8505Y31951D01*
X-8527Y31839D01*
X-8891Y31509D01*
X-9102Y31509D01*
X-10988D01*
Y42483D01*
X-10605Y42866D01*
X-10143Y42675D01*
Y42446D01*
X-3743D01*
Y43596D01*
X-2598D01*
Y41872D01*
X2739D01*
Y43596D01*
X3654D01*
Y41538D01*
X10842D01*
Y42888D01*
X11342Y43040D01*
X11439Y42894D01*
X12061Y42478D01*
X12795Y42332D01*
X13142Y42401D01*
X13528Y42084D01*
Y41932D01*
X19850D01*
Y45525D01*
X20356D01*
X22001Y43881D01*
D02*
G37*
G36*
X37489Y77311D02*
Y72430D01*
Y69280D01*
Y66131D01*
X42097D01*
X42289Y65669D01*
X37885Y61265D01*
X37620Y60868D01*
X37527Y60400D01*
Y-11000D01*
X37620Y-11468D01*
X37885Y-11865D01*
X40066Y-14046D01*
X39874Y-14508D01*
X-20712D01*
X-24376Y-10843D01*
Y4143D01*
X-21835Y6685D01*
X-21570Y7082D01*
X-21476Y7550D01*
Y34493D01*
X-20843Y35126D01*
X-20343Y35046D01*
Y35046D01*
X-13943D01*
Y38446D01*
X-13643D01*
Y40046D01*
X-17143D01*
Y41046D01*
X-13643D01*
Y42646D01*
X-13943D01*
Y46046D01*
X-20343D01*
Y45469D01*
X-20904D01*
X-21373Y45376D01*
X-21769Y45111D01*
X-23291Y43590D01*
X-23790Y43797D01*
X-23790Y44734D01*
X-24091Y45110D01*
Y49251D01*
X-23606Y49736D01*
X-21626D01*
X-21622Y49716D01*
X-21206Y49094D01*
X-20584Y48678D01*
X-19850Y48532D01*
X-19116Y48678D01*
X-18494Y49094D01*
X-18078Y49716D01*
X-18074Y49736D01*
X-10450D01*
X-10177Y49791D01*
X-9945Y49945D01*
X-5409Y54482D01*
X-5254Y54713D01*
X-5200Y54987D01*
Y57576D01*
X-3343Y57576D01*
X-3299Y57094D01*
Y53369D01*
X-7402Y49266D01*
X-7593Y48807D01*
Y46046D01*
X-10143D01*
Y44895D01*
X-10144D01*
X-10603Y44705D01*
X-12097Y43211D01*
X-12287Y42752D01*
Y31509D01*
X-14042D01*
X-14417Y31809D01*
X-14761Y31809D01*
X-16965D01*
Y28900D01*
X-17465D01*
Y28400D01*
X-20512D01*
Y25991D01*
Y23867D01*
X-17465D01*
Y23367D01*
X-16965D01*
Y20457D01*
X-14761D01*
X-14417Y20457D01*
X-13949Y20380D01*
Y17587D01*
X-14417Y17510D01*
X-14761Y17510D01*
X-16965D01*
Y14600D01*
X-17465D01*
Y14100D01*
X-20512D01*
Y11859D01*
X-20512Y11359D01*
X-20512Y11191D01*
Y8950D01*
X-17465D01*
Y8450D01*
X-16964D01*
Y5541D01*
X-14761D01*
X-14417Y5540D01*
X-14042Y5841D01*
X-8891D01*
Y7909D01*
X-7800D01*
X-7800Y7909D01*
X-7417Y8067D01*
X-5917Y9567D01*
X-5759Y9950D01*
X-5759Y9950D01*
Y10919D01*
X-5528Y11323D01*
X-4437D01*
Y14291D01*
X-3437D01*
Y11323D01*
X-2468D01*
Y14291D01*
X-1469D01*
Y11323D01*
X-500D01*
Y14291D01*
X500D01*
Y11323D01*
X1469D01*
Y14291D01*
X2468D01*
Y11323D01*
X3731D01*
X3922Y10861D01*
X1980Y8918D01*
X1821Y8536D01*
X1821Y8536D01*
Y8043D01*
X-5070D01*
Y5370D01*
X-5583D01*
Y3937D01*
X-6083D01*
Y3495D01*
X-8043D01*
Y3437D01*
X-8343D01*
Y2504D01*
X-8043D01*
Y-346D01*
Y-5070D01*
X-8043D01*
X-8112Y-5542D01*
X-9676D01*
Y-1580D01*
X-14619D01*
Y-6720D01*
X-9676D01*
Y-6624D01*
X-5070D01*
Y-8043D01*
X-1399D01*
X-1358Y-8542D01*
X-2774Y-9959D01*
X-9439D01*
Y-7891D01*
X-14590D01*
X-14966Y-7591D01*
X-15310Y-7591D01*
X-17513D01*
Y-10500D01*
Y-13409D01*
X-15310D01*
X-14966Y-13409D01*
X-14590Y-13110D01*
X-9439D01*
Y-11041D01*
X-2550D01*
X-2550Y-11041D01*
X-2167Y-10883D01*
X-405Y-9120D01*
X-405Y-9120D01*
X-246Y-8737D01*
Y-8043D01*
X1649D01*
Y-8303D01*
X1703Y-8576D01*
X1857Y-8808D01*
X3046Y-9997D01*
X3278Y-10152D01*
X3551Y-10206D01*
X11646D01*
X11919Y-10152D01*
X12150Y-9997D01*
X13233Y-8914D01*
X13388Y-8683D01*
X13405Y-8594D01*
X15132D01*
X15508Y-8894D01*
X15851Y-8894D01*
X18055D01*
Y-5984D01*
X18555D01*
Y-5484D01*
X21602D01*
Y-3500D01*
X21602Y-3075D01*
X21602Y-2575D01*
Y-591D01*
X18555D01*
Y-91D01*
X18055D01*
Y2819D01*
X15851D01*
X15508Y2819D01*
X15132Y2519D01*
X13378D01*
X13364Y2588D01*
X13209Y2820D01*
X12843Y3186D01*
X12855Y3203D01*
X13001Y3937D01*
X12855Y4671D01*
X12439Y5293D01*
X11817Y5709D01*
X11083Y5855D01*
X10349Y5709D01*
X9726Y5293D01*
X9311Y4671D01*
X9307Y4651D01*
X8043D01*
Y5070D01*
X5070D01*
Y8043D01*
X5039D01*
X4831Y8542D01*
X5648Y9359D01*
X13593D01*
X13910Y8972D01*
X13858Y8709D01*
X14004Y7975D01*
X14419Y7352D01*
X15042Y6937D01*
X15776Y6791D01*
X16510Y6937D01*
X17132Y7352D01*
X17548Y7975D01*
X17694Y8709D01*
X17637Y8991D01*
X18076Y9351D01*
X18137Y9326D01*
X30114D01*
X30114Y9326D01*
X30497Y9484D01*
X35575Y14562D01*
X35733Y14945D01*
X35733Y14945D01*
Y76208D01*
X37027Y77502D01*
X37489Y77311D01*
D02*
G37*
G36*
X2613Y17387D02*
X-2613D01*
Y22613D01*
X2613D01*
Y17387D01*
D02*
G37*
G36*
X9311Y3203D02*
X9726Y2581D01*
X9981Y2411D01*
Y-2700D01*
X11987D01*
Y-3375D01*
X9981D01*
Y-8594D01*
X9558Y-8778D01*
X3952D01*
X3766Y-8542D01*
X3992Y-8043D01*
X5070D01*
Y-5070D01*
X8043D01*
Y-346D01*
Y3223D01*
X9307D01*
X9311Y3203D01*
D02*
G37*
G36*
X44477Y63744D02*
Y59143D01*
X46303D01*
Y56756D01*
X46494Y56297D01*
X52812Y49978D01*
X53272Y49788D01*
X56884D01*
X56956Y49742D01*
X57264Y49331D01*
X57157Y48791D01*
X57303Y48057D01*
X57719Y47435D01*
X58341Y47019D01*
X59075Y46873D01*
X59809Y47019D01*
X60431Y47435D01*
X60847Y48057D01*
X60993Y48791D01*
X60847Y49525D01*
X60431Y50147D01*
X59809Y50563D01*
X59075Y50709D01*
X58415Y50578D01*
X58187Y50774D01*
X58174Y50792D01*
X58401Y51292D01*
X60747D01*
X60764Y51207D01*
X61179Y50585D01*
X61801Y50169D01*
X62535Y50023D01*
X63269Y50169D01*
X63892Y50585D01*
X64307Y51207D01*
X64453Y51941D01*
X64307Y52675D01*
X63892Y53297D01*
X63269Y53713D01*
X62535Y53859D01*
X61801Y53713D01*
X61179Y53297D01*
X60764Y52675D01*
X60747Y52590D01*
X54312D01*
X49082Y57820D01*
Y59143D01*
X67396D01*
Y58984D01*
X67451Y58711D01*
X67606Y58480D01*
X68413Y57673D01*
X68644Y57518D01*
X68917Y57464D01*
X71111D01*
Y52509D01*
X71111D01*
Y52058D01*
X71111D01*
Y46839D01*
X73145D01*
Y39742D01*
X73199Y39469D01*
X73354Y39237D01*
X86386Y26204D01*
Y-62342D01*
X85924Y-62533D01*
X81942Y-58551D01*
X81710Y-58396D01*
X81437Y-58341D01*
X77275D01*
Y-55501D01*
X75320D01*
Y-41006D01*
X75266Y-40733D01*
X75111Y-40502D01*
X67766Y-33157D01*
X67535Y-33002D01*
X67261Y-32948D01*
X56402D01*
X56398Y-32927D01*
X55982Y-32305D01*
X55360Y-31890D01*
X54626Y-31743D01*
X53892Y-31890D01*
X53270Y-32305D01*
X52854Y-32927D01*
X52708Y-33661D01*
X52751Y-33879D01*
X52290Y-34125D01*
X39471Y-21306D01*
X39678Y-20806D01*
X65170D01*
X65932Y-21568D01*
X66315Y-21726D01*
X70135D01*
X70173Y-21919D01*
X70589Y-22541D01*
X71211Y-22957D01*
X71945Y-23103D01*
X72679Y-22957D01*
X73301Y-22541D01*
X73717Y-21919D01*
X73863Y-21185D01*
X73717Y-20451D01*
X73301Y-19829D01*
X72736Y-19451D01*
X72670Y-19165D01*
X72661Y-18900D01*
X72738Y-18848D01*
X73154Y-18226D01*
X73300Y-17492D01*
X73154Y-16758D01*
X72738Y-16136D01*
X72116Y-15720D01*
X71382Y-15574D01*
X70648Y-15720D01*
X70026Y-16136D01*
X69610Y-16758D01*
X69572Y-16951D01*
X68358D01*
X67976Y-17109D01*
X67976Y-17109D01*
X66614Y-18471D01*
X64574D01*
X64486Y-18300D01*
X64421Y-17971D01*
X67689Y-14703D01*
X74568D01*
X74606Y-14895D01*
X75022Y-15518D01*
X75644Y-15933D01*
X76378Y-16079D01*
X77112Y-15933D01*
X77734Y-15518D01*
X78150Y-14895D01*
X78296Y-14161D01*
X78150Y-13427D01*
X77734Y-12805D01*
X77112Y-12389D01*
X76378Y-12244D01*
X75644Y-12389D01*
X75022Y-12805D01*
X74606Y-13427D01*
X74568Y-13620D01*
X67465D01*
X67465Y-13620D01*
X67082Y-13779D01*
X67082Y-13779D01*
X63744Y-17116D01*
X62356D01*
X62204Y-16616D01*
X62234Y-16597D01*
X67657Y-11174D01*
X79205D01*
X79294Y-11306D01*
X79916Y-11722D01*
X80650Y-11868D01*
X81384Y-11722D01*
X82006Y-11306D01*
X82422Y-10684D01*
X82568Y-9950D01*
X82422Y-9216D01*
X82006Y-8594D01*
X81384Y-8178D01*
X80650Y-8032D01*
X79916Y-8178D01*
X79294Y-8594D01*
X79205Y-8726D01*
X67150D01*
X66682Y-8820D01*
X66285Y-9085D01*
X60862Y-14508D01*
X43988D01*
X39974Y-10493D01*
Y59893D01*
X44015Y63935D01*
X44477Y63744D01*
D02*
G37*
G36*
X50120Y-36835D02*
X49873Y-37296D01*
X49689Y-37259D01*
X48955Y-37405D01*
X48792Y-37514D01*
X35015Y-23738D01*
X35222Y-23238D01*
X36523D01*
X50120Y-36835D01*
D02*
G37*
G36*
X42394Y-166362D02*
X41914Y-166409D01*
X27700D01*
X27700Y-166409D01*
X27317Y-166567D01*
X27317Y-166567D01*
X23363Y-170522D01*
X22647D01*
X22157Y-170499D01*
Y-165699D01*
X37850D01*
X38309Y-165509D01*
X39279Y-164540D01*
X42394D01*
Y-166362D01*
D02*
G37*
%LPC*%
G36*
X-57256Y118197D02*
X-58067Y118036D01*
X-58754Y117577D01*
X-59213Y116890D01*
X-59375Y116079D01*
X-59213Y115268D01*
X-58754Y114581D01*
X-58067Y114121D01*
X-57970Y114102D01*
Y72677D01*
X-64481Y66166D01*
X-64563Y66221D01*
X-65374Y66382D01*
X-66185Y66221D01*
X-66872Y65762D01*
X-67331Y65075D01*
X-67493Y64264D01*
X-67331Y63453D01*
X-66872Y62766D01*
X-66185Y62306D01*
X-65374Y62145D01*
X-64563Y62306D01*
X-63876Y62766D01*
X-63417Y63453D01*
X-63255Y64264D01*
X-63417Y65075D01*
X-63472Y65157D01*
X-56751Y71877D01*
X-56596Y72109D01*
X-56542Y72382D01*
Y114102D01*
X-56445Y114121D01*
X-55758Y114581D01*
X-55299Y115268D01*
X-55137Y116079D01*
X-55299Y116890D01*
X-55758Y117577D01*
X-56445Y118036D01*
X-57256Y118197D01*
D02*
G37*
G36*
X-27902Y63539D02*
X-29937D01*
Y62508D01*
X-27902D01*
Y63539D01*
D02*
G37*
G36*
X-48524Y57368D02*
X-49258Y57222D01*
X-49880Y56806D01*
X-50296Y56184D01*
X-50345Y55937D01*
X-55954D01*
X-56004Y56184D01*
X-56419Y56806D01*
X-57042Y57222D01*
X-57776Y57368D01*
X-58510Y57222D01*
X-59132Y56806D01*
X-59548Y56184D01*
X-59693Y55450D01*
X-59548Y54716D01*
X-59132Y54094D01*
X-58510Y53678D01*
X-57776Y53532D01*
X-57042Y53678D01*
X-56419Y54094D01*
X-56004Y54716D01*
X-55954Y54963D01*
X-50345D01*
X-50296Y54716D01*
X-49880Y54094D01*
X-49258Y53678D01*
X-48524Y53532D01*
X-47790Y53678D01*
X-47167Y54094D01*
X-46752Y54716D01*
X-46606Y55450D01*
X-46752Y56184D01*
X-47167Y56806D01*
X-47790Y57222D01*
X-48524Y57368D01*
D02*
G37*
G36*
X-43201Y54899D02*
Y52272D01*
X-40574D01*
X-40617Y52598D01*
X-40936Y53368D01*
X-41443Y54029D01*
X-42105Y54537D01*
X-42875Y54856D01*
X-43201Y54899D01*
D02*
G37*
G36*
X-62098D02*
Y52272D01*
X-59472D01*
X-59515Y52598D01*
X-59834Y53368D01*
X-60341Y54029D01*
X-61002Y54537D01*
X-61772Y54856D01*
X-62098Y54899D01*
D02*
G37*
G36*
X-63099D02*
X-63425Y54856D01*
X-64195Y54537D01*
X-64856Y54029D01*
X-65363Y53368D01*
X-65682Y52598D01*
X-65725Y52272D01*
X-63099D01*
Y54899D01*
D02*
G37*
G36*
X-44201D02*
X-44527Y54856D01*
X-45297Y54537D01*
X-45958Y54029D01*
X-46466Y53368D01*
X-46785Y52598D01*
X-46828Y52272D01*
X-44201D01*
Y54899D01*
D02*
G37*
G36*
Y51272D02*
X-46828D01*
X-46785Y50945D01*
X-46466Y50175D01*
X-45958Y49514D01*
X-45297Y49007D01*
X-44527Y48688D01*
X-44201Y48645D01*
Y51272D01*
D02*
G37*
G36*
X-63099D02*
X-65725D01*
X-65682Y50945D01*
X-65363Y50175D01*
X-64856Y49514D01*
X-64195Y49007D01*
X-63425Y48688D01*
X-63099Y48645D01*
Y51272D01*
D02*
G37*
G36*
X-40574D02*
X-43201D01*
Y48645D01*
X-42875Y48688D01*
X-42105Y49007D01*
X-41443Y49514D01*
X-40936Y50175D01*
X-40617Y50945D01*
X-40574Y51272D01*
D02*
G37*
G36*
X-59472D02*
X-62098D01*
Y48645D01*
X-61772Y48688D01*
X-61002Y49007D01*
X-60341Y49514D01*
X-59834Y50175D01*
X-59515Y50945D01*
X-59472Y51272D01*
D02*
G37*
G36*
X-38386Y45185D02*
X-39104Y45042D01*
X-39714Y44635D01*
X-40121Y44026D01*
X-40264Y43307D01*
X-40121Y42588D01*
X-39714Y41979D01*
X-39104Y41572D01*
X-38386Y41429D01*
X-37667Y41572D01*
X-37058Y41979D01*
X-36651Y42588D01*
X-36508Y43307D01*
X-36651Y44026D01*
X-37058Y44635D01*
X-37667Y45042D01*
X-38386Y45185D01*
D02*
G37*
G36*
X-44100Y64910D02*
X-44834Y64764D01*
X-45456Y64348D01*
X-45872Y63726D01*
X-46018Y62992D01*
X-45872Y62258D01*
X-45456Y61636D01*
X-44834Y61220D01*
X-44100Y61074D01*
X-43366Y61220D01*
X-42744Y61636D01*
X-42328Y62258D01*
X-42324Y62278D01*
X-38538D01*
X-33155Y56895D01*
Y44576D01*
X-33175Y44572D01*
X-33797Y44156D01*
X-34213Y43534D01*
X-34359Y42800D01*
X-34213Y42066D01*
X-33797Y41444D01*
X-33175Y41028D01*
X-32441Y40882D01*
X-31707Y41028D01*
X-31085Y41444D01*
X-30669Y42066D01*
X-30523Y42800D01*
X-30669Y43534D01*
X-31085Y44156D01*
X-31707Y44572D01*
X-31727Y44576D01*
Y57191D01*
X-31782Y57464D01*
X-31936Y57696D01*
X-37738Y63497D01*
X-37969Y63652D01*
X-38242Y63706D01*
X-42324D01*
X-42328Y63726D01*
X-42744Y64348D01*
X-43366Y64764D01*
X-44100Y64910D01*
D02*
G37*
G36*
X-27200Y41187D02*
X-29609D01*
Y38639D01*
X-27200D01*
Y41187D01*
D02*
G37*
G36*
X-43201Y37969D02*
Y35342D01*
X-40574D01*
X-40617Y35669D01*
X-40936Y36439D01*
X-41443Y37100D01*
X-42105Y37607D01*
X-42875Y37926D01*
X-43201Y37969D01*
D02*
G37*
G36*
X-62098D02*
Y35342D01*
X-59472D01*
X-59515Y35669D01*
X-59834Y36439D01*
X-60341Y37100D01*
X-61002Y37607D01*
X-61772Y37926D01*
X-62098Y37969D01*
D02*
G37*
G36*
X-63099D02*
X-63425Y37926D01*
X-64195Y37607D01*
X-64856Y37100D01*
X-65363Y36439D01*
X-65682Y35669D01*
X-65725Y35342D01*
X-63099D01*
Y37969D01*
D02*
G37*
G36*
X-44201D02*
X-44527Y37926D01*
X-45297Y37607D01*
X-45958Y37100D01*
X-46466Y36439D01*
X-46785Y35669D01*
X-46828Y35342D01*
X-44201D01*
Y37969D01*
D02*
G37*
G36*
Y34343D02*
X-46828D01*
X-46785Y34016D01*
X-46466Y33246D01*
X-45958Y32585D01*
X-45297Y32078D01*
X-44527Y31759D01*
X-44201Y31716D01*
Y34343D01*
D02*
G37*
G36*
X-63099D02*
X-65725D01*
X-65682Y34016D01*
X-65363Y33246D01*
X-64856Y32585D01*
X-64195Y32078D01*
X-63425Y31759D01*
X-63099Y31716D01*
Y34343D01*
D02*
G37*
G36*
X-40574D02*
X-43201D01*
Y31716D01*
X-42875Y31759D01*
X-42105Y32078D01*
X-41443Y32585D01*
X-40936Y33246D01*
X-40617Y34016D01*
X-40574Y34343D01*
D02*
G37*
G36*
X-59472D02*
X-62098D01*
Y31716D01*
X-61772Y31759D01*
X-61002Y32078D01*
X-60341Y32585D01*
X-59834Y33246D01*
X-59515Y34016D01*
X-59472Y34343D01*
D02*
G37*
G36*
X30550Y71274D02*
Y69650D01*
X32174D01*
X32105Y70001D01*
X31622Y70723D01*
X30901Y71205D01*
X30550Y71274D01*
D02*
G37*
G36*
X29550D02*
X29199Y71205D01*
X28477Y70723D01*
X27995Y70001D01*
X27926Y69650D01*
X29550D01*
Y71274D01*
D02*
G37*
G36*
X32174Y68650D02*
X30550D01*
Y67026D01*
X30901Y67096D01*
X31622Y67577D01*
X32105Y68299D01*
X32174Y68650D01*
D02*
G37*
G36*
X29550D02*
X27926D01*
X27995Y68299D01*
X28477Y67577D01*
X29199Y67096D01*
X29550Y67026D01*
Y68650D01*
D02*
G37*
G36*
X23122Y64814D02*
X19472D01*
Y60003D01*
X23122D01*
Y64814D01*
D02*
G37*
G36*
X27771Y59003D02*
X24122D01*
Y54192D01*
X27771D01*
Y59003D01*
D02*
G37*
G36*
X23122D02*
X19472D01*
Y54192D01*
X23122D01*
Y59003D01*
D02*
G37*
G36*
X14970Y19972D02*
X9830D01*
Y15028D01*
X14970D01*
Y19972D01*
D02*
G37*
G36*
X-38100Y84374D02*
Y82750D01*
X-36476D01*
X-36545Y83101D01*
X-37027Y83823D01*
X-37749Y84304D01*
X-38100Y84374D01*
D02*
G37*
G36*
X-39100D02*
X-39451Y84304D01*
X-40172Y83823D01*
X-40655Y83101D01*
X-40724Y82750D01*
X-39100D01*
Y84374D01*
D02*
G37*
G36*
X-36476Y81750D02*
X-38100D01*
Y80126D01*
X-37749Y80195D01*
X-37027Y80677D01*
X-36545Y81399D01*
X-36476Y81750D01*
D02*
G37*
G36*
X-39100D02*
X-40724D01*
X-40655Y81399D01*
X-40172Y80677D01*
X-39451Y80195D01*
X-39100Y80126D01*
Y81750D01*
D02*
G37*
G36*
X6862Y92729D02*
X6128Y92583D01*
X5506Y92167D01*
X5090Y91545D01*
X5073Y91461D01*
X-9264D01*
X-9723Y91270D01*
X-11234Y89759D01*
X-11305Y89807D01*
X-12039Y89953D01*
X-12773Y89807D01*
X-13396Y89392D01*
X-13811Y88769D01*
X-13957Y88035D01*
X-13811Y87301D01*
X-13396Y86679D01*
X-12773Y86264D01*
X-12039Y86118D01*
X-11305Y86264D01*
X-10683Y86679D01*
X-10267Y87301D01*
X-10121Y88035D01*
X-10267Y88769D01*
X-10315Y88841D01*
X-8995Y90162D01*
X5073D01*
X5090Y90077D01*
X5506Y89455D01*
X6128Y89039D01*
X6862Y88893D01*
X7596Y89039D01*
X8218Y89455D01*
X8634Y90077D01*
X8780Y90811D01*
X8634Y91545D01*
X8218Y92167D01*
X7596Y92583D01*
X6862Y92729D01*
D02*
G37*
G36*
X11142Y40876D02*
X7748D01*
Y38368D01*
X11142D01*
Y40876D01*
D02*
G37*
G36*
X6748D02*
X3354D01*
Y38368D01*
X6748D01*
Y40876D01*
D02*
G37*
G36*
X2739Y40320D02*
X-2598D01*
Y37387D01*
X-3743D01*
Y38646D01*
X-10143D01*
Y35046D01*
X-3743D01*
Y36305D01*
X-2598D01*
Y35573D01*
X2739D01*
Y40320D01*
D02*
G37*
G36*
X20150Y40482D02*
X17189D01*
Y36439D01*
X20150D01*
Y40482D01*
D02*
G37*
G36*
X16189D02*
X13228D01*
Y36439D01*
X16189D01*
Y40482D01*
D02*
G37*
G36*
X11142Y37368D02*
X7748D01*
Y34860D01*
X11142D01*
Y37368D01*
D02*
G37*
G36*
X6748D02*
X3354D01*
Y34860D01*
X6748D01*
Y37368D01*
D02*
G37*
G36*
X-5950Y33224D02*
Y31600D01*
X-4326D01*
X-4395Y31951D01*
X-4877Y32673D01*
X-5599Y33155D01*
X-5950Y33224D01*
D02*
G37*
G36*
X-4326Y30600D02*
X-5950D01*
Y28976D01*
X-5599Y29045D01*
X-4877Y29528D01*
X-4395Y30249D01*
X-4326Y30600D01*
D02*
G37*
G36*
X-17965Y31809D02*
X-20512D01*
Y29400D01*
X-17965D01*
Y31809D01*
D02*
G37*
G36*
Y22867D02*
X-20512D01*
Y20457D01*
X-17965D01*
Y22867D01*
D02*
G37*
G36*
Y17510D02*
X-20512D01*
Y15100D01*
X-17965D01*
Y17510D01*
D02*
G37*
G36*
X-17965Y7950D02*
X-20512D01*
Y5541D01*
X-17965D01*
Y7950D01*
D02*
G37*
G36*
X-6583Y5370D02*
X-8343D01*
Y4437D01*
X-6583D01*
Y5370D01*
D02*
G37*
G36*
X19055Y2819D02*
Y409D01*
X21602D01*
Y2819D01*
X19055D01*
D02*
G37*
G36*
X-15581Y-1580D02*
X-20524D01*
Y-6720D01*
X-15581D01*
Y-1580D01*
D02*
G37*
G36*
X21602Y-6484D02*
X19055D01*
Y-8894D01*
X21602D01*
Y-6484D01*
D02*
G37*
G36*
X-18513Y-7591D02*
X-21061D01*
Y-10000D01*
X-18513D01*
Y-7591D01*
D02*
G37*
G36*
Y-11000D02*
X-21061D01*
Y-13409D01*
X-18513D01*
Y-11000D01*
D02*
G37*
%LPD*%
G36*
X-43830Y-101558D02*
Y-106676D01*
X-43830Y-106898D01*
X-44330Y-107105D01*
X-48867Y-102567D01*
X-49250Y-102409D01*
X-49250Y-102409D01*
X-55140D01*
X-55178Y-102216D01*
X-55594Y-101594D01*
X-56216Y-101178D01*
X-56950Y-101032D01*
X-57365Y-101115D01*
X-57666Y-100665D01*
X-57378Y-100234D01*
X-57340Y-100041D01*
X-45346D01*
X-43830Y-101558D01*
D02*
G37*
D13*
X-38569Y96504D02*
X-17717Y75652D01*
Y65787D02*
Y75652D01*
X-32083Y87075D02*
X-19685Y74677D01*
Y65787D02*
Y74677D01*
X-45252Y96504D02*
X-38569D01*
X-70787Y75070D02*
X-66140Y79718D01*
X-123450Y-63631D02*
X-120520Y-60702D01*
X-123450Y-99623D02*
Y-63631D01*
X-125221Y-101394D02*
X-123450Y-99623D01*
X-119250Y-68974D02*
X-113685Y-63410D01*
X-119250Y-104297D02*
Y-68974D01*
Y-104297D02*
X-116882Y-106665D01*
X-70787Y-1957D02*
Y75070D01*
X-17513Y14600D02*
X-17465Y14551D01*
Y8701D02*
X-17213Y8450D01*
X-22638Y62008D02*
X-21654Y61024D01*
X-27402Y62008D02*
X-22638D01*
X-21654Y61024D02*
X-21649D01*
X-19685Y59060D01*
Y56260D02*
Y59060D01*
X-21654Y61024D02*
X-20669Y62008D01*
X-15905D01*
X-21654Y61024D02*
Y65787D01*
X1969Y27572D02*
X2997Y28600D01*
X1969Y24724D02*
Y27572D01*
X0Y27572D02*
X2228Y29800D01*
X0Y24724D02*
Y27572D01*
X-1969D02*
X1460Y31000D01*
X-1969Y24724D02*
Y27572D01*
X32700Y86250D02*
X36214Y89764D01*
X32700Y71800D02*
Y86250D01*
X30050Y69150D02*
X32700Y71800D01*
X33992Y80579D02*
X36878Y83465D01*
X33992Y15442D02*
Y80579D01*
X35192Y76432D02*
X39075Y80315D01*
X35192Y14945D02*
Y76432D01*
X30114Y9867D02*
X35192Y14945D01*
X36878Y83465D02*
X40354D01*
X29617Y11067D02*
X33992Y15442D01*
X36214Y89764D02*
X40354D01*
X-17465Y23367D02*
Y28900D01*
Y14600D02*
Y23367D01*
X-9750Y20000D02*
X-4724D01*
X-10700Y19050D02*
X-9750Y20000D01*
X-11638Y8450D02*
X-7800D01*
X-6300Y9950D01*
Y17741D01*
X-6009Y18032D01*
X-4724D01*
X-17465Y8701D02*
Y14551D01*
X24874Y74169D02*
X27020D01*
X18372Y80671D02*
X24874Y74169D01*
X18372Y80671D02*
Y89723D01*
X-6765Y114859D02*
Y132712D01*
X-10203Y136150D02*
X-6765Y132712D01*
X-23531Y136150D02*
X-10203D01*
X30750Y124400D02*
X56300D01*
X27300Y127850D02*
X30750Y124400D01*
X39075Y80315D02*
X40354D01*
X-1969Y15276D02*
X0D01*
X1969D02*
X3937D01*
X0D02*
X1969D01*
X-3937D02*
X-1969D01*
X1460Y31000D02*
X16100D01*
X2228Y29800D02*
X15300D01*
X2997Y28600D02*
X14600D01*
X16100Y31000D02*
X21150Y25950D01*
X15300Y29800D02*
X21300Y23800D01*
X14600Y28600D02*
X21100Y22100D01*
X-12760Y61398D02*
Y75691D01*
X-11200Y59000D02*
Y76000D01*
X-20425Y85225D02*
X-11200Y76000D01*
X-21750Y84681D02*
X-12760Y75691D01*
X-14118Y60039D02*
X-12760Y61398D01*
X-13940Y56260D02*
X-11200Y59000D01*
X27559Y107323D02*
X33465D01*
X21654D02*
X27559D01*
X-5500Y79100D02*
X11250D01*
X13750Y81600D01*
X15972Y80216D02*
Y88728D01*
X17172Y75676D02*
Y89226D01*
X19572Y81168D02*
Y90220D01*
Y81168D02*
X22646Y78095D01*
X14268Y72772D02*
X17172Y75676D01*
X8925Y73169D02*
X15972Y80216D01*
X11050Y128000D02*
X14200Y131150D01*
X30550D01*
X-19750Y133800D02*
X-18600Y134950D01*
X-19444Y130756D02*
X-16600Y133600D01*
X-11250D01*
X-21268Y130756D02*
X-19444D01*
X-9553Y137450D02*
X-5565Y133462D01*
X-20750Y137450D02*
X-9553D01*
X-21997Y138697D02*
X-20750Y137450D01*
X-10700Y134950D02*
X-7965Y132215D01*
X-18600Y134950D02*
X-10700D01*
X-7965Y114362D02*
Y132215D01*
X-23661Y136020D02*
X-23531Y136150D01*
X-25819Y138697D02*
X-21997D01*
X-9165Y113865D02*
Y131515D01*
X-11250Y133600D02*
X-9165Y131515D01*
X-5565Y115357D02*
Y133462D01*
X-20425Y85225D02*
Y96725D01*
X-25300Y101600D02*
X-20425Y96725D01*
X-35726Y101600D02*
X-25300D01*
X-25765Y100215D02*
X-21750Y96200D01*
Y84681D02*
Y96200D01*
X-37285Y100215D02*
X-25765D01*
X-37126Y103000D02*
X-35726Y101600D01*
X-42270Y105201D02*
X-37285Y100215D01*
X-50772Y71602D02*
X-47638Y68469D01*
X-24662D01*
X-23746Y67553D01*
X-48239Y67023D02*
X-25822D01*
X-52063Y70846D02*
X-48239Y67023D01*
X-23746Y65912D02*
Y67553D01*
X-25822Y67023D02*
X-25591Y66791D01*
Y65787D02*
Y66791D01*
X-23746Y65912D02*
X-23622Y65787D01*
X18137Y9867D02*
X30114D01*
X16904Y11100D02*
X18137Y9867D01*
X4927Y11100D02*
X16904D01*
X18370Y95579D02*
X26879D01*
X27919Y94539D01*
X29861D01*
X30000Y94400D01*
X-45287Y105201D02*
X-42270D01*
X16043Y97905D02*
X18370Y95579D01*
X-17717Y56260D02*
X-13940D01*
X-16740Y83726D02*
X-9358Y76344D01*
X-16740Y83726D02*
Y87100D01*
X-1030Y36846D02*
X71Y37946D01*
X-6943Y36846D02*
X-1030D01*
X23248Y11067D02*
X29617D01*
X22354Y11961D02*
X23248Y11067D01*
X1593Y-3923D02*
X2229Y-4559D01*
X2362Y8536D02*
X4927Y11100D01*
X2362Y6083D02*
Y8536D01*
X14584Y9900D02*
X15776Y8709D01*
X5424Y9900D02*
X14584D01*
X3937Y8413D02*
X5424Y9900D01*
X2229Y-5950D02*
X2362Y-6083D01*
X2229Y-5950D02*
Y-4559D01*
X-6069Y-3923D02*
X1593D01*
X-6083Y-3937D02*
X-6069Y-3923D01*
X21150Y25950D02*
X22800D01*
X21300Y23800D02*
X25750D01*
X27400Y25450D01*
X21100Y22100D02*
X29600D01*
X13850Y27400D02*
X22300Y18950D01*
X5100Y27400D02*
X13850D01*
X3937Y26237D02*
X5100Y27400D01*
X3937Y24724D02*
Y26237D01*
X73819Y77165D02*
X86100D01*
X73819Y80315D02*
X83000D01*
X73819Y83465D02*
X86100D01*
X73819Y86614D02*
X83000D01*
X-787Y-8737D02*
Y-6083D01*
X-2550Y-10500D02*
X-787Y-8737D01*
X-12187Y-10500D02*
X-2550D01*
X-10215Y-6083D02*
X-3937D01*
X-10577Y-5720D02*
X-10215Y-6083D01*
X-10676Y-5720D02*
X-10577D01*
X-12147Y-4248D02*
X-10676Y-5720D01*
X-12147Y-4248D02*
Y-4150D01*
X3937Y6083D02*
Y8413D01*
X7087Y21969D02*
X8524Y23405D01*
X4724Y21969D02*
X7087D01*
X8524Y23405D02*
X12400D01*
X500Y65953D02*
Y75910D01*
X-16740Y87100D02*
Y88090D01*
X-9358Y68308D02*
Y76344D01*
Y68308D02*
X-7003Y65953D01*
X-5913D01*
X64100Y-56029D02*
Y-46700D01*
X38897Y-21497D02*
X64100Y-46700D01*
X-56696Y-21497D02*
X38897D01*
X61800Y-56113D02*
Y-47750D01*
X36747Y-22697D02*
X61800Y-47750D01*
X-57193Y-22697D02*
X36747D01*
X91550Y-48250D02*
Y86750D01*
X90250Y-48850D02*
Y86000D01*
Y-48850D02*
X102350Y-60950D01*
X91550Y-48250D02*
X101200Y-57900D01*
X86600Y91700D02*
X91550Y86750D01*
X86486Y89764D02*
X90250Y86000D01*
X-42450Y-69200D02*
X43550D01*
X-54500Y-81250D02*
X-42450Y-69200D01*
X43550D02*
X54950Y-80600D01*
X101200Y-57900D02*
X104900D01*
X99450Y-63900D02*
Y-59950D01*
X89000Y-49500D02*
X99450Y-59950D01*
X89000Y71650D02*
X89000Y-49500D01*
X86634Y74016D02*
X89000Y71650D01*
X69900Y91700D02*
X86600D01*
X73819Y89764D02*
X86486D01*
X68110Y93490D02*
X69900Y91700D01*
X68110Y93490D02*
Y95472D01*
X-66750Y-81250D02*
X-54500D01*
X-40150Y-72250D02*
X42050D01*
X-49250Y-81350D02*
X-40150Y-72250D01*
X-49250Y-86650D02*
Y-81350D01*
X42050Y-72250D02*
X53600Y-83800D01*
X54950Y-80600D02*
X72550D01*
X53600Y-83800D02*
X72550D01*
Y-80600D02*
X74750Y-78400D01*
X72550Y-83800D02*
X74750Y-86000D01*
X42650Y-70700D02*
X54150Y-82200D01*
X74750D01*
X-41400Y-70700D02*
X42650D01*
X-53600Y-82900D02*
X-41400Y-70700D01*
X-74800Y-108600D02*
X-73050Y-106850D01*
X-74800Y-117150D02*
Y-108600D01*
X-78300Y-120650D02*
X-74800Y-117150D01*
X-90777Y-120650D02*
X-78300D01*
X-93227Y-123100D02*
X-90777Y-120650D01*
X-100708Y-123100D02*
Y-113724D01*
X-53600Y-86650D02*
Y-82900D01*
X-36450Y-108700D02*
X-35256Y-107506D01*
X-43500Y-108700D02*
X-36450D01*
X-49250Y-102950D02*
X-43500Y-108700D01*
X-35256Y-107506D02*
Y-103461D01*
X-45122Y-99500D02*
X-41161Y-103461D01*
X-59150Y-99500D02*
X-45122D01*
X-56950Y-102950D02*
X-49250D01*
X-74200Y-102250D02*
X-72200D01*
X-76300Y-104350D02*
X-74200Y-102250D01*
X-76300Y-116400D02*
Y-104350D01*
X73819Y74016D02*
X86634D01*
X-79050Y-119150D02*
X-76300Y-116400D01*
X-96758Y-119150D02*
X-79050D01*
X-100708Y-123100D02*
X-96758Y-119150D01*
X-91308Y-113724D02*
X-81524D01*
X61150Y-162750D02*
X74750Y-149150D01*
X53850Y-162750D02*
X61150D01*
X49650Y-166950D02*
X53850Y-162750D01*
X27700Y-166950D02*
X49650D01*
X23587Y-171063D02*
X27700Y-166950D01*
X7874Y-171063D02*
X23587D01*
X74750Y-149150D02*
Y-123950D01*
X92650Y-106050D01*
X115200D01*
X96126Y-100988D02*
X123181D01*
X124921Y-99248D01*
X67465Y-14161D02*
X76378D01*
X64100Y-56029D02*
X67126Y-59055D01*
X58858D02*
X61800Y-56113D01*
X67126Y-59055D02*
X67960Y-59889D01*
Y-62968D02*
Y-59889D01*
Y-62968D02*
X70492Y-65500D01*
X58024Y-59889D02*
X58858Y-59055D01*
X58024Y-62968D02*
Y-59889D01*
X55492Y-65500D02*
X58024Y-62968D01*
X-68795Y-60724D02*
X-67126Y-59055D01*
X-70492Y-65500D02*
X-68795Y-63802D01*
Y-60724D01*
X-57190Y-63802D02*
X-55492Y-65500D01*
X-57190Y-63802D02*
Y-60724D01*
X-58858Y-59055D02*
X-57190Y-60724D01*
X34528Y-50197D02*
Y-37487D01*
X14842Y-50197D02*
Y-37487D01*
X-4843Y-50197D02*
Y-37487D01*
X-24528Y-50197D02*
Y-37487D01*
X-31000Y-140000D02*
X-21654D01*
X-32200Y-138800D02*
X-31000Y-140000D01*
X-42250Y-138800D02*
X-32200D01*
X-21654Y-140000D02*
X-21650D01*
X-125221Y-104921D02*
Y-101394D01*
X-99083Y-63410D02*
X-95555D01*
X-113685D02*
X-99083D01*
X-100421Y-64748D02*
X-99083Y-63410D01*
X-100421Y-66837D02*
Y-64748D01*
X-87902Y-9043D02*
X-63638Y-33307D01*
Y-55567D02*
Y-33307D01*
X-67126Y-59055D02*
X-63638Y-55567D01*
X-86702Y-8546D02*
X-62283Y-32965D01*
Y-55630D02*
Y-32965D01*
Y-55630D02*
X-58858Y-59055D01*
X-89102Y90177D02*
X-89102Y-56957D01*
X-95555Y-63410D02*
X-89102Y-56957D01*
X-120520Y-60702D02*
X-96965D01*
X-91795Y-55532D01*
X-91795Y88827D02*
X-91795Y-55532D01*
X-42342Y92209D02*
X-40665Y93886D01*
X-45287Y92209D02*
X-42342D01*
X66315Y-21185D02*
X71945D01*
X65395Y-20265D02*
X66315Y-21185D01*
X-56231Y-20265D02*
X65395D01*
X-70787Y-1957D02*
X-55087Y-17658D01*
X-72228Y-2508D02*
Y76362D01*
X-73497Y-2999D02*
Y77176D01*
X-74697Y-3496D02*
Y77673D01*
X-75897Y-3993D02*
Y78170D01*
X-77097Y-4490D02*
Y78667D01*
X-78297Y-4987D02*
Y79164D01*
X-79497Y-5484D02*
Y79661D01*
X-80697Y-5981D02*
Y81895D01*
X-81902Y-6474D02*
Y90130D01*
X-83102Y-6971D02*
Y90627D01*
X-72228Y-2508D02*
X-55724Y-19012D01*
X-72228Y76362D02*
X-69433Y79158D01*
Y93075D02*
X-63925Y98583D01*
X-69433Y79158D02*
Y93075D01*
X66839Y-19012D02*
X68358Y-17492D01*
X71382D01*
X-55724Y-19012D02*
X66839D01*
X-55087Y-17658D02*
X63968D01*
X67465Y-14161D01*
X-73497Y-2999D02*
X-56231Y-20265D01*
X-57690Y-23897D02*
X34409D01*
X-58187Y-25097D02*
X31011D01*
X-58684Y-26297D02*
X23337D01*
X-59181Y-27497D02*
X4852D01*
X-59678Y-28697D02*
X-13633D01*
X-60176Y-29897D02*
X-32118D01*
X-49442Y-31106D02*
X-46563Y-33984D01*
X-60749Y-31106D02*
X-49442D01*
X-50517Y-32305D02*
X-48020Y-34803D01*
X-61246Y-32305D02*
X-50517D01*
X31011Y-25097D02*
X45016Y-39102D01*
X-79497Y-5484D02*
X-58684Y-26297D01*
X-81902Y-6474D02*
X-59678Y-28697D01*
X-13633D02*
X-4843Y-37487D01*
X-84302Y-7552D02*
X-60749Y-31106D01*
X-77097Y-4490D02*
X-57690Y-23897D01*
X-74697Y-3496D02*
X-56696Y-21497D01*
X23337Y-26297D02*
X34528Y-37487D01*
X4852Y-27497D02*
X14842Y-37487D01*
X-78297Y-4987D02*
X-58187Y-25097D01*
X-80697Y-5981D02*
X-59181Y-27497D01*
X-32118Y-29897D02*
X-24528Y-37487D01*
X34409Y-23897D02*
X49689Y-39177D01*
X-75897Y-3993D02*
X-57193Y-22697D01*
X-83102Y-6971D02*
X-60176Y-29897D01*
X-85502Y-8049D02*
X-61246Y-32305D01*
X-84302Y-7552D02*
Y-7552D01*
X-85502Y91668D02*
X-85502Y-8049D01*
X-87902Y-9043D02*
Y90674D01*
X-86702Y-8546D02*
Y91171D01*
X-79821Y82771D02*
Y83248D01*
X-79497Y79661D02*
X-77739Y81418D01*
X-74697Y77673D02*
X-71913Y80457D01*
X-78297Y79164D02*
X-75546Y81915D01*
X-77097Y78667D02*
X-74346Y81418D01*
X-80697Y81895D02*
X-79821Y82771D01*
X-73497Y77176D02*
X-70713Y79960D01*
X-83102Y90627D02*
X-77946Y95783D01*
X-75897Y78170D02*
X-73146Y80921D01*
X-81902Y90130D02*
X-76746Y95285D01*
X-70713Y79960D02*
Y95862D01*
X-71913Y80457D02*
Y100215D01*
X-73146Y80921D02*
Y101448D01*
X-74346Y81418D02*
Y109324D01*
X-75546Y81915D02*
Y111067D01*
X-70713Y95862D02*
X-68504Y98071D01*
X8925Y69555D02*
Y73169D01*
X22646Y78095D02*
X27189D01*
X-9165Y113865D02*
X15972Y88728D01*
X-7965Y114362D02*
X17172Y89226D01*
X-6765Y114859D02*
X18372Y89723D01*
X-5565Y115357D02*
X19572Y90220D01*
X-16740Y87100D02*
X-16740Y87100D01*
X-41898Y118209D02*
X-38650Y114961D01*
Y112594D02*
Y114961D01*
Y112594D02*
X-35579Y109524D01*
X-32827D01*
X-49492Y118209D02*
X-41898D01*
X-35209Y113122D02*
Y114453D01*
X-40165Y119409D02*
X-35209Y114453D01*
X-67204Y119409D02*
X-40165D01*
X-38392Y120609D02*
X-31661Y113878D01*
X-67701Y120609D02*
X-38392D01*
X-31661Y111339D02*
Y113878D01*
X-28937Y107138D02*
Y108614D01*
X-31661Y111339D02*
X-28937Y108614D01*
X-29626Y112102D02*
X-25574Y108051D01*
X-29626Y112102D02*
Y115118D01*
X-45287Y96539D02*
X-45252Y96504D01*
X-41012Y87878D02*
X-38087Y90803D01*
X-45287Y87878D02*
X-41012D01*
X-15905Y60039D02*
X-14118D01*
X-36316Y121809D02*
X-29626Y115118D01*
X-68198Y121809D02*
X-36316D01*
X-52063Y115638D02*
X-49492Y118209D01*
X-52063Y70846D02*
Y115638D01*
X-50772Y107996D02*
X-49236Y109531D01*
X-50772Y71602D02*
Y107996D01*
X-49236Y109531D02*
X-45287D01*
X-76746Y111564D02*
X-67701Y120609D01*
X-75546Y111067D02*
X-67204Y119409D01*
X-84594Y123009D02*
X-33387D01*
X-86202Y125609D02*
X-27227D01*
X-93740Y118071D02*
X-86202Y125609D01*
X-90921Y116681D02*
X-84594Y123009D01*
X-77946Y112061D02*
X-68198Y121809D01*
X-33387Y123009D02*
X-26264Y115886D01*
X-27227Y125609D02*
X-19158Y117539D01*
X-89265Y100505D02*
X-86286Y103484D01*
X-89265Y92037D02*
Y100505D01*
Y92037D02*
X-87902Y90674D01*
X-77946Y95783D02*
Y112061D01*
X-76746Y95285D02*
Y111564D01*
X-71913Y100215D02*
X-68496Y103632D01*
X-71925Y102669D02*
Y103146D01*
X-73146Y101448D02*
X-71925Y102669D01*
X-74346Y109324D02*
X-71130Y112539D01*
X-78922Y89379D02*
Y89856D01*
Y89379D02*
X-77739Y88196D01*
Y81418D02*
Y88196D01*
X-83497Y101970D02*
Y106846D01*
X-88065Y97401D02*
X-83497Y101970D01*
X-88065Y92534D02*
Y97401D01*
Y92534D02*
X-86702Y91171D01*
X-19158Y111653D02*
Y117539D01*
X45520Y128264D02*
X48406Y131150D01*
X52157D01*
X-82945Y92480D02*
Y94236D01*
X-84302Y91123D02*
X-82945Y92480D01*
X-84302Y91123D02*
X-84302Y-7552D01*
X-93740Y90772D02*
X-91795Y88827D01*
X-85984Y92150D02*
X-85502Y91668D01*
X-90921Y91996D02*
X-89102Y90177D01*
X-90921Y91996D02*
Y116681D01*
X54386Y75055D02*
X55110Y75779D01*
X54386Y69779D02*
Y75055D01*
Y69779D02*
X58661Y65504D01*
X56732Y70224D02*
Y72150D01*
Y70224D02*
X61811Y65146D01*
X20617Y100399D02*
X22724Y98291D01*
Y98158D02*
Y98291D01*
X18305Y100399D02*
X20617D01*
X61811Y62008D02*
Y65146D01*
X58661Y62008D02*
Y65504D01*
X-93740Y90772D02*
Y118071D01*
X-26264Y112024D02*
Y115886D01*
X-85984Y92150D02*
Y96539D01*
X-48020Y-38803D02*
Y-34803D01*
X-49630Y-40413D02*
X-48020Y-38803D01*
X-46563Y-38768D02*
Y-33984D01*
Y-38768D02*
X-44772Y-40559D01*
X-68496Y103632D02*
Y103685D01*
X69516Y118079D02*
X76925D01*
X67960Y116523D02*
X69516Y118079D01*
X67960Y110460D02*
Y116523D01*
X64961Y107461D02*
X67960Y110460D01*
X64961Y107323D02*
Y107461D01*
D15*
X-32650Y57400D02*
X-32441Y57191D01*
Y42800D02*
Y57191D01*
X-38242Y62992D02*
X-32650Y57400D01*
X-44100Y62992D02*
X-38242D01*
X40650Y95472D02*
X46063D01*
X12701Y-5972D02*
Y-79D01*
X-10565Y100465D02*
X-8300Y98200D01*
X-10565Y100465D02*
Y128915D01*
X-12550Y130900D02*
X-10565Y128915D01*
X15953Y-163000D02*
X36900D01*
X12008Y-166945D02*
X15953Y-163000D01*
X36900D02*
X39000Y-160900D01*
X4300Y98200D02*
X13400Y89100D01*
Y86550D02*
Y89100D01*
X-8300Y98200D02*
X4300D01*
X-18850D02*
X-8300D01*
X-20850Y100200D02*
Y102500D01*
Y100200D02*
X-18850Y98200D01*
X-25119Y95950D02*
X-24750D01*
X-26669Y97500D02*
X-25119Y95950D01*
X-35450Y97500D02*
X-26669D01*
X-30512Y70562D02*
Y79262D01*
X-36150Y84900D02*
X-30512Y79262D01*
X-36150Y84900D02*
Y86850D01*
X-40720Y100870D02*
X-37611Y97761D01*
X-35711D01*
X-35450Y97500D01*
X-30518Y70556D02*
X-30512Y70562D01*
X-36494Y70556D02*
X-30518D01*
X-36500Y70550D02*
X-36494Y70556D01*
X-5913Y54987D02*
Y60047D01*
X-10450Y50450D02*
X-5913Y54987D01*
X-19850Y50450D02*
X-10450D01*
X-26700Y47651D02*
X-23901Y50450D01*
X-26700Y47513D02*
Y47651D01*
X-23901Y50450D02*
X-19850D01*
X-23622Y56260D02*
X-21654D01*
X-25591D02*
X-23622D01*
X-19850Y50450D02*
Y50635D01*
X-21654Y52438D02*
X-19850Y50635D01*
X-21654Y52438D02*
Y56260D01*
X-45287Y100870D02*
X-40720D01*
X-20850Y102500D02*
Y105500D01*
X-15450Y110900D01*
X69527Y101200D02*
X70866Y102539D01*
X65450Y101200D02*
X69527D01*
X58661Y98280D02*
X61582Y101200D01*
X65450D01*
X68110Y62008D02*
Y79690D01*
X58661Y89139D02*
X68110Y79690D01*
X58661Y89139D02*
Y95472D01*
X54626Y-33661D02*
X67261D01*
X74606Y-59055D02*
Y-41006D01*
X67261Y-33661D02*
X74606Y-41006D01*
X81437Y-59055D02*
X87100Y-64718D01*
X74606Y-59055D02*
X81437D01*
X73858Y39742D02*
X87100Y26500D01*
Y-64718D02*
Y26500D01*
Y-64718D02*
X89114Y-66732D01*
Y-70150D02*
X129100D01*
X89114D02*
Y-66732D01*
Y-101636D02*
Y-70150D01*
X-40300Y-33661D02*
X-39862D01*
X73858Y39742D02*
Y49449D01*
X8450Y-74550D02*
X40900D01*
X4843Y-78158D02*
X8450Y-74550D01*
X40900D02*
X45500Y-79150D01*
X4843Y-83661D02*
Y-78158D01*
X-39250Y-76750D02*
X-16950D01*
X-42300Y-79800D02*
X-39250Y-76750D01*
X-16950D02*
X-14842Y-78857D01*
Y-83661D02*
Y-78857D01*
X45500Y-85700D02*
Y-79150D01*
X60200Y-160900D02*
X72700Y-148400D01*
X39000Y-160900D02*
X60200D01*
X72700Y-148400D02*
Y-123100D01*
X-39862Y-33661D02*
X-34528D01*
X18750D02*
X24528D01*
X-933D02*
X4843D01*
X-20617D02*
X-14842D01*
X72700Y-123100D02*
X89114Y-106686D01*
Y-101636D01*
X6083Y-158167D02*
Y-154642D01*
X3474Y-160776D02*
X6083Y-158167D01*
X-626Y-160776D02*
X3474D01*
X-3740Y-163890D02*
X-626Y-160776D01*
X-3740Y-166945D02*
Y-163890D01*
X24528Y-50197D02*
Y-41142D01*
X4843Y-50197D02*
Y-41142D01*
X-14842Y-50197D02*
Y-41142D01*
X-34528Y-50197D02*
Y-41142D01*
X39000Y-77300D02*
X41650Y-79950D01*
X26500Y-77300D02*
X39000D01*
X24528Y-79272D02*
X26500Y-77300D01*
X41650Y-82750D02*
Y-79950D01*
X24528Y-83661D02*
Y-79272D01*
X-40461Y-83661D02*
X-34528D01*
X-43450Y-86650D02*
X-40461Y-83661D01*
X-57256Y72382D02*
Y116079D01*
X-65374Y64264D02*
X-57256Y72382D01*
X3551Y-9492D02*
X11646D01*
X2362Y-8303D02*
X3551Y-9492D01*
X2362Y-8303D02*
Y-6083D01*
X35228Y111602D02*
X39370Y107461D01*
X34874Y111602D02*
X35228D01*
X33465Y113012D02*
X34874Y111602D01*
X58661Y95472D02*
Y98280D01*
X70866Y102539D02*
Y107323D01*
X68917Y58177D02*
X72850D01*
X68110Y58984D02*
X68917Y58177D01*
X68110Y58984D02*
Y62008D01*
X73858Y55118D02*
Y57169D01*
X72850Y58177D02*
X73858Y57169D01*
Y49449D02*
Y55118D01*
X33465Y113012D02*
Y113150D01*
X39370Y107323D02*
Y107461D01*
X46063Y95472D02*
Y98154D01*
X39370Y104847D02*
X46063Y98154D01*
X39370Y104847D02*
Y107323D01*
X21654Y113150D02*
X27559D01*
X33465D01*
X11646Y-9492D02*
X12728Y-8409D01*
Y-5984D01*
X12701Y-79D02*
X12705Y-67D01*
Y2315D01*
X11083Y3937D02*
X12705Y2315D01*
X6083Y3937D02*
X11083D01*
X-12008Y-166945D02*
X-3740D01*
D17*
X-57776Y55450D02*
X-48524D01*
X-48400D02*
X-48350Y55500D01*
D18*
X-97550Y88550D02*
Y113750D01*
Y88550D02*
X-95551Y86551D01*
X-95040Y118909D02*
X-87040Y126909D01*
X-95040Y90000D02*
Y118909D01*
X-87040Y126909D02*
X-24098D01*
X-95551Y81094D02*
Y86551D01*
Y79027D02*
Y81094D01*
Y79027D02*
X-94661Y78138D01*
Y-54441D02*
Y78138D01*
X-98150Y-57929D02*
X-94661Y-54441D01*
X-121961Y-57929D02*
X-98150D01*
X-122000Y-64067D02*
X-119935Y-62002D01*
X-122000Y-110100D02*
Y-64067D01*
Y-110100D02*
X-117050Y-115050D01*
X-120600Y-66655D02*
X-118165Y-64220D01*
X-120600Y-107500D02*
Y-66655D01*
Y-107500D02*
X-116550Y-111550D01*
X-35520Y-166700D02*
X-33075Y-169146D01*
X-47000Y-166700D02*
X-35520D01*
X-67150Y-146550D02*
X-47000Y-166700D01*
X-46350Y-165200D02*
X-31600D01*
X-66400Y-145150D02*
X-46350Y-165200D01*
X-92500Y-145150D02*
X-66400D01*
X-94050Y-143600D02*
X-92500Y-145150D01*
X-87550Y-146550D02*
X-67150D01*
X-88850Y-147850D02*
X-87550Y-146550D01*
X-117050Y-115050D02*
X-111900D01*
X33594Y91850D02*
X54204D01*
X31846Y90102D02*
X33594Y91850D01*
X54204D02*
X55512Y93158D01*
X14755Y44250D02*
X14760Y44246D01*
X-13300Y21704D02*
X-11638Y23367D01*
X-13300Y16213D02*
Y21704D01*
Y16213D02*
X-11687Y14600D01*
X9385Y-161300D02*
X36479D01*
X38597Y-159181D02*
X55468D01*
X36479Y-161300D02*
X38597Y-159181D01*
X55468D02*
X57803Y-156847D01*
X3740Y-166945D02*
X9385Y-161300D01*
X-6943Y44246D02*
Y48807D01*
X-2650Y53100D01*
Y68500D01*
X-5650Y71500D02*
X-2650Y68500D01*
X23250Y70000D02*
X29450Y63800D01*
Y48750D02*
Y63800D01*
X14760Y44246D02*
X16689Y46175D01*
X12795Y44250D02*
X14755D01*
X7252D02*
X12795D01*
X7248Y44246D02*
X7252Y44250D01*
X24950Y48750D02*
X29450D01*
X22650Y46450D02*
X24950Y48750D01*
X22650Y44150D02*
Y46450D01*
X-24098Y126909D02*
X-12800Y115611D01*
Y108736D02*
Y115611D01*
X-15986Y105550D02*
X-12800Y108736D01*
X-15986Y101594D02*
Y105550D01*
X30615Y102483D02*
X34583Y98516D01*
X26166Y102483D02*
X30615D01*
X63818Y103550D02*
X64961Y104693D01*
X59400Y103550D02*
X63818D01*
X55512Y99661D02*
X59400Y103550D01*
X20625Y46175D02*
X22650Y44150D01*
Y30250D02*
Y44150D01*
X16689Y46175D02*
X20625D01*
X-10144Y44246D02*
X-6943D01*
X-11638Y42752D02*
X-10144Y44246D01*
X-6943D02*
X71D01*
X7248D01*
X-11638Y23367D02*
X-10240Y21969D01*
X-4724D01*
X-10280Y24724D02*
X-3937D01*
X-11638Y23367D02*
X-10280Y24724D01*
X-11638Y23367D02*
Y28900D01*
Y42752D01*
X-41550Y-65450D02*
X-37550D01*
X-47945Y-59055D02*
X-41550Y-65450D01*
X-51378Y-59055D02*
X-47945D01*
X57803Y-156847D02*
Y-152202D01*
X39010Y-163890D02*
X45850D01*
X37850Y-165050D02*
X39010Y-163890D01*
X21057Y-165050D02*
X37850D01*
X37590Y-156410D02*
X45850D01*
X34400Y-159600D02*
X37590Y-156410D01*
X19541Y-159600D02*
X34400D01*
X17894Y-157953D02*
X19541Y-159600D01*
X17894Y-157953D02*
Y-154642D01*
X19488Y-166619D02*
X21057Y-165050D01*
X19488Y-166945D02*
Y-166619D01*
X-119935Y-62002D02*
X-96261D01*
X-97524Y-59402D02*
X-93146Y-55024D01*
X-121307Y-59402D02*
X-97524D01*
X-96261Y-62002D02*
X-90469Y-56209D01*
X-126965Y-62933D02*
X-121961Y-57929D01*
X-125488Y-63583D02*
X-121307Y-59402D01*
X-93146Y88105D02*
X-93146Y-55024D01*
X-90469Y89559D02*
X-90469Y-56209D01*
X-9264Y90811D02*
X6862D01*
X-12039Y88035D02*
X-9264Y90811D01*
X-85491Y124309D02*
X-30222D01*
X-22740Y116827D01*
X-92413Y117386D02*
X-85491Y124309D01*
X-22740Y111874D02*
Y116827D01*
X-126965Y-69492D02*
Y-62933D01*
X-129161Y-71689D02*
X-126965Y-69492D01*
X-130354Y-71689D02*
X-129161D01*
X-125488Y-70504D02*
Y-63583D01*
X-129122Y-74138D02*
X-125488Y-70504D01*
X-137287Y-74138D02*
X-129122D01*
X-95040Y90000D02*
X-93146Y88105D01*
X-92413Y91504D02*
X-90469Y89559D01*
X23622Y90102D02*
X31846D01*
X-92413Y91504D02*
Y117386D01*
X55512Y93158D02*
Y95472D01*
X52362Y100591D02*
X59055Y107283D01*
X52362Y95472D02*
Y100591D01*
X57429Y50437D02*
X59075Y48791D01*
X53272Y50437D02*
X57429D01*
X46953Y56756D02*
X53272Y50437D01*
X46953Y56756D02*
Y61118D01*
X46063Y62008D02*
X46953Y61118D01*
X48433Y57551D02*
X54043Y51941D01*
X48433Y57551D02*
Y61228D01*
X49213Y62008D01*
X54043Y51941D02*
X62535D01*
X64961Y104693D02*
Y107323D01*
X49213Y95472D02*
Y100799D01*
X45965Y104047D02*
X49213Y100799D01*
X45965Y104047D02*
Y107677D01*
X55512Y95472D02*
Y99661D01*
X52461Y116732D02*
X57996D01*
X59055Y115673D01*
Y113189D02*
Y115673D01*
D29*
X45850Y-163890D02*
D03*
Y-156410D02*
D03*
D31*
X70866Y113150D02*
D03*
Y107323D02*
D03*
X64961Y113150D02*
D03*
Y107323D02*
D03*
X39370Y113150D02*
D03*
Y107323D02*
D03*
X33465D02*
D03*
Y113150D02*
D03*
X27559Y107323D02*
D03*
Y113150D02*
D03*
X21654Y107323D02*
D03*
Y113150D02*
D03*
X-26700Y47513D02*
D03*
Y41687D02*
D03*
D38*
X71Y44246D02*
D03*
Y37946D02*
D03*
D39*
X79685Y55118D02*
D03*
X73858D02*
D03*
X79685Y49449D02*
D03*
X73858D02*
D03*
X-11638Y28900D02*
D03*
X-17465D02*
D03*
X-11638Y23367D02*
D03*
X-17465D02*
D03*
X18555Y-91D02*
D03*
X12728D02*
D03*
X18555Y-5984D02*
D03*
X12728D02*
D03*
X-18013Y-10500D02*
D03*
X-12187D02*
D03*
X-11638Y8450D02*
D03*
X-17465D02*
D03*
Y14600D02*
D03*
X-11638D02*
D03*
D43*
X4843Y-41142D02*
D03*
Y-33661D02*
D03*
X24528Y-41142D02*
D03*
Y-33661D02*
D03*
X-34528Y-41142D02*
D03*
Y-33661D02*
D03*
X-14842Y-41142D02*
D03*
Y-33661D02*
D03*
D44*
X16689Y46175D02*
D03*
Y35939D02*
D03*
X57803Y-111065D02*
D03*
Y-100828D02*
D03*
D45*
X23622Y90102D02*
D03*
Y59503D02*
D03*
X57803Y-121602D02*
D03*
Y-152202D02*
D03*
D46*
X7248Y37868D02*
D03*
Y44246D02*
D03*
X-81524Y-107346D02*
D03*
Y-113724D02*
D03*
X67335Y-104687D02*
D03*
Y-111065D02*
D03*
D47*
X-18053Y-4150D02*
D03*
X-12147D02*
D03*
D48*
X59055Y107283D02*
D03*
Y113189D02*
D03*
X500Y60047D02*
D03*
Y65953D02*
D03*
X-5913D02*
D03*
Y60047D02*
D03*
X12400Y23405D02*
D03*
Y17500D02*
D03*
D62*
X-67126Y-59055D02*
D03*
X-74606D02*
D03*
X-58858D02*
D03*
X-51378D02*
D03*
X58858D02*
D03*
X51378D02*
D03*
X67126D02*
D03*
X74606D02*
D03*
X19488Y-166945D02*
D03*
X12008D02*
D03*
X-93227Y-123100D02*
D03*
X-100708D02*
D03*
X-19488Y-166945D02*
D03*
X-12008D02*
D03*
X3740D02*
D03*
X-3740D02*
D03*
D122*
X-99929Y135102D02*
X-53874D01*
X-39370Y149606D01*
X-118110Y116921D02*
X-99929Y135102D01*
X-118110Y78740D02*
Y116921D01*
X-128768Y-106282D02*
Y-100513D01*
X-127118Y-98863D01*
Y-92823D01*
X-106300Y-128750D02*
X-65203D01*
X-128768Y-106282D02*
X-106300Y-128750D01*
X-65203D02*
X-53039Y-140913D01*
X-46400Y-114200D02*
X20150D01*
X-57350Y-106800D02*
X-53800D01*
X-21646Y141461D02*
X-8146D01*
X-22700Y35000D02*
Y42450D01*
Y7550D02*
Y35000D01*
X-20854Y36846D01*
X-17143D01*
X-22700Y42450D02*
X-20904Y44246D01*
X-17143D01*
X57419Y79418D02*
X57600Y79600D01*
X43481Y-15732D02*
X61369D01*
X-21218D02*
X43481D01*
X38750Y-11000D02*
X43481Y-15732D01*
X38750Y-11000D02*
Y60400D01*
X52419Y79418D02*
X57419D01*
X48550Y75550D02*
X52419Y79418D01*
X48550Y70200D02*
Y75550D01*
X38750Y60400D02*
X48550Y70200D01*
X67150Y-9950D02*
X80650D01*
X61369Y-15732D02*
X67150Y-9950D01*
X93800Y-46800D02*
Y-16250D01*
X96850Y-13200D01*
X-25600Y-11350D02*
X-21218Y-15732D01*
X-25600Y-11350D02*
Y4650D01*
X-22700Y7550D01*
X-112024Y-51886D02*
X-98071D01*
X58106Y130870D02*
X104780D01*
X118110Y117539D01*
X39370Y149606D02*
X58106Y130870D01*
X93800Y-46800D02*
X101300Y-54300D01*
X106402D01*
X108702Y-56600D01*
X108800D01*
X68550Y-91500D02*
X74650Y-97600D01*
X25400Y-91500D02*
X68550D01*
X22800Y-94100D02*
X25400Y-91500D01*
X-23100Y-94100D02*
X22800D01*
X79100Y-107050D02*
Y-77850D01*
X75085Y-111065D02*
X79100Y-107050D01*
X-53800Y-106800D02*
X-46400Y-114200D01*
X67335Y-111065D02*
X75085D01*
X57803Y-121602D02*
X57803Y-121602D01*
Y-111065D01*
X57779Y-111089D02*
X57803Y-111065D01*
X67335D01*
X49872Y-111089D02*
X57779D01*
X-120480Y-43429D02*
X-112024Y-51886D01*
X-120480Y-43429D02*
Y50252D01*
X-118110Y52622D01*
Y78740D01*
X-29791Y149606D02*
X-21646Y141461D01*
X-39370Y149606D02*
X-29791D01*
X118110Y78740D02*
Y117539D01*
X-8146Y141461D02*
X0Y149606D01*
Y150165D02*
X7961Y158126D01*
X0Y149606D02*
Y150165D01*
X7961Y158126D02*
X21953D01*
X30472Y149606D01*
X39370D01*
X26685Y-96398D02*
X43780D01*
X23799Y-99283D02*
X26685Y-96398D01*
X23799Y-103461D02*
Y-99283D01*
X46728Y-107945D02*
Y-99347D01*
X43780Y-96398D02*
X46728Y-99347D01*
Y-107945D02*
X49872Y-111089D01*
D124*
X-130500Y-89441D02*
X-127118Y-92823D01*
X-130500Y-89441D02*
Y-84100D01*
X-143000Y-98350D02*
X-107200Y-134150D01*
X-143000Y-98350D02*
Y-84100D01*
X-107200Y-134150D02*
X-69300D01*
X-56000Y-147450D02*
X-22650D01*
X-69300Y-134150D02*
X-56000Y-147450D01*
X-48000Y-130100D02*
X18750D01*
X-65100Y-113000D02*
X-48000Y-130100D01*
X-65100Y-113000D02*
Y-100200D01*
X-71200Y-94100D02*
X-23100D01*
X-84879D02*
X-71200D01*
X-65100Y-100200D01*
X-111398Y-99701D02*
X-90480D01*
X-84879Y-94100D01*
X-114173Y-96925D02*
X-111398Y-99701D01*
X-114173Y-96925D02*
Y-92520D01*
D125*
X-43701Y34843D02*
D03*
X-62598D02*
D03*
X-43701Y51772D02*
D03*
X-62598D02*
D03*
D126*
X-67913Y43307D02*
D03*
D127*
X-38386D02*
D03*
D128*
X9843Y149606D02*
D03*
X0D02*
D03*
X39370Y139764D02*
D03*
Y149606D02*
D03*
X-39370Y159449D02*
D03*
Y149606D02*
D03*
X125070Y71780D02*
D03*
X118110Y78740D02*
D03*
X-111151Y85700D02*
D03*
X-118110Y78740D02*
D03*
D129*
X-9843Y149606D02*
D03*
D130*
X39370Y159449D02*
D03*
X-39370Y139764D02*
D03*
D131*
X111151Y85700D02*
D03*
D132*
X-125070Y71780D02*
D03*
D133*
X-106299Y-72835D02*
D03*
D134*
Y-82677D02*
D03*
X-114173D02*
D03*
Y-72835D02*
D03*
Y-92520D02*
D03*
X-106299D02*
D03*
D135*
X-108268Y35433D02*
D03*
X108268D02*
D03*
Y-35433D02*
D03*
X-108268Y-35433D02*
D03*
X-59055Y145669D02*
D03*
X59055D02*
D03*
D136*
X-97550Y113750D02*
D03*
D137*
X-66140Y79718D02*
D03*
X-95551Y81094D02*
D03*
X-88850Y-147850D02*
D03*
X-94050Y-143600D02*
D03*
X-111900Y-115050D02*
D03*
X-116550Y-111550D02*
D03*
X-53039Y-140913D02*
D03*
X-32441Y42800D02*
D03*
X-44100Y62992D02*
D03*
X-48524Y55450D02*
D03*
X-57776D02*
D03*
X35000Y94650D02*
D03*
X40650Y95000D02*
D03*
X30050Y69150D02*
D03*
X23622Y59503D02*
D03*
X-10700Y19050D02*
D03*
X-13800Y53800D02*
D03*
X-6450Y31100D02*
D03*
X83250Y66800D02*
D03*
X-38600Y82250D02*
D03*
X56300Y124400D02*
D03*
X13900Y81653D02*
D03*
X-5500Y79100D02*
D03*
X13400Y86550D02*
D03*
X11050Y128000D02*
D03*
X30550Y131150D02*
D03*
X-12550Y130900D02*
D03*
X-19750Y133800D02*
D03*
X-3300Y117421D02*
D03*
X41200Y128200D02*
D03*
X16000Y123650D02*
D03*
X19000Y128300D02*
D03*
X-24750Y95950D02*
D03*
X-36150Y86850D02*
D03*
X-35450Y97500D02*
D03*
X-36500Y70550D02*
D03*
X-30512Y70562D02*
D03*
X-5650Y71500D02*
D03*
X23250Y70000D02*
D03*
X12795Y44250D02*
D03*
X29450Y48750D02*
D03*
X-19850Y50450D02*
D03*
X-20850Y102500D02*
D03*
X-15450Y110900D02*
D03*
X27300Y127850D02*
D03*
X30000Y94400D02*
D03*
X65450Y101200D02*
D03*
X11083Y3937D02*
D03*
X22650Y30250D02*
D03*
X22800Y25950D02*
D03*
X27400Y25450D02*
D03*
X22300Y18950D02*
D03*
X29600Y22100D02*
D03*
X83000Y86614D02*
D03*
X86100Y77165D02*
D03*
X83000Y80315D02*
D03*
X86100Y83465D02*
D03*
X57600Y79600D02*
D03*
X96850Y-13200D02*
D03*
X80650Y-9950D02*
D03*
X-86600Y-104750D02*
D03*
X-98071Y-51886D02*
D03*
X108800Y-56600D02*
D03*
X74650Y-97600D02*
D03*
X-37550Y-65450D02*
D03*
X-45400Y-83200D02*
D03*
X-56500Y-88550D02*
D03*
X104900Y-57900D02*
D03*
X102350Y-60950D02*
D03*
X99450Y-63900D02*
D03*
X74750Y-86000D02*
D03*
Y-82200D02*
D03*
X-49250Y-86650D02*
D03*
X-53600D02*
D03*
X-56950Y-102950D02*
D03*
X-72200Y-102250D02*
D03*
X-73050Y-106850D02*
D03*
X-57350D02*
D03*
X-59150Y-99500D02*
D03*
X74750Y-78400D02*
D03*
X-66750Y-81250D02*
D03*
X7874Y-171063D02*
D03*
X115200Y-106050D02*
D03*
X76378Y-14161D02*
D03*
X54626Y-33661D02*
D03*
X18750D02*
D03*
X-933D02*
D03*
X-20617D02*
D03*
X-39862D02*
D03*
X89114Y-101636D02*
D03*
X129100Y-70150D02*
D03*
X79114Y-77850D02*
D03*
X-4900Y-147500D02*
D03*
X-4600Y-135250D02*
D03*
X-24450Y-122750D02*
D03*
X-31600Y-165200D02*
D03*
X70492Y-65500D02*
D03*
X55492D02*
D03*
X-70492D02*
D03*
X-55492D02*
D03*
X45500Y-85700D02*
D03*
X41650Y-82750D02*
D03*
X-42300Y-79800D02*
D03*
X-43450Y-86650D02*
D03*
X20150Y-114173D02*
D03*
X-21654Y-140000D02*
D03*
X-42250Y-138800D02*
D03*
X-125221Y-104921D02*
D03*
X-100421Y-66837D02*
D03*
X-118165Y-64220D02*
D03*
X-116882Y-106665D02*
D03*
X-53059Y129980D02*
D03*
X-40665Y93886D02*
D03*
X-68504Y98071D02*
D03*
X-12039Y88035D02*
D03*
X6862Y90811D02*
D03*
X-16740Y88090D02*
D03*
X-32827Y109524D02*
D03*
X-35209Y113122D02*
D03*
X-25574Y108051D02*
D03*
X-28937Y107138D02*
D03*
X-15986Y101594D02*
D03*
X-32083Y87075D02*
D03*
X-38087Y90803D02*
D03*
X-37126Y103000D02*
D03*
X-22740Y111874D02*
D03*
X-19158Y111653D02*
D03*
X52157Y131150D02*
D03*
X45520Y128264D02*
D03*
X-130354Y-71689D02*
D03*
X96126Y-100988D02*
D03*
X124921Y-99248D02*
D03*
X-82945Y94236D02*
D03*
X-79821Y83248D02*
D03*
X55110Y75779D02*
D03*
X27189Y78095D02*
D03*
X22724Y98158D02*
D03*
X14268Y72772D02*
D03*
X8925Y69555D02*
D03*
X-21268Y130756D02*
D03*
X-23661Y136020D02*
D03*
X-25819Y138697D02*
D03*
X27020Y74169D02*
D03*
X56732Y72150D02*
D03*
X-137287Y-74138D02*
D03*
X-85984Y96539D02*
D03*
X-86286Y103484D02*
D03*
X-33075Y-169146D02*
D03*
X-26264Y112024D02*
D03*
X-71130Y112539D02*
D03*
X71945Y-21185D02*
D03*
X71382Y-17492D02*
D03*
X-63925Y98583D02*
D03*
X-71925Y103146D02*
D03*
X-68496Y103685D02*
D03*
X-83497Y106846D02*
D03*
X-78922Y89856D02*
D03*
X-49630Y-40413D02*
D03*
X-44772Y-40559D02*
D03*
X34583Y98516D02*
D03*
X26166Y102483D02*
D03*
X45016Y-39102D02*
D03*
X49689Y-39177D02*
D03*
X18305Y100399D02*
D03*
X16043Y97905D02*
D03*
X76925Y118079D02*
D03*
X62535Y51941D02*
D03*
X59075Y48791D02*
D03*
X15776Y8709D02*
D03*
X22354Y11961D02*
D03*
D138*
X-22650Y-147450D02*
D03*
X18800Y-130150D02*
D03*
X-127118Y-92823D02*
D03*
D139*
X-23100Y-94100D02*
D03*
D140*
X-57256Y116079D02*
D03*
X-65374Y64264D02*
D03*
D141*
X-130500Y-84100D02*
D03*
X-143000D02*
D03*
D142*
X3937Y6083D02*
D03*
X2362D02*
D03*
X787D02*
D03*
X-787D02*
D03*
X-2362D02*
D03*
X-3937D02*
D03*
Y-6083D02*
D03*
X-2362D02*
D03*
X-787D02*
D03*
X787D02*
D03*
X2362D02*
D03*
X3937D02*
D03*
D143*
X-6083Y3937D02*
D03*
Y2362D02*
D03*
Y787D02*
D03*
Y-787D02*
D03*
Y-2362D02*
D03*
Y-3937D02*
D03*
X6083D02*
D03*
Y-2362D02*
D03*
Y-787D02*
D03*
Y787D02*
D03*
Y2362D02*
D03*
Y3937D02*
D03*
D144*
X-45287Y113862D02*
D03*
Y109531D02*
D03*
Y105201D02*
D03*
Y100870D02*
D03*
Y96539D02*
D03*
Y92209D02*
D03*
Y87878D02*
D03*
Y83547D02*
D03*
D145*
X-42807Y130968D02*
D03*
D146*
X-43398Y74315D02*
D03*
X1799Y130575D02*
D03*
D147*
X-34933Y75910D02*
D03*
D148*
X500D02*
D03*
D149*
X4929Y113626D02*
D03*
Y82996D02*
D03*
D150*
X-3937Y25709D02*
D03*
X-1969D02*
D03*
X0D02*
D03*
X1969D02*
D03*
X3937D02*
D03*
Y14291D02*
D03*
X1969D02*
D03*
X0D02*
D03*
X-1969D02*
D03*
X-3937D02*
D03*
D151*
X5709Y21969D02*
D03*
Y20000D02*
D03*
Y18032D02*
D03*
X-5709D02*
D03*
Y20000D02*
D03*
Y21969D02*
D03*
D152*
X52461Y107677D02*
D03*
Y116732D02*
D03*
X45965D02*
D03*
Y107677D02*
D03*
D153*
X40354Y89764D02*
D03*
Y86614D02*
D03*
Y83465D02*
D03*
Y80315D02*
D03*
Y77165D02*
D03*
Y74016D02*
D03*
Y70866D02*
D03*
Y67716D02*
D03*
X73819D02*
D03*
Y70866D02*
D03*
Y74016D02*
D03*
Y77165D02*
D03*
Y80315D02*
D03*
Y83465D02*
D03*
Y86614D02*
D03*
Y89764D02*
D03*
D154*
X46063Y62008D02*
D03*
X49213D02*
D03*
X52362D02*
D03*
X55512D02*
D03*
X58661D02*
D03*
X61811D02*
D03*
X64961D02*
D03*
X68110D02*
D03*
Y95472D02*
D03*
X64961D02*
D03*
X61811D02*
D03*
X58661D02*
D03*
X55512D02*
D03*
X52362D02*
D03*
X49213D02*
D03*
X46063D02*
D03*
D155*
X-21654Y61024D02*
D03*
D156*
X-27402Y60039D02*
D03*
X-15905D02*
D03*
Y62008D02*
D03*
X-27402D02*
D03*
D157*
X-25591Y56260D02*
D03*
X-23622D02*
D03*
X-21654D02*
D03*
X-19685D02*
D03*
X-17717D02*
D03*
Y65787D02*
D03*
X-19685D02*
D03*
X-21654D02*
D03*
X-23622D02*
D03*
X-25591D02*
D03*
D158*
X-6943Y36846D02*
D03*
Y44246D02*
D03*
X-17143D02*
D03*
Y40546D02*
D03*
Y36846D02*
D03*
D159*
X-91308Y-113724D02*
D03*
Y-106244D02*
D03*
X-100708D02*
D03*
Y-109984D02*
D03*
Y-113724D02*
D03*
D160*
X-34528Y-83661D02*
D03*
X-24528D02*
D03*
Y-50197D02*
D03*
X-34528D02*
D03*
X-14842Y-83661D02*
D03*
X-4843D02*
D03*
Y-50197D02*
D03*
X-14842D02*
D03*
X4843Y-83661D02*
D03*
X14842D02*
D03*
Y-50197D02*
D03*
X4843D02*
D03*
X24528Y-83661D02*
D03*
X34528D02*
D03*
Y-50197D02*
D03*
X24528D02*
D03*
D161*
X-41161Y-154642D02*
D03*
X-35256D02*
D03*
X-29350D02*
D03*
X-23445D02*
D03*
X-17539D02*
D03*
X-11634D02*
D03*
X-5728D02*
D03*
X177D02*
D03*
X6083D02*
D03*
X11988D02*
D03*
X17894D02*
D03*
X23799D02*
D03*
X29705D02*
D03*
Y-103461D02*
D03*
X23799D02*
D03*
X17894D02*
D03*
X11988D02*
D03*
X6083D02*
D03*
X177D02*
D03*
X-5728D02*
D03*
X-11634D02*
D03*
X-17539D02*
D03*
X-23445D02*
D03*
X-29350D02*
D03*
X-35256D02*
D03*
X-41161D02*
D03*
D162*
X36595Y-149721D02*
D03*
Y-143815D02*
D03*
Y-137909D02*
D03*
Y-132004D02*
D03*
Y-126098D02*
D03*
Y-120193D02*
D03*
Y-114287D02*
D03*
Y-108382D02*
D03*
D163*
X-111398Y-107653D02*
Y-99701D01*
Y-107653D02*
X-109067Y-109984D01*
X-100708D01*
M02*
